<?xml version="1.0" standalone="no"?>
<!DOCTYPE svg PUBLIC "-//W3C//DTD SVG 1.1//EN" "http://www.w3.org/Graphics/SVG/1.1/DTD/svg11.dtd" >
<svg xmlns="http://www.w3.org/2000/svg">
<metadata></metadata>
<defs>
<font id="handveticaregular" horiz-adv-x="1112" >
<font-face units-per-em="2048" ascent="1638" descent="-410" />
<missing-glyph horiz-adv-x="544" />
<glyph horiz-adv-x="2048" />
<glyph horiz-adv-x="2048" />
<glyph unicode="&#xd;" horiz-adv-x="2048" />
<glyph unicode=" "  horiz-adv-x="544" />
<glyph unicode="&#x09;" horiz-adv-x="544" />
<glyph unicode="&#xa0;" horiz-adv-x="544" />
<glyph unicode="!" horiz-adv-x="456" d="M293 1513q20 -20 33.5 -38.5t33.5 -28.5q0 -31 -2 -52.5t-12 -43.5q27 -27 36 -70t9 -96q0 -72 -11 -143.5t-20 -112.5q10 -31 12.5 -52.5t2.5 -41.5q-4 -47 -15.5 -84t-22.5 -73t-20.5 -74t-9.5 -87t12 -119q-20 0 -29 -6t-18 -6q-8 0 -20 12q0 -10 -2 -13t-12 -13h-68 q-2 -2 -4 -2v2q0 6 4 20.5t4 18.5l-4 2l-41 -15v54q14 20 17.5 23t9.5 18l14 28q-16 -23 -23 -22q-12 0 -29.5 18.5t-32.5 44t-26.5 52t-11.5 42.5q16 10 16 35q0 14 -5 26.5t-11 20.5q14 14 23.5 55.5t12.5 87.5t4 87t1 57q20 39 41 82q0 45 -6 87t-14.5 83t-14.5 82t-6 88 q41 12 101.5 34.5t103.5 32.5zM141 2q-20 20 -33.5 18t-33.5 9q10 10 12 27.5t2 27.5q-10 29 -10 72q0 23 2 48t8 56q31 -10 59.5 -8t49.5 -19v15h82l26 26h29q10 -10 11 -20t1 -21q-10 -6 -10 -8l6 -6v-2q0 -2 -8 -10l-15 -41q8 8 11.5 16t7.5 13.5t14 8.5t35 3 q10 -31 12 -69t2 -68q-16 0 -16 -17q0 -25 16 -24q-12 -4 -10 -4q-8 0 -13 12t-8 28.5t-5.5 35t-4.5 28.5v10l-41 -41q0 -31 6.5 -38t14.5 -10t14 -10t6 -38q-29 0 -69.5 3t-81.5 3q-20 0 -37 -1t-31 -5zM264 1432q-10 0 -28.5 -6.5t-38.5 -6.5l-15 -110q31 23 48.5 55.5 t48.5 54.5q-15 1 -15 13zM188 834h-18q0 -23 -7 -34.5t-7 -21.5h-41v41h-13q0 -23 -2 -38t-2 -31q0 -25 17 -54q29 47 48 78t30 62zM346 1323q-20 -10 -26.5 -27.5t-26.5 -27.5v-54h-29v-26h15q20 31 31.5 47t18.5 29.5t10 26t7 32.5zM211 125q20 10 26.5 18.5t26.5 8.5 l15 41h14v14h-14l-31.5 -31.5t-19 -20t-10.5 -14.5t-7 -16zM252 629q-23 -20 -29 -23.5t-26 -3.5v-70q10 23 13 34.5t13 21.5h15zM129 178q20 10 26.5 12.5t26.5 2.5v40q-10 -10 -13 -18t-13 -8h-15zM211 887h-14v-27z" />
<glyph unicode="&#x22;" horiz-adv-x="831" d="M133 821q-10 25 -17 33t-14.5 11t-15.5 6t-18 14q10 27 12 67.5t2 67.5q-6 37 -8 79t-2 95t2 114.5t8 137.5q14 -12 28.5 -15.5t27 -5.5t24.5 -11t22 -34v35h80q6 14 23 15h6q16 0 20 16h27l3 -9t1 -7q0 -12 -13.5 -34t-13.5 -32q0 -4 3.5 -6t3.5 -10q0 -12 -9 -31 l-14 -98q10 25 12 43t6.5 30.5t13.5 18.5t34 6q-18 -41 -24.5 -94.5t-6.5 -102.5q0 -55 5 -95t11 -44q-4 -33 -8 -63.5t-4 -59.5v-18.5t2 -18.5q-27 0 -66.5 7.5t-76.5 7.5q-20 0 -37 -2.5t-29 -12.5zM698 1475q10 -25 17.5 -33t14.5 -11.5t15.5 -6.5t18.5 -13 q-10 -27 -12 -67.5t-2 -67.5q4 -37 7 -80t3 -96t-3 -114.5t-7 -135.5q-14 12 -28.5 14t-28 5t-26 12.5t-20.5 33.5v-34h-80q-10 -23 -13 -31t-11 -35h-27q-10 27 -11 50.5t-1 49.5q8 8 8 17q0 4 -3 5t-3 9t10 33l14 98q-12 51 -20 84t-21 82q10 27 15.5 50.5t15.5 45.5 q-8 29 -13 37t-8 15.5t-5 24t-5 59.5q27 0 67 -8.5t77 -8.5q18 0 35.5 3.5t29.5 13.5zM199 1118q18 27 24 46.5t27 19.5l14 98h15v35h-15q-20 -49 -31.5 -78t-17.5 -47t-9 -33.5t-7 -40.5zM633 1178q-18 -27 -24.5 -46.5t-26.5 -19.5l-15 -98h-14v-35h14q20 49 31.5 77.5 t18 47t9.5 34t7 40.5zM121 1247q18 27 24.5 31t24.5 4v98q-8 -27 -11 -45t-14 -18h-12zM711 1049q-18 -27 -24.5 -31t-24.5 -4v-99q8 27 11 45.5t13 18.5h12zM698 1411l-73 -31q2 0 4 -1t6 -1q16 0 39.5 7.5t23.5 25.5z" />
<glyph unicode="#" horiz-adv-x="1021" d="M793 1341q47 37 49 35q8 -4 18 -14q16 -100 14 -107q-2 -6 0 -2q-12 -53 -6 -77q8 -45 2 -117q0 -6 -2 -8q86 -16 101 -43q16 -33 -23 -60q-6 -29 -1 -46t-11 -34q-53 18 -74 4q-8 -4 -15 -8l-14 -8q-2 -23 -3 -43t-1 -37q-2 -16 -4 -31.5t-4 -31.5q-2 -10 -3 -21.5 t-1 -23.5h14q61 -8 58 -17q-10 -29 6 -38t25 14q16 -8 6 -11q-8 0 8 -8l-8 -20q-12 -6 14 -13q29 -4 4 -6q6 -20 1 -33.5t-9 -23.5l-2 -10q-14 -4 -22.5 -4t-10.5 -9l19 -18q-2 -2 -3 -25q-33 4 -64.5 6.5t-59.5 4.5q-4 -39 -9.5 -76t-9.5 -76q-10 -86 -27.5 -169 t-48.5 -154q-31 4 -34 22q-2 20 -19 4q-8 0 -10 12.5t-8 -0.5l-11 -2q-10 -2 -24.5 -4t-32.5 6q-4 -12 -7 -14t-6 -1t-7.5 2t-8.5 -5l-22 -4q-2 8 -2 12v6v5.5t-2 13.5q10 23 20 44t21 44q20 39 -4 18q-16 -37 -17 -30q4 4 -28 -2q-6 -2 -21 0q6 68 4 137t4 131 q8 8 19.5 24.5t13.5 32.5v15h-6q-41 0 -73 -2.5t-56 -6.5q-4 -33 -8 -66.5t-9 -68.5q-10 -86 -27.5 -169t-47.5 -154q-16 2 -22.5 8t-10.5 15t-8 20.5t-13 23.5q-8 0 -10 -8t-8 -21l-10 -2q-10 -2 -24.5 -4t-33.5 6q-6 -23 -13 -35t-15 -24l-23 -4q-4 18 -2 37.5t-2 40.5 q20 45 42 88t40 88l-2 10q-14 -45 -35.5 -75.5t-52.5 -36.5q-6 -2 -21 0q6 68 11.5 137t11.5 131q10 10 16.5 39.5t1.5 50.5q-23 6 -53 -2q6 45 0 113q10 12 14.5 20t8.5 16.5t9 15.5t17 17q25 -10 50 -12q2 10 2 18.5t2 16.5q4 33 8 61.5t8 56.5q6 47 12 76 q-29 -4 -58.5 -11t-62.5 -17q0 14 4.5 22t12.5 14.5t18 11.5t23 15q-2 8 -10.5 8t-22.5 4l-2 11q-4 10 -9 23t1 34q-25 2 -8 6q18 6 6 12l-8 21q16 8 6 8q-8 2 8 10q4 -14 11 -17t13.5 1t9.5 14t-3 23q-4 8 -5 20q109 4 127 0q16 98 27.5 173t20.5 128q39 8 74.5 21.5 t76.5 21.5q12 -16 26.5 -38.5t28.5 -41.5q-4 -31 -14 -62.5t-14 -61.5q10 -18 16 -41q6 -43 -6 -111h13t16 -2q27 -2 55.5 -2h60.5h13v21.5t2 23.5q33 121 28 133q-2 6 33 139q18 4 30.5 4t23 -4t21 -13.5t28.5 -23.5zM418 776q-2 -16 -4 -31.5t-4 -31.5q-2 -14 -3 -29.5 t-1 -32.5h38.5t34.5 2q51 2 74 19q0 -2 10 -4v2q4 33 8 61.5t9 56.5l4 32t4 28q-29 -8 -60.5 -8t-64.5 4q-10 2 -19.5 3t-19.5 3q-6 -43 -6 -74zM600 424q-2 -2 -20 -23q8 -4 1.5 -23.5t-34.5 -27.5l-17 -18q-2 10 2.5 26.5t2.5 26.5l-15 -4q0 -31 -5 -59.5t-1 -22.5 q2 -4 4 -12t6 -19q27 33 54 82q25 47 28 35q2 41 -6 39zM358 1386q-16 -14 -32.5 -18t-26.5 -6l-10 -76q10 -45 26 -2t50 76zM186 399q-16 -12 -30.5 -32.5t-34.5 -34.5l-8 -82l-13 -2l-6 -41l15 4q18 47 29.5 74.5t18.5 46t13 33t16 34.5zM735 1272q4 31 -8 26l-35 -153 q35 35 51 76q14 39 7 36zM559 860q-4 10 -9 16.5t-15 2.5q-12 6 -11.5 0.5t-11.5 -5.5l-4 15q10 4 27.5 3t25.5 3l-6 12q-31 -4 -59.5 -4t-55.5 -10q-6 -2 15 -14q29 -16 49 -13.5t55 -5.5zM647 803q-25 -23 -30 -27t-15 -6l-22 -86q16 14 23 33.5t13 40.5l15 -10zM406 504 q-20 -4 -21 -4v-2h2q2 0 2 -1t4 -1q20 -2 23 0q2 2 11 5t21.5 6t23.5 6t17 5l17 10l-31 -2l-33 -6l-36 12q-8 -10 -11.5 -13t-1.5 -1q7 6 13 -14zM551 993q12 4 7 9.5t-9 13.5h-49q-23 -6 -2.5 -9t41.5 -8l-7 -14zM444 575l-6 15q20 4 41 7t-2 9h-49q-4 -8 -9 -13t7 -9z M608 1026h-28l-9 -2l41 -10zM702 1120l-6 -28l2 -9q2 0 17 39zM266 799l-6 -29l2 -8q2 0 17 39zM438 469q20 -10 25 -6q2 0 10 8h-4h-12.5t-18.5 -2zM406 614h-7v-4q2 0 2 1t5 3v0zM918 471l2 2z" />
<glyph unicode="$" horiz-adv-x="1081" d="M483 -227q0 31 -8 54t-18 54q0 47 8 72q-223 35 -322.5 117t-99.5 229q0 35 14.5 52.5t14.5 21.5q0 6 -3 14t-3 19q0 16 24 32q4 -10 31 -10q18 0 42.5 3t51.5 7t52.5 7.5t43.5 3.5q31 0 37 -11v-108q8 -2 8 -15q0 -10 -5 -25.5t-12 -30.5t-12 -29.5t-5 -22.5 q20 0 46.5 -6t47.5 -6q2 2 6 2q10 0 35 -11q-2 35 -3 75t-1 81q0 63 1 124.5t3 115.5q-29 18 -73 40.5t-87 47t-78 48t-47 42.5l-8 14q-10 18 -25 19q-4 0 -5 -1t-5 -1l-14 -3q-10 0 -12.5 9.5t-12.5 9.5q0 31 1 54.5t11 53.5q-12 0 -24 7l-17 90q-10 0 -13 6t-13 6 q10 23 13 42t13 40h29l12 82q14 61 48 108t81.5 83t103.5 60.5t116 39.5v22q0 18 2 23l4 45q4 0 13 6t19.5 14t21.5 14.5t17 6.5q10 0 11 -13q0 -4 -9 -14h9q0 20 7 38.5t7 29.5l12 -119q0 -8 -1 -16.5t-3 -18.5q23 2 44.5 3t41.5 1q20 -10 47 -26.5t49 -26.5v-55 q31 0 54.5 -2t54.5 -13l68 -82q8 -8 20 -24.5t23.5 -38t19.5 -46t8 -46.5q0 -55 -30 -117q-12 2 -23.5 3t-22.5 1q-31 0 -56 -5t-52 -5q-39 0 -78 20l-27 27q0 10 -7 28.5t-7 41.5l-14 26q-10 0 -10 4v17q0 12 -4.5 30.5t-24.5 42.5h-21q-18 0 -20 2v-110q-12 -10 -12 -55 q0 -20 3 -39t9 -29q-10 -16 -14.5 -66.5t-8.5 -111.5q74 -37 158 -71t155.5 -79t119 -109.5t47.5 -160.5q0 -66 -16.5 -139.5t-46.5 -136t-69.5 -103.5t-84.5 -41q-10 0 -18.5 1t-16.5 1q-6 0 -22.5 -7t-36 -18.5t-38 -24.5t-28.5 -24q-23 0 -38 1.5t-30 3.5v-15 q0 -20 -12 -39.5t-30.5 -38t-40.5 -37t-40 -36.5zM647 195q27 8 43.5 25.5t24.5 40t11 47t3 46.5q0 59 -29.5 87t-68.5 40q-14 0 -22.5 -6t-16.5 -6q-6 0 -13.5 10t-15.5 19l-4 -21q-4 -10 -6 -24q0 -78 8 -146.5t19 -134.5l32 8q8 2 16.5 6.5t18.5 8.5zM430 944 q8 -8 14.5 -15t16.5 -14v50v61.5t-2 60.5l-8 173q-37 -10 -60.5 -49.5t-28.5 -131.5zM743 1079q10 20 20.5 32.5t20.5 23.5h41q-10 -10 -12 -22.5t-2 -33.5h14q8 29 13.5 52.5t5.5 48.5q0 20 -6 49q-41 -51 -77 -85t-46 -65h28zM389 154h-82q0 -10 -13 -22.5t-28.5 -25 t-28 -25.5t-12.5 -24zM117 944q10 0 28.5 17.5t37 39t34.5 41t23 23.5q-2 0 -2 1t-2 1q-8 0 -27 -13.5t-39 -28.5t-39.5 -28.5t-28.5 -13.5q0 -12 5.5 -20.5t9.5 -18.5zM532 1118q-4 -27 -6 -50.5t-2 -41.5q0 12 15 12v82q0 14 14 15l12 -56q0 49 -1 92t-11 84 q-4 -41 -10.5 -74.5t-10.5 -62.5zM301 1352q-10 0 -23.5 -11.5t-27.5 -11.5l18 -106q16 41 18.5 51t10.5 26l14 29q0 4 -2 8t-4 9zM129 807q10 6 20.5 22.5t19.5 35t16.5 37t13.5 28.5zM524 -66v162q-4 -43 -11 -91t-15 -71v-26zM526 514q4 27 13 35l14 108l-14 41 q-6 -61 -10.5 -94t-4.5 -55v-43zM838 575q23 10 35 18.5t34 8.5q-10 23 -15 27t-26 14q0 -2 -10 -29zM553 903v12l-14 -67z" />
<glyph unicode="%" horiz-adv-x="1585" d="M307 680q-20 20 -37.5 22.5t-32 3.5t-24.5 10t-14 44l-15 -12q-27 0 -49 7t-39.5 32.5t-27 73.5t-9.5 132q0 49 2 74t5.5 40t6.5 26.5t3 35.5q-12 0 -19 7l-8 8q0 16 11.5 53t33 77t51 75.5t66.5 52.5q10 0 14 -7.5t15 -7.5q6 14 9 21.5t7 10.5t9 4t16 5l26 -26 q0 20 3 25.5t24 15.5l14 -27q20 10 23.5 13.5t3.5 13.5l41 -27q10 10 24 10q12 0 42 -20.5t61.5 -49t55.5 -59t24 -49.5q0 -8 -1 -18t-1 -21q0 -18 5 -33.5t21 -19.5q-6 -18 -6 -27q0 -12 6 -19t15 -22q0 -20 -3.5 -37.5t-3.5 -33.5t7 -37q-10 0 -12.5 -2t-2.5 -12 q-4 -31 -6 -47.5t-5 -25.5t-6 -13.5t-9 -8.5l14 -82l-25 -24q-4 -16 -22 -35l-23 -22q-25 -10 -61.5 -24.5t-67.5 -14.5q-16 0 -33 10q0 -10 -10 -21l-18 -18q-8 0 -17.5 6t-9.5 16q-4 -10 -18.5 -16t-22.5 -6zM1192 -43q-20 20 -37.5 22.5t-31 3.5t-23.5 10t-17 46l-14 -14 q-27 0 -49.5 8t-38.5 32.5t-25.5 69.5t-9.5 121q0 49 2 76.5t5 45t5.5 32t2.5 36.5q-10 0 -20.5 2.5t-20.5 12.5q2 2 14 34.5t33.5 73.5t54.5 81t76 57h26q0 31 10.5 30.5t30.5 10.5l27 -29q0 23 3 27t26 14l12 -27q20 0 23.5 3t3.5 24l40 -27q10 10 25 10q12 0 43 -20.5 t61.5 -48t55 -56t24.5 -47.5q0 -12 -2 -25.5t-2 -29.5t5.5 -31.5t21.5 -23.5q-6 -12 -6 -21q0 -10 6 -17t14 -15q-10 -31 -12 -60t-2 -51v-12q-8 -59 -12 -72.5t-15 -24.5l15 -82l-68 -81q-29 -8 -72 -25.5t-77 -17.5q-12 0 -15 2q-4 -4 -13 -12.5t-15 -14.5q-12 0 -17.5 5 t-9.5 9q-12 -4 -19.5 -9t-21.5 -5zM281 -111q14 43 22 75t17.5 59.5t21.5 54t33 57.5q-4 -27 13.5 17.5t51 135.5t81.5 216t105.5 259t121 266t129 236.5t129 169t122.5 64.5q23 0 45.5 -5t28.5 -15l45 30q0 -27 -15 -57.5t-39 -63t-52.5 -64.5t-57.5 -60v-13q41 51 64.5 73 t44.5 22q-37 -86 -88 -174.5t-90 -174.5l-15 -32q43 102 50.5 114.5t-12 -39t-63.5 -153t-104.5 -223t-133 -251.5t-149.5 -241t-155.5 -189t-150.5 -94zM346 881q10 6 15.5 7t31.5 1l13 14l10 10q0 25 7 45.5t17 20.5q-8 8 -9 22.5t-1 30.5q0 8 5 23.5t5 31.5q-4 8 -4 18.5 v20.5q0 23 2 44.5t2 37.5q0 31 -6 53.5t-22 26.5l-6 31q-14 2 -26.5 3t-23.5 1q-35 0 -52 -15.5t-26.5 -39t-13.5 -51t-12 -52.5q0 -18 6 -28.5t6 -28.5q-10 -25 -13 -44.5t-3 -37.5q0 -16 2 -35.5t2 -44.5h12l12 -43l13 10l20 21l15 -10q0 -8 1 -16.5t11 -18.5zM1229 143 q8 8 13 9.5t32 1.5l12 12l12 10q0 16 1 30.5t12 22.5h12q-10 12 -11 24.5t-1 25.5q0 10 6 26.5t6 30.5q-6 20 -6 43t3 43t3 43t-18.5 48.5t-18.5 35.5v22q-10 2 -19.5 3t-19.5 1q-41 0 -61.5 -16t-30.5 -38.5t-14 -50.5t-11 -48q0 -16 1.5 -30.5t11.5 -22.5v-13 q-10 -23 -12.5 -41t-2.5 -39q0 -25 7.5 -59.5t7.5 -50.5l14 10l10 10q6 6 11 7q4 0 5 -3.5t9 -3.5l10 -32q10 0 13.5 -1.5t13.5 -9.5zM920 979q23 31 34 45t21 37h26q-10 -23 -13 -34t-13 -21l12 -15q23 53 41.5 88t28.5 76q-43 -8 -68.5 -31.5t-40 -50t-22.5 -53.5t-19 -41 h13zM362 -2q10 10 20.5 12t20.5 2l95 162q-41 -29 -73 -74t-63 -75v-27zM553 1102q18 -8 35 -8q18 0 18 18q0 10 -2 21.5t-2 23.5q0 6 4 27q0 2 -3 7t-9 5l-14 -12q0 -10 -7.5 -27.5t-7.5 -28.5zM672 528l-4 -4q-2 -2 -3 -5t-6 -7l43 45l50 47q4 12 8 23.5t10 11.5l14 27 h-14q-23 -31 -38 -51.5t-25.5 -35t-18.5 -26t-16 -25.5zM1042 461q10 20 18.5 32.5t8.5 22.5h29q0 10 1 20.5t11 20.5l-12 41q-39 -39 -47.5 -82t-8.5 -55zM170 1196q0 10 9 22.5t20 32.5h12q0 6 2 9l4 8q2 2 3 4t5 6l-14 41q-10 -10 -11 -13t-1 -14q0 -27 -6.5 -40 t-14.5 -22t-14 -15.5t-6 -18.5h12zM117 815q16 16 28.5 36.5t12.5 45.5q-10 0 -15.5 -2t-25.5 -12v-68zM1001 94q12 12 26.5 31.5t14.5 48.5q-10 0 -15 -1t-26 -11v-68zM838 815q31 20 38 23.5t17 3.5l39 90q-10 -16 -19.5 -28.5t-19.5 -33.5zM512 774q31 31 42 48.5 t11 47.5q-10 -10 -25.5 -30.5t-15.5 -51.5zM1438 379q10 14 16 22.5t11 16.5t11.5 17t16.5 26h-29q0 -37 -13 -47.5t-13 -20.5v-14zM1425 111q-14 -14 -14 -43q23 23 32 36t9 43q-9 -18 -27 -36zM565 883q10 20 12.5 31.5t2.5 19.5v18q-10 -10 -12.5 -34.5t-2.5 -34.5z M1452 162q10 31 11 39t1 28q-10 -10 -11 -33.5t-1 -33.5zM1083 408v26q-10 0 -12 -3t-2 -23h14zM199 1128v27q-10 0 -12.5 -3t-2.5 -24h15zM471 842v28q-14 -14 -14 -28h14zM1370 367l12 41zM1341 121q10 10 11 12q0 4 -3 6t-8 8v-26zM1288 25q10 0 11 2t1 12q-12 0 -12 -14 zM1397 53l12 13zM416 760q-2 0 -7.5 -3t-5.5 -9z" />
<glyph unicode="&#x26;" horiz-adv-x="1239" d="M55 444q4 14 7.5 28.5t9.5 29.5v2q14 39 34.5 79t46 72.5t56.5 54t65 25.5q10 31 19.5 45.5t9.5 36.5l-55 68q-6 20 -9 32.5t-7.5 22.5t-9.5 21.5t-15 31.5q-29 0 -38 39t-9 86q0 37 3 68t3 39q20 61 49 107t59 98h29v-15h27q0 10 15 12.5t26 2.5v-15q10 10 20 12.5 t21 2.5q0 16 9 44.5t28 28.5q6 0 16 -6q10 -10 14 -21.5t15 -31.5h12q0 27 9 39t22 12q27 0 38 -39q20 23 34 34t34 21h27v-26q31 0 46 -17.5t36 -37.5q72 -31 109.5 -80.5t68.5 -110.5h12q0 -41 -11 -82t-29.5 -79t-40 -72.5t-42.5 -65.5l-53 12q0 -31 -17.5 -61.5 t-37.5 -61.5q-18 16 -28.5 21.5t-14.5 5.5q-10 0 -15.5 -13.5t-23.5 -25.5q31 -41 58.5 -76.5t37.5 -87.5q12 0 29.5 -14t36 -36.5t37 -49.5t34.5 -51l12 -13q10 0 20.5 -2t20.5 -12q0 8 4.5 14.5t6.5 10.5q23 51 34 108.5t11 98.5q29 0 51 1t45 1q35 0 65.5 -5.5 t69.5 -23.5q0 -31 -16.5 -80t-32.5 -96h8q-4 -10 -9 -18.5t-9 -16.5q0 -4 -1 -8t-1 -8h-4q-4 -20 -4 -19q-4 -35 -7.5 -58.5t-11.5 -41t-22.5 -28.5t-40.5 -21q0 -41 7 -73t48 -62q0 -10 2 -13.5t12 -13.5q14 0 24.5 -22.5t16.5 -51.5t9.5 -59.5t3.5 -44.5q-8 -4 -23 -4 q-31 0 -72 9t-55 9q-25 -8 -53 -8q-53 0 -77 38t-34 105q-10 0 -13 15.5t-13 25.5h-27q-12 -8 -14 -17t-15 -50q23 0 34 -2.5t22 -12.5q0 -47 -30 -78.5t-73 -31.5q-16 0 -20 2v55h14v27q-20 10 -26.5 12t-28.5 2q0 -10 -6.5 -20.5t-6.5 -20.5q-10 0 -14 -2t-14 -12 q-20 0 -33.5 8t-34.5 18q-20 -10 -23 -21t-3 -32h-31q-29 0 -58.5 1t-48.5 11q-10 -10 -26.5 -13t-26.5 -13q-10 10 -19.5 28.5t-9.5 38.5q-20 0 -39.5 -6t-42.5 -6q-20 20 -28 39.5t-39 42.5q-4 20 -18.5 33.5t-30.5 23.5l-33 23q-14 12 -27 28q-6 29 -8 59t-2 62 q0 33 2 65.5t6 67.5zM535 516q-10 23 -20.5 41t-20.5 29q-16 12 -21 12h-8v14l-12 15v12q-10 0 -20.5 7t-20.5 7q-20 -20 -26.5 -37.5t-29.5 -17.5q-4 -10 -9 -30.5t-11 -44t-13.5 -44t-13.5 -30.5h-26q-4 -12 -10.5 -25.5t-10.5 -28.5v-110h53l-12 -27h27q0 -20 8 -38.5 t18 -29.5q10 0 20.5 6.5t20.5 6.5q31 -10 70 -18.5t80 -8.5v-26h16q10 0 16.5 1t22.5 11q31 23 62.5 27t72.5 14q-29 86 -49 127t-31 51q-10 10 -14 15t-14 26h-13q-10 10 -16 15t-10 9l-43 -2v72h-12zM479 940q10 4 19.5 15.5t19.5 23.5t21.5 21.5t25.5 9.5q2 0 4 -1t6 -1 q10 31 16.5 37t37.5 16v-12q59 20 59 86q0 39 -18.5 80.5t-40.5 64.5q-10 8 -21.5 10t-21.5 2h-11q-76 0 -116.5 -19.5t-40.5 -80.5q0 -12 2 -28.5t6 -33.5q-10 -23 -18.5 -57.5t-8.5 -62.5q0 -31 13 -43q0 31 8 47t18 47q41 -31 41 -57v-64zM819 1198l15 53q-20 0 -34 9.5 t-34 19.5q0 -23 8 -47.5t19 -34.5h26zM289 1157l14 41h-29v-41h15zM874 1143q0 10 2.5 20.5t12.5 20.5q-12 0 -21 6q-4 2 -5 4t-3 4v-55h14zM262 598l-29 -12q0 -10 7.5 -22.5t7.5 -33.5zM330 911q-10 23 -13.5 34t-13.5 22q-6 -12 -6 -21q0 -6 3 -9t3 -11zM274 1020 q0 6 -6 12q-2 2 -6 2v-41q0 -10 6 -12q2 -2 6 -2v41z" />
<glyph unicode="'" horiz-adv-x="432" d="M127 786q-10 25 -17.5 33t-14.5 11.5t-15 6.5t-19 13q10 27 12.5 67.5t2.5 67.5q-6 37 -8 79t-2 95t2 114.5t8 137.5q14 -12 28.5 -15t26.5 -5t24.5 -11.5t22.5 -33.5v34h80q10 23 13 31t12 35h26q10 -27 11.5 -50.5t1.5 -49.5q-10 -10 -11 -17q0 -4 3 -6t3 -10 q0 -12 -8 -31l-14 -98q10 25 12 43t6 30.5t13.5 18.5t33.5 6q10 -74 12.5 -166t2.5 -166q-16 0 -17 -39q0 -23 5.5 -42t11.5 -19q-6 -8 -10 -8q-6 0 -11.5 15t-8.5 38t-5 48.5t-4 45.5v29q-10 -27 -24.5 -55.5t-24.5 -51.5q0 -45 3 -61t7 -16q6 0 14 14t15 14q4 0 7 -15.5 t3 -60.5q-27 0 -67 7.5t-76 7.5q-20 0 -37 -2.5t-29 -12.5zM193 1083q18 27 24 46.5t27 19.5l14 98h14v35h-14q-20 -49 -31.5 -77.5t-17.5 -47t-9 -34t-7 -40.5zM115 1212q18 27 24 31t25 4v99q-8 -27 -11 -45.5t-14 -18.5h-12z" />
<glyph unicode="(" horiz-adv-x="589" d="M35 305h8l-8 86q6 80 9 125t3 74q0 31 -3 55.5t-9 65.5q10 14 14 16t14 2q10 -14 18.5 -37.5t8.5 -50.5h14q0 27 -3 61.5t-25 61.5q0 41 17.5 86t37.5 72q-2 2 -4 5t-6 7l-2 2v-14h-56q4 33 16.5 64.5t28 61t30 60.5t20.5 63q8 20 14 39t14 37q10 29 22.5 58.5t16.5 44.5 q6 0 13.5 11t15.5 25.5t15 29t12 20.5l15 3t7 1h4l15 -2q4 0 8 -1t10 -1q8 0 37 6q0 4 10 4t20.5 -1t18.5 -1q14 0 14 6h43q16 0 32.5 -2t31.5 -8v-15q0 -43 -11.5 -54t-25.5 -16t-28.5 -15.5t-20.5 -49.5q0 -4 2 -6q4 -16 4 -31q0 -12 -3 -23t-13 -11q-12 -6 -13 -13v-10 q0 -2 -5 -4t-25 -2q-6 -74 -22.5 -139.5t-35 -130t-37 -130t-28.5 -139.5q0 -41 9 -94t20.5 -113.5t20.5 -121t9 -113.5h-6q4 -55 12 -119q12 -25 12 -65q0 -29 -5 -57.5t-9 -55.5l-10 -51h12q0 27 9.5 33t19.5 20q0 27 7 44t7 44q10 0 24.5 -41t30 -91t30 -91t24.5 -41 q4 -10 7 -21.5t3 -27.5q0 -14 -4 -31.5t-19 -42.5v35h-14v-17h-55q-10 27 -14.5 31t-26.5 4v-35q-10 12 -20.5 23.5t-20.5 11.5v-18h-53l-56 168h-14q0 -14 -8 -18.5t-8 -18.5q-18 0 -19 22q0 25 14.5 65t14.5 71q0 14 -2 18v-35l-41 17q-10 29 -12 53t-2 51 q-10 14 -21.5 25.5t-34.5 11.5v104h-12zM207 61q10 14 20.5 36t22.5 36h12q6 16 10 17q2 0 2 -1.5t2 -1.5v3l-6 14q-6 0 -6 37q0 20 1 42.5t5 37.5q2 2 2 10l-10 -15q0 -14 -8 -16t-21 -2q-10 -55 -13 -99.5t-13 -97.5zM186 977q16 12 31.5 39.5t27 61.5t18.5 68t7 60 q-12 -41 -23 -75.5t-34 -47.5q-10 -14 -11 -28.5t-1 -42.5h-27zM145 676q10 14 19.5 35.5t9.5 33.5h-29v-69zM90 342h-14v-18h28q0 14 2.5 25t12.5 26h-29v-33zM90 481q-14 0 -14 -18q0 -14 2 -38t12 -50v106zM166 203v20h29v15q-23 0 -28 -4.5t-15 -30.5h14zM160 641v16 q-10 0 -19.5 -2t-9.5 -14h29zM203 305h10l-12 19z" />
<glyph unicode=")" horiz-adv-x="571" d="M539 795h-9l9 -88q-6 -82 -9.5 -127t-3.5 -76t3 -56.5t10 -66.5q-10 -14 -14.5 -16.5t-14.5 -2.5q-8 14 -16.5 38t-8.5 51h-14v-13q0 -27 4 -56.5t25 -55.5q0 -41 -17.5 -87t-36.5 -73l7 -16q2 -2 2 -3.5t2 -3.5v23h53q-4 -35 -16.5 -66.5t-26.5 -62.5t-27.5 -62.5 t-19.5 -64.5q-8 -20 -15.5 -40t-13.5 -38q-10 -31 -21.5 -60.5t-15.5 -43.5q-4 0 -11 -11.5t-15.5 -26t-15.5 -29.5t-11 -21q-16 -6 -20 -7q-2 0 -3.5 1t-3.5 1l-14 3h-16h-14.5t-20.5 -5q0 -6 -10 -6t-19.5 2t-19.5 2q-12 0 -13 -6q-8 0 -19 -1t-24 -1q-16 0 -32.5 2 t-26.5 10v15q0 45 11.5 57t25.5 17.5t27.5 15.5t17.5 49q-2 0 -2 6q-2 2 -2 27q0 14 2 26.5t12 12.5q10 8 11.5 13t1.5 9t5 6t23 2q6 74 21.5 141.5t34 133t36 133.5t27.5 141q0 20 -3 44t-7 53l-19 116q-10 61 -19 123t-9 117h6q-4 51 -13 121q-14 20 -14 67q0 29 5 58.5 t12 56.5l10 51h-13q0 -27 -8 -33t-18 -20q0 -27 -7 -45.5t-7 -44.5q-10 0 -23.5 42t-28 93t-29 93t-24.5 42q-4 10 -7 21.5t-3 27.5q0 14 4 33t18 43v-35h15v17h53q8 -29 12 -33t27 -4v37q10 -12 19.5 -24.5t19.5 -12.5v20h51l53 -172h15q0 14 8 18.5t8 18.5q18 0 18 -22 q0 -25 -14 -66t-14 -74q0 -14 2 -18v37l39 -17q10 -29 12 -54t2 -52q10 -16 21.5 -27.5t31.5 -11.5v-106h13zM373 1042q-10 -14 -20.5 -35.5t-20.5 -35.5h-13q-4 -14 -8 -15.5t-6 -1.5l-2 -2q2 0 8 -14q6 0 6 -31q0 -20 -2 -45.5t-6 -42.5q0 -8 -2 -10l12 14q0 14 8.5 16.5 t18.5 2.5q10 57 13.5 102t13.5 98zM393 109q-16 -12 -30.5 -40t-25.5 -63t-18.5 -70.5t-7.5 -60.5q12 41 23.5 77t32.5 48q10 14 11 29.5t1 44.5h24zM432 416q-10 -14 -19.5 -36t-9.5 -36h29v72zM485 758h15v18h-29q0 -14 -2 -26.5t-12 -26.5h28v35zM485 614q4 0 7 2 q8 2 8 17q0 14 -2 38.5t-13 51.5v-109zM412 899v-20h-27v-15q20 0 25.5 4t15.5 31h-14zM418 451v-17q10 0 19 2t9 15h-28zM377 795h-10l12 -19z" />
<glyph unicode="*" horiz-adv-x="827" d="M336 1298v58v71.5t4 85.5q6 -8 12 -9t12.5 -3t11.5 -7t9 -21v20h37q0 10 10 10t10 10h13v-10q0 -8 -5.5 -21.5t-5.5 -19.5q0 -2 1 -3t1 -7q0 2 -4 -18l-6 -62q12 29 9 45.5t20 16.5q-8 -27 -10 -60t-2 -63v-41q10 8 30 14q25 8 56 19q33 8 68.5 19t80.5 21q-4 -8 -3 -14 t1 -12t-4 -12.5t-16 -14.5l18 8l14 -36q6 0 11 -7l2 -2q0 -6 10 -6l4 -10q-12 -4 -10 -4q-6 -4 -21.5 -3t-19.5 -1q-4 0 -4 -1t-4 -3q-10 0 -21 -2l-61 -13q35 0 48 4.5t19 -12.5q-27 0 -58.5 -8t-62.5 -18q-29 -6 -45 -15h2q31 -31 70 -86q16 -29 37.5 -59.5t48.5 -69.5 q-10 2 -17.5 -1t-13.5 -5t-12 -1t-18 13l12 -16l-29 -23q4 -10 -4 -14v-2q-6 -2 -2 -12l-8 -6q-2 0 -6 4l-2 2q-4 8 -8.5 21.5l-6.5 19.5h-3t-7 6q0 4 -6 16q-14 23 -19.5 30t-0.5 1q8 -12 10 -18q4 -6 3 -11.5t-11 -13.5q-8 27 -25.5 55.5t-36.5 52.5q-18 27 -35 48 q-2 2 -2 4q0 -2 -2 -4q-16 -18 -47 -41l-27 -39q-8 -18 -12 -24.5t-5 -7.5t-1 1v2q-2 0 0 4l8 17l-30 -56q-6 -12 -7 -16q-6 -6 -7 -6h-3q-2 -6 -6 -19.5t-8 -21.5l-2 -2q-4 -4 -6 -4l-9 6q4 10 -2 12l7 31q-8 -10 -10.5 -14.5t-0.5 -0.5l-28 23l-19 12q-20 0 -10 13 q6 25 27.5 55.5t37.5 58.5q39 55 70 86q-16 8 -45 15q-53 16 -86 25t-29 22q-10 2 -20 2q-4 2 -5 3t-3 1q-6 2 -20.5 1t-22.5 3q-2 0 -3 1t-6 3l5 10q8 0 12 6v2q2 6 0 21l22 22q8 0 4 7.5t-4 11.5v12t-4 14q45 -10 82 -21t70 -19q31 -10 55 -19q8 -4 15.5 -7t15.5 -7v28z M389 1311q10 14 12 26.5t13 12.5l8 61h6v23h-6q-10 -31 -15.5 -49.5t-8.5 -30t-4 -20.5t-5 -23zM510 1235q18 -4 30.5 -3t14.5 -7l61 12l2 -6l23 6l-4 6h-49q-29 0 -42 -2t-36 -6zM483 1081q2 -16 7.5 -28.5t-5.5 -18.5l31 -53l-4 -4l14 -19l2 5q-10 31 -16 48t-10 28.5 t-8.5 19.5t-10.5 22zM575 1290q18 -2 22.5 -4t6.5 -8l58 18q-14 -2 -25.5 -4t-11.5 0l-7 8zM358 1389q6 18 9.5 20t11.5 2v62q-4 -16 -5 -27.5t-5 -11.5h-7zM276 1247q27 -10 25 -18l8 4l6 -6h19l2 6q-23 14 -32 14h-28zM379 1159q-4 12 -6 21.5t-4 15.5h-45v-8 q12 -14 26 -14l10 8z" />
<glyph unicode="+" horiz-adv-x="1038" d="M545 1073q20 -23 37.5 -50.5t35.5 -49.5q0 -33 -5 -56.5t-5 -56.5q23 -35 32 -94t11 -127q49 -2 104.5 -4t105.5 -3t87 -2t47 -1q29 0 29 -4q0 -6 -24.5 -14.5t-47.5 -16.5q-23 -6 -24 -6q14 0 18 2q20 2 49 12q0 -25 8.5 -30t8.5 -13q0 -4 -4 -12l14 -12v-56l2 -2 q-4 0 -18.5 4t-22.5 4q-6 -2 -2 -6l14 -41h-41q-18 12 -20 15l-8 6q-2 4 -7.5 7t-19.5 13l-14 -12q14 -6 19 -9t3 -7.5t-5 -12.5t-3 -26q-25 0 -40 -6.5t-27.5 -14.5t-28 -14t-39.5 -6q0 12 -14 12t-31 -6t-25 -6q0 10 -14 13t-33 9q0 -4 -1 -10t-1 -10q27 -139 27 -250 q0 -70 -8.5 -133.5t-22.5 -126.5q-31 10 -46 30.5t-36 51.5q0 -10 -8 -19q-2 -2 -3 -4t-3 -4q-10 0 -28.5 -7t-39.5 -7q-10 -10 -18 -20.5t-8 -20.5h-41q0 10 -7.5 28.5t-7.5 40.5l82 164l-14 13q-16 -45 -32.5 -72t-51.5 -27q-4 0 -25 4q-8 43 -14 89.5t-6 93.5q0 39 6 75 q4 49 10 66.5t15 17.5q10 0 16 -11t10 -11q2 0 2 6q0 8 -2 26.5t-10 57.5l-6 -4q0 4 2 6q-8 0 -16.5 1t-16.5 1q-82 0 -162 -21.5t-164 -21.5v135q6 8 7 25q0 10 -2.5 22.5t-2.5 24.5q0 25 13 37h18q16 0 31.5 -2t32.5 -11q23 23 64.5 30t94.5 7q33 0 66 -1t68 -3 q-6 98 -13.5 190.5t-7.5 190.5q35 10 79 21.5t79 21.5zM477 354q0 -20 -7 -38.5t-7 -28.5q-10 0 -20.5 -7.5t-20.5 -7.5v56h-27q0 -41 3 -76t24 -76q29 59 49.5 101t30.5 83q-5 -6 -25 -6zM451 397v-26l26 26h-26z" />
<glyph unicode="," horiz-adv-x="387" d="M213 178q-16 -10 -22.5 -18t-24.5 -8l-10 -54h-13v-12h13q16 18 25 29.5t15.5 20.5t9.5 18.5t7 23.5zM272 299v-27q10 10 11 13q0 4 -3.5 6t-7.5 8zM285 326q8 -10 13 -13.5t9 -4.5t9.5 -2t13.5 -7q0 -20 -5.5 -37.5t-5.5 -28.5q8 -23 10.5 -42t2.5 -41v-33 q2 -25 5 -55.5t3 -65.5q0 -20 -2 -42t-8 -44q-4 -12 -4 -19q0 -8 1 -17t1 -19q0 -18 -4.5 -37t-16.5 -29q0 -16 -17.5 -27.5t-43 -21.5t-54 -23.5t-49.5 -33.5l-22 -15q-12 23 -11 20t-4 -12q-8 -14 -32 -20l22 53q2 0 2 2q0 4 -3 10.5t-3 10.5t4 4l13 82h12l10 12l12 -12 q10 0 11.5 1t1.5 11h22q-10 10 -11 13t-1 14h-10q8 10 15 26.5t7 26.5q0 23 5 56.5t10 64.5h-37q-10 -10 -12.5 -18.5t-12.5 -8.5h-22q-10 10 -11.5 20.5t-1.5 20.5l3 6t1 6t-1 5t-1 4q0 6 11 20l12 39q-10 -10 -12.5 -17.5t-5.5 -12.5t-11 -7t-31 -2q0 27 -2 55.5t-2 55.5 v26.5t4 22.5q10 4 11 20q0 12 -5.5 25.5t-5.5 21.5h5q8 0 13 -12t9 -28.5t6 -33t2 -22.5v2q2 2 4 2t2 2q4 0 5.5 -4t5.5 -4t8 4q0 8 1 15.5t1 11.5q0 20 -4 25t-10.5 6.5t-10.5 4.5t-4 21q0 16 2 23q25 0 59.5 -2t69.5 -2h32t28 4z" />
<glyph unicode="-" horiz-adv-x="722" d="M637 748q6 0 59 -37q0 -29 -14 -42.5t-27 -31.5h9q6 -18 7 -35.5t1 -38.5q6 -10 12 -13t12 -11v-25q-6 -8 -17 -12t-24 -15q-12 39 -18 43l-8 -10q12 -29 12 -22q2 2 2 -33q-18 -6 -29.5 -10t-21.5 -7.5t-24.5 -5.5t-35.5 -2q-4 10 -16 11q-10 0 -23.5 -5.5t-15.5 -5.5 q-12 16 -50 22.5t-77 6.5q-6 0 -32.5 -2t-41.5 -2q-10 8 -23 15t-30 7q-14 4 -6 4.5t6 0.5l-41 -11q-39 -10 -98 -16q-6 45 -12 84t-13 76q16 20 14.5 55t10.5 55q8 0 21.5 -6t29 -12t28.5 -12.5t23 -6.5q-16 20 -14 28.5t45 8.5q2 0 51 -6q51 -6 82 -6q-4 6 -2 8t14.5 3 t40 0t76.5 -3q47 -22 158 17zM156 569q12 -20 23 -25t18 -24h47v-12h16v12q-23 14 -36 22.5t-24.5 12.5t-20.5 7t-23 7zM397 563q18 -29 21.5 -34t3.5 -15h47q-12 10 -19.5 12t-19.5 13v12zM358 588v-25h23q0 8 -3.5 12.5t-19.5 12.5z" />
<glyph unicode="." horiz-adv-x="436" d="M309 344q18 -23 31 -25l14 -2q8 0 21 -6q-10 -14 -12.5 -34.5t-2.5 -34.5q4 -20 7.5 -42t3.5 -48q0 -29 -3 -61t-8 -71q-14 6 -28.5 7.5t-27.5 3.5t-24.5 7t-19.5 17v-18q-20 0 -29.5 -11.5t-29.5 -11.5q-4 -6 -15 -6q-4 0 -9 1t-9 1q-10 0 -12 -6h-25q-4 6 -15.5 9 t-22.5 5t-19 5.5t-8 9.5q23 31 38 42t15 13t-2 2q-4 0 -12.5 -1t-24.5 -1q-10 39 -12 86t-2 86q14 0 14 19q0 6 -1 9t-3 11q2 0 2 -1t2 -1q6 0 14 8q10 10 10 29v10q25 0 65 -4t77 -4q45 0 63 8zM166 309q-14 8 -23 8q-8 0 -10 -7l-4 -14t-4 -14.5t-10 -7.5l-15 -49h-14v-18 h14q20 25 31.5 39t18 24.5t9.5 18.5t7 20zM322 123q-18 -12 -24.5 -14.5t-23.5 -2.5v-51q8 14 10.5 23.5t12.5 9.5h12zM76 303q-4 2 -6 4l-4 4q8 0 10 -8z" />
<glyph unicode="/" horiz-adv-x="716" d="M664 1470q10 -18 19 -43.5t19 -46.5q-10 -29 -26.5 -58.5t-26.5 -57.5q6 -18 6 -43q0 -49 -20.5 -115t-47 -133.5t-53 -131t-38.5 -108.5q-10 -29 -20.5 -59.5t-18.5 -69.5q-29 -74 -54.5 -155.5t-54.5 -164.5t-62.5 -161t-78.5 -141q-29 10 -29 29.5t-10 47.5 q-8 0 -11 -7t-14 -17h-10q-10 0 -24.5 1t-30.5 11q-10 -20 -19.5 -30.5t-19.5 -20.5h-25q0 18 6.5 37.5t6.5 40.5q29 39 58.5 76.5t57.5 78.5v11q-25 -41 -51 -67t-57 -26q-4 0 -21 5q18 66 38 132t38 126q10 6 17.5 21t12.5 31.5t7 31t2 18.5q20 14 44 63.5t45.5 107.5 t39.5 112.5t29 78.5q10 23 25.5 43.5t25.5 49.5q49 129 85 245.5t85 245.5q39 0 77 6t79 6zM610 1380q-18 -10 -35.5 -11t-27.5 -1l-66 -143q41 29 65.5 64.5t63.5 64.5v26zM428 928q-18 -10 -36.5 -26.5t-41.5 -27.5l-24 -77h-13l-14 -39h14q29 43 45.5 67.5t26.5 41 t19.5 29t23.5 32.5zM326 694l-13 -26v-9q2 0 25 35h-12zM287 629q-29 -18 -35 -21.5t-16 -3.5l-39 -78q18 10 29.5 27.5t21.5 36.5l12 -12zM365 539q-10 -20 -13.5 -29.5t-13.5 -9.5q20 10 23.5 14.5t3.5 24.5zM274 487q-10 0 -18 -2t-8 -12q-10 -10 -20.5 -27.5 t-20.5 -35.5h-39q0 10 7 25.5t7 25.5h-14q-6 -31 -17.5 -57.5t-11.5 -55.5q0 -4 1 -12t3 -19q41 59 76 100t55 70z" />
<glyph unicode="0" horiz-adv-x="1046" d="M584 1454q29 -29 52 -36t44 -7h16q23 0 42.5 -11t35.5 -69l14 -14v41q51 -10 88 -54t48 -96q14 -4 24 -37.5t16.5 -86t9.5 -116t3 -126.5q0 -86 -4 -153.5t-8 -92.5q-4 -16 -6.5 -21.5t-5.5 -10.5t-6 -15t-9 -35q20 -10 32.5 -18.5t22.5 -8.5q0 -23 -9 -41t-19 -28 q0 -41 -22.5 -102.5t-55.5 -122t-71 -111.5t-68 -72q-16 0 -26.5 8.5t-21.5 8.5q-4 0 -8 -4q-6 -35 -11 -45.5t-15 -10.5q-4 0 -10.5 1t-16.5 1l-8 8l-33 33q-10 -41 -17.5 -54t-37.5 -13v26l-27 13q-20 -10 -23.5 -14.5t-3.5 -24.5h-28q-10 20 -13.5 23t-13.5 3 q-14 -14 -35 -14q-25 0 -48 16.5t-44.5 39t-38 45t-24.5 36.5q-25 10 -41.5 20.5t-27.5 24t-20.5 31.5t-19.5 47q-16 0 -21 13.5t-5 35.5q0 25 3 56.5t3 60.5q0 31 -6.5 56.5t-28.5 35.5q0 31 -3 47.5t-24 46.5q0 29 2 74t2 86v40t-4 32q10 0 13.5 7t13.5 7q10 86 12 119 t6 41l6 4q-8 0 -11 7t-13 7l14 162h12q14 27 22.5 50.5t17 46t17.5 46t25 47.5q20 8 45 19.5t50.5 23t52 18.5t51.5 7t47 -12l55 55q8 0 19 -10l20 -19q0 10 23 19.5t33 9.5zM557 1264q-10 -6 -17.5 -13.5t-14.5 -13.5t-18 -10t-32 -4v-15q-10 -10 -13 -12t-13 -2v-41h-15 q-10 -31 -13 -75t-13 -74h-15q0 -33 7.5 -81.5t7.5 -68.5q-10 -31 -14.5 -48.5t-14.5 -45.5q6 -18 8 -41t2 -45q0 -57 -9 -117.5t-13 -110.5q10 -16 15 -38.5t9 -45t7 -44t10 -35.5q18 -23 41 -41v-41q37 -14 77 -15q35 0 67 10.5t73 30.5q0 72 15 136.5t26 136.5v149 q-10 0 -12.5 2t-2.5 13q23 47 29 98t6 104t-3 104.5t-3 100.5h-14q-10 23 -12.5 63t-2.5 60h-26v-41h-15v-68h-41v56h-12q-8 4 -11 26.5t-3 36.5v19q-20 0 -23.5 15.5t-3.5 25.5zM815 473q-10 -31 -20.5 -52.5t-20.5 -43.5h-26q-10 -20 -13.5 -46t-13.5 -36l12 -12 q0 -10 7.5 -28.5t7.5 -39.5q8 14 11 22.5t3 24.5v33q20 37 31.5 61.5t17.5 42t9 30.5t9 30zM883 1194q-10 -10 -20.5 -26.5t-20.5 -26.5q-10 -18 -11.5 -48t-1.5 -59v-30q10 0 14.5 3t26.5 25q6 23 9.5 58.5t3.5 64.5v39zM270 1290q-20 -20 -35.5 -50t-25.5 -61.5 t-15.5 -63.5t-5.5 -56q23 31 45.5 83t22.5 93h14v55zM188 1044q-20 -51 -23 -93t-3 -83q14 6 20 50.5t6 80.5v45zM180 522q8 14 8 45l-4 -6q-20 -23 -27 -37t-22 -51q0 -14 12 -14v28h15q4 10 9 18.5t9 16.5zM367 1141q-8 0 -10.5 -3t-4.5 -3v6q-10 -31 -10 -47 q0 -18 10 -35v14q0 16 3.5 38t11.5 30zM297 555h14v68zM217 608q-10 -14 -17 -23.5t-12 -17.5q10 -10 13 -10q2 0 2 10zM449 1343q-23 -10 -26 -13t-3 -13q10 0 19.5 8t9.5 18zM774 541l-12 -15q2 0 6 -4l6 -4h2q2 0 12 23h-14z" />
<glyph unicode="1" horiz-adv-x="698" d="M299 1018q-29 0 -60.5 3t-63.5 6t-60.5 6t-46.5 3q-23 0 -27 -4q-6 0 -12 13.5t-12.5 33t-9.5 43t-3 43.5q0 25 5 41.5t18 16.5q10 0 33.5 -7.5t33.5 -7.5q20 6 47 12.5t55.5 17.5t55.5 30.5t47 50.5q0 70 41 162q31 0 46 -23.5t36 -44.5v14q20 10 39.5 11.5t42.5 1.5 q10 10 13 20t13 21h27q10 -10 14 -28.5t15 -39.5q-43 -82 -82 -164l12 -12q23 51 39 72.5t57 21.5q10 -61 18.5 -131t8.5 -141q-12 -6 -12 -27q0 -20 6 -41.5t6 -25.5q-18 -23 -24.5 -86.5t-6.5 -133.5q0 -51 2 -96t2 -67q-10 -20 -18 -42t-8 -53q-4 -25 -4 -50v-50 q0 -104 10 -204.5t20 -198.5q-51 -10 -94 -20.5t-84 -20.5q-10 14 -26.5 19t-34 6t-33.5 3t-27 13q0 14 6.5 37.5t14.5 49t14 49t6 40.5q-25 35 -33 99.5t-8 135.5q0 88 6.5 173t6.5 137q-10 31 -11.5 63.5t-1.5 73.5t-2 88t-12 88zM449 51q20 10 33.5 13.5t33.5 13.5v151 q-20 -41 -35.5 -80.5t-46.5 -70.5q10 -10 12.5 -13.5t2.5 -13.5zM463 965q10 10 18 13t8 13q10 10 13.5 27.5t13.5 28.5q10 10 20.5 11t20.5 1v-53h14q0 41 -3 79.5t-23 69.5q-23 -61 -47.5 -105t-34.5 -85zM475 514q23 20 29 38.5t26 29.5v82h15v28h-15q-16 -41 -24 -64.5 t-13.5 -41t-8.5 -32.5t-9 -40zM504 827q31 31 37 36t16 5v82q-10 -20 -13 -33.5t-14 -33.5h-14zM299 1208l-68 -12q20 -10 34 -14t34 -15v41zM258 1114q0 10 -8 13t-19 14l-41 -15v15h-14v-15q31 -6 43 -9t23 -3h16zM475 760h29v41q-10 0 -14.5 -5t-14.5 -36z" />
<glyph unicode="2" horiz-adv-x="1038" d="M846 -41l-94 27v-15q-10 -4 -22.5 -12t-24.5 -8q-18 0 -35 35q-10 0 -32 -4.5t-44.5 -9.5t-43 -9t-30.5 -4q-115 20 -212 29.5t-212 9.5l-12 192q0 4 23.5 48.5t51 94.5t51 94t23.5 48h15l121 164q2 -2 10 -2q20 0 43.5 15.5t50.5 35.5l59 45q37 23 56 29l-15 41 q10 10 20.5 13t20.5 13q10 31 20.5 54.5t20.5 54.5q0 41 -9 79t-9 75q0 18 4 37.5t14 39.5q-2 2 -4 2q-4 0 -8 -18t-8 -41q-2 -20 -4 -37.5t-2 4.5q0 18 1 39t11 39h-27q0 20 -7 47t-7 47h-27v29h-12v12q-29 10 -43 12.5t-22 2.5h-17q-10 -10 -14 -12.5t-14 -2.5 q-10 -10 -11.5 -20t-1.5 -21h-14q0 -10 -7 -13t-7 -13q-10 0 -13.5 2t-13.5 12v27h-27v14h-14q-10 -23 -12 -35t-2 -35h-13q0 -23 -8 -30q-4 -8 -6 -11q10 0 15.5 -5t25.5 -36h-14q-10 -25 -11.5 -42t-1.5 -33v-19l-122 -26l-109 -15v31q0 23 -12 35l-17 16q0 16 -1 35.5 t-1 42.5q0 47 7.5 87t35.5 40q23 41 56.5 67.5t95.5 26.5v-14h12q10 47 28.5 58.5t43.5 11.5t51.5 2t54.5 24q10 0 32 -8t22 -18q10 10 22 18t33 8l41 -41q18 8 43 8q47 0 104.5 -19.5t98.5 -29.5l30 -33q18 -16 26.5 -34.5t22.5 -55.5q10 16 17 19q6 0 13 -11.5t11 -60.5 h15v-149q-4 -8 -4 -21q0 -20 9 -42.5t9 -47.5q-31 -16 -38 -46t-8 -58.5t-6 -50t-30 -21.5q-18 -33 -34.5 -44t-45.5 -18l-43 -6q0 -4 -13 -19.5t-34.5 -39t-48.5 -52t-53 -59.5q-35 -35 -72 -73.5t-78 -83.5l-14 14q-12 -25 -29.5 -48.5t-33 -43t-25.5 -33.5t-10 -23 q0 -4 4 -4q10 0 12 2q10 -8 34.5 -10t59.5 -2q33 0 71 2t72.5 4t62.5 4t40 2q23 0 34 6.5t21 6.5t12.5 -1t2.5 -12h12v-28h14q0 16 14.5 23t30.5 7q37 0 37 -24v-6q10 -10 13.5 -20.5t13.5 -20.5h14v-12h12l15 -15q6 -23 6 -37q0 -18 -3 -34.5t-3 -36.5h-41q10 -10 18 -20.5 t8 -20.5q0 -2 -14 -6.5t-35 -8.5q-24 -6 -59 -12zM520 489q4 6 17.5 8.5t29 5.5t26.5 12t11 28v13t-4 15q0 20 20.5 47t20.5 48h-8q-4 0 -9.5 -2t-23.5 -11q-4 -10 -17.5 -33.5t-27.5 -49t-24.5 -48.5t-10.5 -33zM274 94q20 0 46 10.5t36 30.5q31 0 62 3t61 24q-10 6 -16 10 t-12 4v-14h-123v-12q-10 -10 -18.5 -15.5t-8.5 -25.5h-27v-15zM137 53q10 0 14.5 -7t14.5 -7q14 14 20.5 22.5t10.5 22.5l10 25q-14 -10 -23.5 -12.5t-23.5 -2.5h-23v-41zM752 1333v-26h12q10 -31 35.5 -54.5t46.5 -54.5q-4 25 -11.5 41t-19.5 30.5t-27.5 29t-35.5 34.5z M872 -2q41 23 48.5 27t7.5 14q-10 -10 -20.5 -11t-20.5 -1q-10 -10 -13 -21q-2 -4 -2 -8v0zM573 1374l27 -26q0 10 -3.5 13t-23.5 13zM834 109q8 0 12 6q2 2 4 3t4 3h-20v-12zM532 162l15 14q-23 -10 -35 -12q-2 -2 -4 -2h24zM219 150h14q-2 2 -4 3t-6 5l-2 2q-2 0 -2 -10z " />
<glyph unicode="3" horiz-adv-x="1034" d="M59 340q6 14 9.5 22.5t7.5 24.5l10 35l109 -14l122 -27v-82q10 0 12.5 -2t2.5 -12q-12 -31 -21 -37l-6 -6q-2 2 -2 -39h14q10 -20 12.5 -33.5t2.5 -34.5h26v15h15v40h39v-28h14q10 -10 12 -20.5t2 -20.5q20 0 23.5 -1t3.5 -11q16 6 22.5 9t26.5 3h33v14h26v27h15 q10 23 13 49.5t13 46.5h15q0 20 -7.5 47t-7.5 47q4 2 5.5 2t5.5 -12q2 -20 6 -27v21q0 18 2 22q4 29 11 57.5t11 59.5q-10 31 -20 54.5t-21 54.5q-10 10 -20 14t-21 14v41q-51 10 -79 11q-33 0 -70 -11h-41l-27 68l15 82q10 0 32.5 15.5t75.5 25.5q10 -10 13.5 -12.5 t13.5 -2.5q0 10 2 12.5t12 2.5q10 10 11.5 20t1.5 21h14l14 12h27v-27h14v-14h27q0 23 7 34t7 21h12v-14h15q10 25 10 27t-10 2q-8 0 -13 -11l-2 -2v37l-4 -4q-2 0 -9 10.5t-13 22.5h14q0 23 1 42t11 40q-20 51 -36.5 95t-16.5 95q-33 14 -61.5 21.5t-57.5 7.5 q-43 0 -86 -14v-27l-8 -8q-10 -6 -18 -6q-10 -31 -20.5 -52.5t-20.5 -44.5q0 -31 -14.5 -54t-14.5 -54h-82q0 4 -21.5 10t-45.5 10q-16 4 -33 5.5t-35 3.5q20 20 23.5 28t3.5 39q-20 10 -31.5 11t-22.5 1q4 6 6.5 19.5t5.5 29t6 29t9 19.5q0 25 20.5 54.5t51 56t66.5 48 t67 31.5q14 0 22.5 -3t16.5 -3t14 6q0 20 12.5 23.5t42.5 3.5v-12h27q10 20 17.5 23t37.5 3v-14l13 -12q23 10 26.5 14t14.5 26l28 -14q0 -10 3 -12t24 -2q8 8 31 8q27 0 54 -19.5t48 -41.5l31 -29q41 -10 64.5 -16.5t43.5 -36.5q20 0 24.5 -17.5t5.5 -41t7 -46t31 -33.5 q0 -20 -6 -36.5t-6 -30.5t12 -27q0 -20 -3 -40.5t-3 -41.5q0 -20 6 -41h-27q-6 -39 -10 -48t-8 -9q-6 6 -8 16l-17 -32q-10 -18 -23.5 -29.5t-41.5 -34.5q-10 -10 -28.5 -13t-41.5 -14q23 -20 34 -33.5t21 -33.5q51 -10 77 -19.5t46 -48.5q27 0 31 -22.5t5 -52t8 -59.5 t38 -44q-8 -23 -17.5 -43t-9.5 -37q0 -16 13 -28v-150h-27q-6 -47 -10 -60.5t-8 -13.5q-6 6 -8 19q-16 -25 -25.5 -39t-18.5 -27l-16 -24q-4 -6 -9 -14.5t-13 -18.5q-43 -8 -101.5 -28.5t-105.5 -20.5q-25 0 -39 8q-10 -10 -25.5 -19.5t-15.5 -19.5q-20 0 -32.5 8t-22.5 19 q0 -20 -21.5 -23.5t-32.5 -3.5q-31 25 -58.5 28t-51 4t-41 11t-27.5 51h-26v-14q-51 0 -88 27.5t-48 68.5q-31 0 -42 30t-11 71q0 29 4 55t8 49zM645 1128h12q10 10 20.5 28t20.5 28h27q10 10 14 20t15 21h-29v41q-10 -10 -11 -13.5t-1 -13.5v-14l-32.5 -32.5t-19 -22 t-9.5 -19t-7 -23.5zM754 80q20 20 35.5 34.5t25.5 29t15.5 32t5.5 41.5q-23 -31 -46.5 -54.5t-23.5 -53.5h-12v-29zM317 1225q6 0 9 2q12 2 18 12q0 10 7 28.5t7 39.5q-10 0 -15 -2t-26 -13q0 -14 -3 -24.5t-3 -20.5t6 -22zM791 879q20 18 30 59q-20 -20 -43.5 -42 t-23.5 -52q10 10 19.5 18.5t17.5 16.5zM795 1034q14 20 23 31.5t15.5 21t12.5 17.5t16 24h-14v-12h-12q-10 -10 -14.5 -27.5t-14.5 -27.5h-12v-27zM807 938q16 31 22.5 43t6.5 23v16q-23 -10 -26 -34.5t-3 -47.5zM698 1020l15 41h-15v-41zM262 1075l29 -14v26 q-10 0 -14.5 -1t-14.5 -11zM575 39q23 10 26 14t3 15zM821 952q10 0 12.5 2t2.5 13q-10 0 -13 -9q-2 -4 -2 -6v0zM739 829l15 15h-15v-15zM645 244l-2 4z" />
<glyph unicode="4" horiz-adv-x="1073" d="M786 1487v-12h27v-29q0 -10 15.5 -21.5t25.5 -31.5q-10 -31 -12 -54.5t-2 -54.5q16 -35 22 -88t6 -115q0 -45 -2 -92t-5 -91t-5 -82t-2 -64q0 -31 6 -63t6 -73v-81q41 0 82 -8.5t82 -18.5q0 -20 3 -29.5t3 -19.5q0 -8 -6 -21l-18 -6q-8 -4 -9.5 -5t-3.5 -1h5v-55 q10 -10 13 -18.5t13 -8.5v-29q-10 0 -20.5 -6t-20.5 -6q-31 20 -52.5 33.5t-41.5 34.5l-14 -15q14 -12 14 -13t-6 -1t-15.5 -5t-15.5 -28q-2 0 -2 -2q0 -6 9 -18.5t9 -20.5q0 -6 -8 -6q0 -72 -8 -139.5t-18 -120.5q-31 0 -44.5 19.5t-23.5 50.5q0 -10 -7 -14.5t-7 -14.5h-68 q0 -10 -7 -26.5t-7 -26.5h-27q0 20 -7 39.5t-7 42.5q10 33 28.5 70.5t41.5 78.5l-15 15q-10 -20 -16 -38t-14.5 -31t-19.5 -20.5t-32 -7.5q-10 41 -12 75t-2 75h-109q-10 10 -21 13t-32 13q-72 0 -150.5 -6t-150.5 -6l-12 12q-16 -10 -23 -10q-8 0 -18 10v15h-15l15 14 q-14 0 -15 12v15q0 10 -8 15t-18 26q-16 -4 -14 -4q-10 0 -11 10q0 10 7.5 25.5t19.5 29.5t25.5 24.5t25.5 10.5q0 10 7 13t7 14h-26v12q-14 0 -15 14l68 68q10 27 32.5 64.5t46 77.5t41 75t17.5 55q41 57 75 128t67.5 146.5t67.5 149.5t75 135q10 0 20.5 8.5t20.5 18.5 l164 -12q2 2 4 3t4 3q4 0 12 4zM608 535q4 18 7 50.5t4.5 71.5t2.5 79t1 71v67q10 20 13 41t13 41v150q-20 -41 -33.5 -83t-33.5 -93q-6 -16 -23.5 -44t-38 -58.5t-38 -59.5t-23.5 -43q14 -12 14 -25q0 -12 -10 -24t-23 -25l-22 -22h-15l-26 -94q51 0 105.5 -7.5t84.5 -7.5 q10 0 20.5 2.5t20.5 12.5zM582 1229h-15l-14 -27q-20 -10 -39.5 -22.5t-40.5 -32.5h-14l-82 -150h-15v-26q41 31 72 76t51 86q31 0 59 32.5t38 63.5zM705 629q-23 -20 -27 -23.5t-14 -3.5l-15 -67h15q0 10 6 21t6 32l14 -13zM731 930q-10 -10 -20.5 -27.5t-20.5 -28.5v-69 q2 8 4 14t4 10q16 35 20.5 52.5t12.5 48.5zM485 356h41l15 -12l12 -14v14q-25 14 -39 23.5t-24.5 14.5t-19.5 8t-24 5q21 -19 39 -39zM705 1229v-15q20 31 33.5 76t33.5 74q-20 -29 -38.5 -66.5t-28.5 -68.5zM649 371v-27l15 -14l12 14h-12v12zM717 698h-12v-28q6 -8 10 -8 q2 0 2 4.5v31.5zM635 1325v25q-4 -8 -8 -13q-10 -4 -19 -12h27zM664 766h12q2 8 4 14t4 13h-8zM553 1311l-27 -27q27 0 27 27zM309 874l27 15v18q-11 -17 -27 -33zM242 371v14l-15 -14h15zM227 397v-12l15 12h-15z" />
<glyph unicode="5" horiz-adv-x="1034" d="M49 301q0 16 21.5 31.5t21.5 32.5q0 6 -8 16q0 23 37 22q23 0 50.5 -5t49.5 -5q27 0 27 15h96q8 -18 11 -49t3 -54q10 -29 19.5 -54.5t19.5 -47.5q10 -10 20.5 -13.5t20.5 -13.5l56 -26q14 -4 24 -4.5t21 -0.5q16 0 25 4.5t18.5 10.5t22.5 14t38 16q0 25 10.5 59t20.5 62 h-4q10 23 19 42.5t9 39.5t-7 29.5t-7 40.5h-14q23 35 29 62.5t6 54.5t-3.5 53t-3.5 61l-14 -28q-6 6 -8 6q-6 0 -8 -11.5t-6 -11.5l-5 4l-14 68v-14h-27v-27h-26q0 10 -8 12q-2 2 -7 2h-14q0 10 -1 20.5t-11 20.5t-14.5 20.5t-14.5 20.5q-10 -6 -16 -11t-14.5 -9t-19.5 -6 t-32 -2v-27h-12v-27h-29q0 -23 -6 -42t-6 -40h-29l4 -12l-84 25l-40 -13q-31 0 -58.5 -7t-79.5 -7q10 31 12.5 58.5t2.5 37.5q-12 12 -18.5 31.5t-6.5 38.5q0 29 10 39l15 26v15l53 67l-27 41q10 10 12.5 20.5t2.5 20.5l-29 82q2 14 2 24.5v20.5q0 31 -6 39t-15 8h-14 q-2 0 -2 2q0 6 8 29q2 -2 4 -2q6 0 13.5 9t15.5 20.5t16.5 23t18.5 17.5q-18 0 -23.5 28.5t-5.5 61.5q0 25 1 44t1 30q6 4 26.5 5t47.5 1t54.5 1t49.5 5q23 4 38.5 7t29.5 6t29.5 5t36.5 2q20 0 45.5 -1t64.5 -5q0 -8 41 -8q35 0 91.5 4t109.5 4q47 0 82 -5t45 -21 q12 0 12 -5q0 -4 -8 -13t-19.5 -22.5t-19.5 -30t-8 -34.5q0 -25 14 -45q10 0 12 -22.5t2 -32.5h15q-10 -10 -21 -11q-8 0 -8 11q-10 0 -22.5 5t-16.5 7q0 -2 1 -3t1 -3q0 -10 -13 -23.5t-24 -13.5q-2 0 -6 4h-110l-68 -14l-27 41l27 -15q10 10 13 14.5t14 14.5q0 10 -1 11 t-5 1h-7h-14v37q-4 -8 -17.5 -10t-23.5 -12v-27q-8 8 -18 8q-16 0 -35 -13t-41 -24q-37 -4 -47 -5t-16.5 -1t-19.5 -1t-54 -5q-6 -27 -13.5 -70t-13.5 -91t-10 -96t-4 -85q20 0 40.5 20.5t41.5 20.5q10 0 27.5 15.5t27.5 25.5q8 0 10 3t6 3t11 -6q0 10 22.5 19.5t32.5 9.5 q35 -27 63.5 -30t51 -4t41 -11.5t34.5 -51.5h13v27q61 0 95 -25.5t54 -56.5q20 -2 34.5 -32.5t23 -74.5t11.5 -93.5t3 -88.5v-39t-2 -24q-6 -16 -13.5 -24.5t-13.5 -17.5t-10 -21.5t-4 -32.5q20 0 31.5 -7.5t21.5 -7.5q0 -8 -4 -15t-6 -15h2l-4 -3v-8h-8q-6 -6 -7 -12 q0 -31 -20.5 -72t-52 -81t-70.5 -72.5t-74 -46.5q-8 0 -15 3t-17 3t-23 -6q0 -31 -7 -36t-48 -5v12q-10 0 -18.5 2t-8.5 12q-10 -31 -23.5 -37t-43.5 -16v27l-15 12q-20 -10 -25.5 -14t-15.5 -25h-26l-27 27q-20 -16 -47 -17q-23 0 -44.5 10.5t-41 25.5t-34.5 32.5t-23 30.5 q-27 4 -43.5 10t-28.5 15t-20.5 22.5t-18.5 34.5q-18 0 -23.5 11t-5.5 27q0 10 1 23.5t1 28.5q0 16 -4 32.5t-16 26.5zM356 1415h-26q-4 -4 -18.5 -15t-30 -25.5t-27.5 -28t-12 -19.5t6 -6q12 16 43 23.5t39 15.5l41 29q0 10 -2.5 13t-12.5 13zM821 340l-16 10 q0 -10 -8.5 -23.5t-8.5 -23.5h-12l-24 -33q0 -10 -8.5 -11t-18.5 -1q0 -10 -2 -20.5t-12 -20.5h14q10 -10 12 -20.5t2 -20.5q8 8 10.5 12.5t2.5 20.5v22q27 35 40 49.5t17 30.5h-2q0 10 7 14.5t7 14.5zM848 803q-10 -10 -20.5 -12.5t-20.5 -2.5q0 -31 -2 -52t-12 -42 q23 0 28.5 3t26.5 24v82zM739 1374l-18 -9t-11 -7t-10.5 -9.5l-15.5 -15.5q-6 -35 -6 -47q0 -10 2 -10q4 0 4 16l14 -12q10 20 20.5 41.5t20.5 52.5zM221 788q-16 -29 -21 -42t-5 -29v-23q20 10 23 42t3 52zM207 270l14 -12v12h27q0 8 1 15.5t5 15.5q0 10 2 19.5t4 19.5 q-8 -14 -15 -23.5t-14 -15.5q-10 -17 -24 -31zM248 967l28 12q12 0 13 14h14v27q-20 -20 -32.5 -31.5t-22.5 -21.5zM303 299v-41h14q0 10 -2 20.5t-12 20.5zM412 885q-8 -8 -11.5 -33t-3.5 -45v-10q2 10 3 18t3 16t3.5 17.5t3.5 17.5q2 9 2 19zM766 408h-14v-27q10 0 12 3.5 t2 23.5zM317 762q-10 -20 -10 -25q0 -6 10 -16v41zM276 352l13 29q-4 -8 -9.5 -15.5t-3.5 -13.5zM369 598q-6 -4 -6.5 -3l-2.5 5zM371 604v-6h-2z" />
<glyph unicode="6" horiz-adv-x="1060" d="M1012 340q0 -10 -9.5 -22.5t-19.5 -32.5q0 -25 -20.5 -66t-52 -82t-69.5 -75.5t-75 -49.5q-8 0 -14.5 3t-16.5 3t-24 -6q0 -31 -11.5 -30.5t-42.5 -10.5q0 10 -2 13.5t-12 13.5h-12q-10 -16 -16.5 -24.5t-13.5 -12.5t-16.5 -7t-23.5 -9v26l-12 15q-23 -10 -27 -15.5 t-14 -25.5h-29l-26 26q-14 -14 -41 -14q-33 0 -65 20.5t-54 42.5l-31 33q-51 10 -69.5 30.5t-38.5 51.5q-20 0 -25.5 12.5t-5.5 32.5q0 10 1 22.5t1 24.5q0 23 -7 43.5t-32 28.5q0 31 -3 45t-26 37v135h15v82q-6 10 -8.5 27.5t-4.5 36.5q-2 10 -2 22v23l15 28v13l14 108h27 q0 10 2 22.5t12 32.5h-70q6 61 13.5 102.5t14.5 70t14 52t14 48.5q10 0 24.5 12t29.5 29.5t29.5 33t24.5 21.5q-20 0 -38.5 -5t-30.5 -5q-14 0 -15 12q0 8 2 10q20 16 39 32.5t37 31.5q31 25 62.5 46t52.5 28q29 2 48 5t34.5 6t30 5t36.5 2q18 0 41 -1t55 -5q6 -10 33 -10 h60q33 0 64.5 -5.5t47.5 -25.5q51 0 80 -32t70 -103l14 -41q-31 -20 -43 -25.5t-12 -15.5h6q14 0 20 -2q10 -4 19.5 -15.5t9.5 -38.5l-82 29q0 -12 4 -31.5t8 -38.5h-190l-12 82l-15 15l-14 41l29 -27q8 18 11 19.5t15 21.5q-14 0 -14 12l-12 -12v41q-10 -10 -20.5 -14 t-20.5 -15v-12q-23 10 -65 25.5t-72 15.5q-35 -10 -55.5 -25.5t-34 -36t-26.5 -46t-34 -56.5v-313q10 4 22.5 17.5t23.5 27.5t20.5 25.5t15.5 11.5q20 10 38.5 20t29.5 21q8 0 10 3t6 3t10 -6q0 10 22.5 18t32.5 8q27 -18 48.5 -23t38.5 -5q10 0 19 1t17 1q20 0 36 -10.5 t32 -45.5h14v15q51 0 90 -20.5t60 -61.5q14 0 27.5 -34t23.5 -82t15 -100t5 -91q0 -14 -1 -25.5t-3 -21.5q-10 -20 -25.5 -38t-15.5 -59q20 0 33 -6t23 -6zM549 762q-10 0 -16.5 -4t-14.5 -9.5t-19.5 -9.5t-31.5 -4v-28h-29v-13h-12q0 -31 -8 -53.5t-19 -42.5h-14 q4 -10 8 -10l4 4l2 2v-10q0 -20 -7 -40t-7 -40q-12 -29 -12 -64t6 -71.5t6 -69.5q10 -31 20.5 -54.5t20.5 -54.5q10 -10 20.5 -14t20.5 -14l53 -12q43 -12 60 -13q12 0 19 3t16.5 8.5t21.5 12.5t35 15q0 59 20.5 105.5t32.5 99.5q0 20 -7 33.5t-7 34.5h-13q18 31 25.5 56 t7.5 50q0 29 -7 57.5t-13 67.5l-13 -27q0 6 -2 6t-6 -11t-6 -11v2l-12 82v-14h-29v-41h-41v28h-12q0 10 -7.5 20.5t-7.5 20.5q-10 0 -18 13q-2 2 -2 5t-6 9v0zM834 326h-13q-10 -20 -20 -39t-21 -29h-28q0 -10 -6.5 -20.5t-6.5 -20.5q0 -14 13 -14q0 -10 7 -20.5t7 -20.5 q10 10 12 17t2 38q20 25 30.5 38t15.5 24.5t6.5 21t1.5 25.5zM385 1401l-27 14q-6 -10 -19 -23.5t-28.5 -27.5t-27 -27.5t-11.5 -21.5q0 -4 4 -8q10 20 35 25t47 16l41 41zM874 788q-10 0 -20 -6t-20 -6q0 -23 -1.5 -42t-11.5 -40q18 0 25.5 1t27.5 12v81zM195 1034l-25 -10 q-12 -4 -20.5 -10t-22.5 -21q-6 -35 -6 -47q0 -16 4 -16v2q0 2 1 3t1 3h12q20 23 33 44t23 52zM207 422q-16 -27 -25.5 -41t-15.5 -26.5t-11 -24t-16 -31.5h15v12h12q10 23 19.5 41.5t9.5 28.5q10 0 11 1t1 11v29zM438 870q-14 -10 -20 -33.5t-6 -43.5v-17q6 -2 10 11.5 t8 31t5 25.5zM180 694q-10 -29 -12 -43t-2 -30v-23q16 10 16 43q0 14 -1 28.5t-1 24.5zM207 870l41 15v12h28v29q-23 -23 -41 -34.5t-28 -21.5zM317 434l-14 -53h14v53zM793 393l-13 -12v-14q10 0 11.5 1.5t1.5 24.5zM344 748q-10 -20 -10 -25q0 -6 10 -16v41zM180 504 q-10 0 -12 -2t-2 -13q8 0 12 7q0 2 1 3t1 5v0z" />
<glyph unicode="7" horiz-adv-x="993" d="M727 1167q-27 -8 -74 -8q-41 0 -78.5 4t-66.5 4q-20 0 -32.5 -7t-35.5 -7q-12 2 -25.5 2h-25.5q-45 0 -91 -4t-93 -4q-39 0 -76 6t-70 29q0 31 14.5 39t26.5 28q-14 0 -14 15v53q-10 10 -20.5 13t-20.5 13v29q10 10 20.5 13.5t20.5 13.5q31 -20 53.5 -39t42.5 -29h15 q-31 20 -45.5 36.5t-24.5 57.5q41 10 82 19.5t82 9.5q0 -18 16 -18q20 0 39 18q12 -20 54 -25.5t83 -5.5q29 0 50.5 1t29.5 1q20 -10 33.5 -13t34.5 -13q72 0 143.5 13t143.5 13v-26q4 -10 8 -22.5t8 -28.5l20 -70q8 -29 14.5 -49.5t6.5 -22.5v-2q-2 2 -2 4h-23.5t-29.5 -2 l-2 -39q2 -6 2 -22q0 -39 -26 -84t-61.5 -97.5t-72.5 -114t-60 -130.5q0 -31 -9 -61.5t-19 -61.5q-31 -78 -58.5 -144.5t-49 -137t-36 -150.5t-20.5 -182q-16 6 -39 7t-45.5 3t-40.5 8t-25 23q0 -4 -2 -9.5t-4 -9.5q-2 -2 -3 -4t-3 -4h-70q-10 -10 -20 -21.5t-20 -31.5 l-27 12q0 10 2 27.5t12 40.5q20 41 56 81.5t67 81.5l-14 15q-31 -51 -56.5 -74t-66.5 -23q20 72 35.5 143.5t46.5 143.5q10 0 15 13.5t9 30t7.5 31.5t9.5 21q16 18 46 82t59.5 137.5t54 139t30.5 90.5q10 10 26.5 32.5t35 49t35 49.5t26.5 33q0 2 12.5 12t27.5 21.5t22 16.5 zM500 446q-49 12 -60 13q-10 -20 -20 -39t-21 -29q-8 0 -13 -3t-9 -3t-4 6q0 10 2 20.5t12 20.5l-14 14q-20 -53 -30.5 -87.5t-10.5 -75.5q51 61 90 105t78 58zM881 1300q-8 39 -19 58h-67v-15q20 -20 40.5 -32.5t41.5 -34.5q0 4 2 6zM631 922q-20 -10 -33.5 -26.5 t-34.5 -27.5l-26 -82h-29v-26h14q45 61 62.5 84.5t29.5 44.5zM346 1305v12q-10 10 -20.5 13t-20.5 13q-2 2 -4 3.5t-4 5.5q-6 8 -6 20h41v12q-31 0 -52.5 -1t-43.5 -11q41 -23 64 -45t46 -22zM618 1305q-10 20 -25 26t-15 27h-56v14h-14v-14q27 -16 41 -25.5t24.5 -13.5 t19.5 -7t25 -7zM496 623q-31 -31 -39 -36t-29 -5l-29 -82q10 10 20.5 28.5t20.5 38.5h29zM428 1331q-10 20 -12 26.5t-2 26.5h-56q10 -10 20.5 -13t20.5 -13v-15zM537 678h-15l-14 -29q10 0 14.5 3t14.5 26zM469 1317v14h-14q0 -10 2 -12t12 -2zM862 1208q-37 0 -39 -8 l4 -26z" />
<glyph unicode="8" horiz-adv-x="1067" d="M459 -47q-31 29 -56.5 33t-48.5 4t-40 8t-31 49v-12h-15q-61 10 -95 31.5t-54 62.5q-29 8 -36 47t-7 80q0 23 1 42t1 36q16 20 21 32.5t5 30.5v33q-10 0 -26.5 6t-26.5 6q0 4 2 20.5t6 35t8.5 34t10.5 19.5q0 37 22.5 74t55 69.5t70.5 59t69 43.5h29l2 -2q-4 12 -4 10 q-2 4 -5.5 13t-7.5 20h-14v-15q-51 0 -82 19.5t-41 50.5q-29 4 -39 31.5t-10 58.5q0 51 8 74q10 20 12 28.5t2 38.5q-10 10 -20 13.5t-21 13.5q0 10 8.5 41t18.5 41q0 25 20.5 54.5t51 56t66.5 48t67 31.5q8 0 14 -3t12 -3q8 0 15 6q6 18 10 23.5t10 5.5t14.5 -1t20.5 -1 q0 -12 12 -12h15q8 20 20 24l35 17v-29l27 -12q20 10 23 14t3 27h29q10 -20 12 -24.5t10 -4.5h5q16 10 32 10q20 0 41 -10t39.5 -24.5t31.5 -30t19 -27.5q49 -8 68.5 -16.5t40.5 -36.5q25 0 30 -17.5t6 -41t8 -46t38 -32.5q-8 -14 -14.5 -33t-6.5 -35q0 -14 7 -27v-122h-15 q-4 -39 -9 -48.5t-9 -9.5q-6 2 -8 17q-25 -31 -34 -44.5t-26 -29.5l-22 -23q-20 -10 -40 -13t-42 -13q10 -10 20 -19.5t21 -19.5l28 -29q20 -10 36 -14t29 -9.5t23.5 -14.5t20.5 -29q25 0 29 -25t6 -55.5t9 -59t38 -39.5q0 -23 -6 -42t-6 -40q0 -10 2 -20t10 -21 q-10 -31 -12 -67.5t-2 -67.5l-15 -14q-4 -41 -10 -55.5t-10 -14.5l-4 4q-2 2 -2 11q-4 -12 -15 -13q-10 -16 -16 -27.5t-13.5 -22.5t-18.5 -21.5t-32 -24.5q-14 -4 -38.5 -12t-53 -17.5t-58.5 -16.5t-54 -7h-41l-41 -41h-15q-10 0 -20 7t-21 7q-10 0 -26.5 -7t-26.5 -7h-14z M485 117h97v26h14v15h12q10 31 18.5 52t8.5 42h29q-4 12 -4.5 25.5t-0.5 23.5q0 47 8.5 87t8.5 83q-10 33 -20.5 59.5t-20.5 49.5q-10 10 -19.5 18t-19.5 8l12 41q-31 10 -45 12.5t-37 2.5q-31 0 -61.5 -9.5t-61.5 -19.5q0 -61 -16 -121.5t-37 -122.5q0 -23 6 -44t6 -52h15 q-10 -31 -20.5 -36t-20.5 -5q10 -10 12 -21.5t2 -31.5h12q0 -10 7.5 -27.5t7.5 -28.5v15h14l12 26h56v-14h14q0 -10 6 -21.5t6 -31.5zM690 920q0 20 7.5 25t7.5 16q-10 0 -15.5 3t-25.5 23h12q0 23 7 42.5t7 39.5q-10 51 -25.5 95t-15.5 96q-37 14 -67.5 21t-61.5 7 q-45 0 -88 -14l12 -27q-10 0 -20 -7t-21 -7q-10 -20 -13 -47t-13 -49q0 -25 6 -55.5t6 -63.5q0 -31 -12 -57l4 -5q2 0 4 9q4 20 6 26v-30h12q10 -20 14.5 -39t14.5 -29h12v-29h15v-12h67l15 -14q10 10 13 12t13 2q0 10 2 20.5t13 20.5q14 0 14 12h27l12 -26h14v-15h15 q10 23 11 34t1 22h14zM690 1137h15q10 23 20 34t20 21q0 6 5 6q4 0 9 -3t13 -3q0 10 2 20.5t12 20.5h-14q0 10 -7 20.5t-7 20.5q-10 -10 -11.5 -13.5t-1.5 -13.5v-14q-16 -20 -24 -32.5t-13.5 -22t-8.5 -18.5t-9 -23zM350 1233q10 0 20.5 7t20.5 7v68q-10 0 -15 -2t-26 -13 v-67zM186 158h27q0 31 2 52t12 42q-10 0 -15 -1t-26 -11v-82zM772 838q41 31 61.5 49t20.5 59q-10 -20 -32.5 -39.5t-22.5 -42.5h-27v-26zM840 1042q14 20 23 31.5t15.5 21t12.5 17.5t16 25h-39q0 -20 -7 -33.5t-7 -34.5h-14v-27zM242 457q10 20 20 38.5t21 28.5h26 q0 10 7.5 27.5t7.5 28.5h-15v-15q-20 -25 -31.5 -39t-17.5 -24t-10 -20.5t-8 -24.5zM813 117q20 20 30.5 33.5t10.5 33.5q-10 -10 -20.5 -28.5t-20.5 -38.5zM745 1028l13 41h-27q0 -10 7 -20.5t7 -20.5zM854 961q10 31 12 41t2 40q-10 -20 -12 -45.5t-2 -35.5zM881 389 q10 10 13 21.5t13 31.5h-12q0 -10 -7 -21.5t-7 -31.5zM309 1083h15v13q-10 10 -13 10q-2 0 -2 -23zM705 905l10 27q0 4 -3 6t-7 8v-41zM651 303q-2 2 -2 25l2 -2q2 -8 2 -18.5t2 -20.5v-13zM397 1036q0 10 4 11q0 -2 2 -5q-4 -8 -6 -14t-4 -10q0 2 1 5t1 7zM868 240h11 q0 -4 -11 12v-12zM866 963q2 2 2 16q-2 -2 -2 -10q-2 -8 -6 -8q2 0 2 1t4 1v0zM393 1018q0 -12 -2 -17zM657 262l2 2zM391 991v10v-10z" />
<glyph unicode="9" horiz-adv-x="1069" d="M471 455q-31 25 -56.5 26.5t-48 2.5t-41 12.5t-32.5 52.5h-12v-27q-61 10 -95 31.5t-55 62.5q-20 0 -33.5 48.5t-21.5 110t-11.5 118.5t-3.5 78q10 23 27.5 37t28.5 45q-20 10 -33.5 13t-34.5 13q18 23 41 41q0 31 20.5 74t52.5 85t69.5 77t74.5 51q10 0 21.5 -7t33.5 -7 q0 31 11.5 36t42.5 5q0 -12 14 -13q6 0 8 -2l19 -12q10 31 17 38t38 17v-28l27 -13q10 10 13 14.5t13 26.5h29l12 -24t10 -4h5q14 14 41 14q23 0 46 -12.5t43.5 -28.5t36 -31.5l23.5 -23.5q51 -20 69.5 -34.5t39.5 -45.5q18 0 23 -12.5t5 -30.5q0 -12 -1 -26.5t-1 -28.5 q0 -25 7.5 -47.5t33.5 -32.5q0 -20 3 -33.5t26 -34.5q0 -29 -3 -51.5t-3 -44.5q0 -20 6 -41q-10 -10 -14.5 -11t-14.5 -1v-220l-14 -10v-112h-25q0 -10 -7 -19.5t-7 -19.5h41q-6 -61 -9 -100.5t-7.5 -66t-9.5 -47t-15 -46.5q-6 0 -19.5 -14.5t-30 -34t-32.5 -37t-27 -23.5 q23 0 40.5 2t29.5 2q25 0 25 -18q-4 -4 -29 -25.5t-57.5 -46.5t-65.5 -44.5t-53 -19.5q-29 -4 -47.5 -7t-34 -6t-29.5 -4t-35 -1h-40.5t-57.5 4q-6 8 -33.5 8t-60.5 2t-64.5 11.5t-46.5 33.5q-6 -2 -24 -2q-39 0 -64.5 31t-60.5 94q-2 6 -5 17.5t-3 21.5q0 14 8 15 q10 10 18 15t12 9q16 4 11 4q0 4 -7.5 5t-15.5 5.5t-15 11.5t-7 23q0 2 4 23l82 -41q-2 2 -2 4t-1 5t-1 7l-9 27q-6 14 -6 24v2q2 0 4 -2h191l14 -67v-14l14 -41l-28 14q0 -10 -8.5 -13t-18.5 -14q0 -14 14 -14h13v-41q10 10 20.5 13t20.5 14v28q20 -23 42.5 -39t53.5 -16 q35 6 55.5 10t35.5 13.5t30.5 26t42.5 46.5q10 59 18 130t8 143h-67q-10 -10 -25.5 -20.5t-15.5 -20.5q-23 0 -34 8t-21 18q0 -10 -24 -18t-44 -8zM512 645q10 4 16.5 9t13.5 9.5t18 6.5t34 2v26h27v15h14q0 31 8 52t19 42h14q0 10 -4 10q-2 0 -4 -2t-4 -2t-2 8q0 20 8 41 t18 41q-10 16 -14 33.5t-4 34.5q0 35 9 69.5t9 67.5q-10 31 -20.5 54.5t-20.5 54.5q-10 10 -20.5 13t-20.5 13v29q-41 8 -78 8q-35 0 -66.5 -8t-72.5 -29q0 -51 -15.5 -108.5t-25.5 -108.5q0 -20 2 -26.5t12 -28.5l13 -13q-23 -35 -32 -61.5t-9 -54.5q0 -23 4 -50.5 t10 -64.5l14 27v-4q2 0 6.5 10t6.5 10v-2l28 -70v15h13v26h41v-12h14q0 -10 6 -20.5t6 -20.5q10 -10 14.5 -20.5t14.5 -20.5zM662 4l26 -14q6 8 20.5 21.5t29 27.5t25.5 26.5t11 16.5t-4 4q0 -10 -30.5 -18.5t-51.5 -8.5l-41 -41q4 0 6 -2q9 -2 9 -12zM184 616 q10 10 20.5 14.5t20.5 14.5q0 20 2 40t13 42q-23 0 -29 -2t-27 -12v-97zM225 1094h15q10 10 20 28.5t21 38.5h26q10 10 13.5 20.5t13.5 20.5h-12q-10 10 -12.5 20.5t-2.5 20.5q-10 -10 -12 -16t-2 -37q-20 -20 -31.5 -32.5t-17.5 -22t-9.5 -18.5t-9.5 -23zM852 985 q14 20 22.5 32.5t16.5 24t17.5 22.5t25.5 30l-14 14l-13 -14h-14q-10 -20 -13 -40t-14 -42h-14v-27zM866 373q20 10 26.5 14t27.5 27q4 16 6 26.5t4 16.5l-10 10q-20 -31 -32 -52.5t-22 -41.5zM852 535l-41 -13q0 -10 -7 -13t-7 -13h-13v-15q20 10 39 27t29 27zM879 713 q10 41 14 53t14 41q-23 -20 -25.5 -47t-2.5 -47zM621 535q6 6 9 19t6 28.5t5 29t6 19.5q-4 0 -9 -13.5t-9 -31t-5 -26.5zM266 1026h15l12 27q-10 0 -13.5 -3.5t-13.5 -23.5zM743 971l13 41h-13v-41zM715 657l10 27q0 4 -3 6t-7 8v-41zM879 889q4 4 7 8t5 6t2 10 q-2 -8 -8 -10q-6 -4 -6 -14zM702 727q0 -10 6.5 -14t6.5 -15q0 10 -1.5 14.5t-11.5 14.5z" />
<glyph unicode=":" horiz-adv-x="434" d="M309 344q18 -23 31 -25l14 -2q8 0 21 -6q-10 -14 -12.5 -34.5t-2.5 -34.5q4 -20 7.5 -42t3.5 -48q0 -29 -3 -61t-8 -71q-14 6 -28.5 7.5t-27.5 3.5t-24.5 7t-19.5 17v-18q-20 0 -29.5 -11.5t-29.5 -11.5q-4 -6 -15 -6q-4 0 -9 1t-9 1q-10 0 -12 -6h-25q-4 6 -15.5 9 t-22.5 5t-19 5.5t-8 9.5q23 31 38 42t15 13t-2 2q-4 0 -12.5 -1t-24.5 -1q-10 39 -12 86t-2 86q14 0 14 19q0 6 -1 9t-3 11q2 0 2 -1t2 -1q6 0 14 8q10 10 10 29v10q25 0 65 -4t77 -4q45 0 63 8zM133 741q-23 23 -33 23l-14 2q-4 2 -8 3t-10 5q10 14 12 34.5t2 35.5 q-6 18 -8 40.5t-2 49.5q0 29 2 59.5t8 71.5q14 -6 28.5 -7t27 -3t23.5 -7.5t21 -17.5v19h80q10 12 13.5 16t11.5 16h24q10 -12 11.5 -24.5t1.5 -26.5q-10 -6 -11 -8l4 -2q0 -2 1 -3t1 -3q0 -8 -8 -17l-12 -51q8 12 10 21.5t6 16.5t14.5 10t32.5 3q10 -39 12.5 -86t2.5 -86 q-16 0 -17 -20q0 -10 5.5 -20.5t11.5 -10.5q-4 -4 -8 -4q-8 0 -13.5 15.5t-8.5 37t-5 43t-4 35.5v12q-10 -14 -19.5 -27.5t-19.5 -23.5q0 -39 6 -48t13.5 -12t13.5 -12.5t6 -48.5q-25 0 -65 3.5t-76 3.5q-20 0 -36 -1.5t-28 -5.5zM166 309q-14 8 -23 8q-8 0 -10 -7l-4 -14 t-4 -14.5t-10 -7.5l-15 -49h-14v-18h14q20 25 31.5 39t18 24.5t9.5 18.5t7 20zM197 895q18 14 24 24.5t27 10.5l14 49h14v18h-14q-20 -25 -31.5 -39t-17.5 -24t-9 -18.5t-7 -20.5zM121 963q18 12 24.5 14t22.5 2v51q-8 -14 -10 -23.5t-13 -9.5h-12zM322 123 q-18 -12 -24.5 -14.5t-23.5 -2.5v-51q8 14 10.5 23.5t12.5 9.5h12zM76 303q-4 2 -6 4l-4 4q8 0 10 -8z" />
<glyph unicode=";" horiz-adv-x="403" d="M279 326q8 -10 13 -13.5t9 -4.5t9 -2t14 -7q0 -20 -5.5 -37.5t-5.5 -28.5q8 -23 10.5 -42t2.5 -41v-33q2 -25 5 -55.5t3 -65.5q0 -20 -2 -42t-8 -44q-4 -12 -5 -19q0 -8 1.5 -17t1.5 -19q0 -18 -4.5 -37t-16.5 -29q0 -16 -17.5 -27.5t-43 -21.5t-54 -23.5t-49.5 -33.5 l-22 -15q-12 23 -11.5 20t-3.5 -12q-8 -14 -32 -20l22 53q2 0 2 2q0 4 -3 10.5t-3 10.5t4 4l12 82h13l10 12l12 -12q10 0 11.5 1t1.5 11h22q-10 10 -11 13t-1 14h-10q8 10 15 26.5t7 26.5q0 23 5 56.5t9 64.5h-36q-10 -10 -12.5 -18.5t-12.5 -8.5h-23q-10 10 -11 20.5 t-1 20.5l3 6t1 6t-1 5t-1 4q0 6 10 20l13 39q-10 -10 -12.5 -17.5t-5.5 -12.5t-11 -7t-31 -2q0 27 -2 55.5t-2 55.5v26.5t4 22.5q10 4 11 20q0 12 -5.5 25.5t-5.5 21.5h4q16 0 20.5 -24.5t8.5 -46.5q2 -4 2 -23q2 2 4 2t2 2q4 0 5 -4t5 -4t9 4q0 8 1 15.5t1 11.5q0 20 -4 25 t-10.5 6.5t-10.5 4.5t-4 21q0 16 2 23q25 0 59.5 -2t69.5 -2h32t28 4zM119 741q-23 23 -33 23l-14 2q-4 2 -8.5 3t-10.5 5q10 14 12.5 34.5t2.5 35.5q-6 18 -8.5 40.5t-2.5 49.5q0 29 2 59.5t9 71.5q14 -6 28.5 -7t26.5 -3t23.5 -7.5t21.5 -17.5v19h80q10 12 13 16t11 16h25 q10 -12 11 -24.5t1 -26.5q-10 -6 -10 -8l4 -2q0 -2 1 -3t1 -3q0 -8 -8 -17l-12 -51q8 12 10 21.5t6 16.5t14.5 10t32.5 3q10 -39 12 -86t2 -86q-16 0 -16 -20q0 -10 5 -20.5t11 -10.5q-4 -4 -8 -4q-8 0 -13 15.5t-8 37t-5 43t-4 35.5v12q-10 -14 -19.5 -27.5t-19.5 -23.5 q0 -39 6 -48t13 -12t13.5 -12.5t6.5 -48.5q-25 0 -65 3.5t-77 3.5q-20 0 -35.5 -1.5t-27.5 -5.5zM182 895q18 14 24.5 24.5t26.5 10.5l15 49h14v18h-14q-20 -25 -31.5 -39t-17.5 -24t-9.5 -18.5t-7.5 -20.5zM207 178q-16 -10 -22.5 -18t-24.5 -8l-10 -54h-13v-12h13 q16 18 25 29.5t15.5 20.5t9.5 18.5t7 23.5zM106 963q18 12 24.5 14t23.5 2v51q-8 -14 -10.5 -23.5t-12.5 -9.5h-12zM266 299v-27q10 10 10 13q0 4 -3 6t-7 8z" />
<glyph unicode="&#x3c;" horiz-adv-x="1179" d="M12 672q16 16 25 22q2 33 0 66q63 25 104 42t65.5 29.5t35 18.5t10.5 10q29 12 48 26.5t40 26.5q27 12 79 31t99 39t96.5 44t61.5 44q2 0 17.5 2t31.5 7t31.5 12.5t19.5 17.5q59 23 76 25q10 2 31.5 6t54.5 14q2 -4 2 -20q2 -57 -82 -111h10q39 31 75 60.5t73 60.5 q18 0 36.5 5t34.5 7h7v-24q-8 -10 -17.5 -19.5t-29.5 -19.5q10 -16 12 -30.5t4 -25.5l2 -10q-12 -10 -18.5 -13t-6.5 -11q31 -8 49.5 -9.5t32.5 -27.5q-29 -23 -63.5 -43.5t-73.5 -38.5q-39 -16 -66.5 -28.5t-44.5 -18.5q-16 -6 -44.5 -15.5t-69.5 -23.5t-79 -27.5 t-73 -30.5q-39 -6 -69.5 -16t-40.5 -16q-20 -8 -46 -17.5t-57 -23.5l-14 -6q20 -8 45 -18.5t53 -20.5l43 -15q12 -4 30.5 -13t45.5 -22q53 -25 55 -22q2 2 54 -12q51 -14 75 -13q2 -2 14.5 -11t28 -17.5t31.5 -13.5t27 -1q55 -29 55 -32q2 -4 61 -37q-6 -14 -12 -17 q-10 -12 -15 -15t-8 -3h-5.5t-8.5 -6l6 -8q10 -4 16.5 -5.5t15.5 -1.5t22.5 -2t38.5 -4q14 -14 31.5 -23.5t31.5 -21.5l-16 -18l-17 -21q-10 -2 -28 -2q-12 2 -27.5 -4t8.5 -22l-20 -9q-33 10 -39 12.5t2 -16.5q0 -6 4 -13t8 -15.5t5 -18.5t-5 -22q-39 6 -61.5 9t-32.5 5 q-16 4 -96 37q-41 18 -66.5 30.5t-36.5 16.5q-10 6 -33.5 16.5t-62.5 26.5q-31 20 -60.5 34.5t-56.5 24.5q-23 12 -40 22.5t-37.5 21t-45 21.5t-59.5 23q-68 27 -68 25q2 -2 -7 6t-25 25q-10 10 -16.5 18t-10.5 17q-29 12 -61.5 21t-61.5 22q-2 6 -10 18l-4 4q0 8 -2 12 q-2 2 -2 4.5t-2 6.5q-4 12 -8.5 24.5t-8.5 22.5zM713 928q25 18 63.5 54t95.5 79q-10 2 -19 3t-17 1q-25 -4 -50.5 -14.5t-54.5 -16.5l2 -14h2q10 0 21.5 7t21.5 5h4l4 -39q-20 -10 -36.5 -19t-24.5 -22q-10 0 -12 -8t0 -16zM299 772q16 12 28.5 22.5t28 21.5t39 27.5 t64.5 43.5l2 14l-39 -12v-12l-76 -27q-8 -23 -23.5 -42.5t-23.5 -35.5zM459 530q20 -2 50 -8t79 -14l10 12l-37 15l-10 -9l-74 35q-20 -6 -17 -14t-11 -15h2h3zM571 913l50 27l-13 12q16 8 33.5 20.5t26.5 31.5l-76 -41q2 -10 -1.5 -15.5t-19.5 -34.5zM647 494l19 6 q10 -4 19 -6t20 -5q20 -4 -13 19l-28 10q-6 -8 -13.5 -10t-40.5 -10zM618 446l39 -6l-4 6l-28 11zM510 860q33 25 33 27l-8 -2l-27 -13zM600 375q8 -8 12 -11.5t6 -5.5q8 0 15 2l-2 2q-11 3 -31 13zM666 836l10 2q8 2 16 2l6 12l-4 -2q1 0 -28 -14zM444 530q23 -2 9 0h-9z M922 406q-12 8 -28.5 18t-27.5 20q-18 10 -48 10.5t-58 -1.5h-31q0 -10 3 -14.5t26 -26.5q25 -4 60.5 -6.5t64.5 -2.5z" />
<glyph unicode="=" horiz-adv-x="1206" d="M1151 930q-23 -23 -49.5 -42.5t-46.5 -39.5q-31 0 -54.5 6t-54.5 6q-41 -31 -50 -41t-26 -10q-8 0 -30.5 1t-59.5 3q-72 6 -118 6h30.5t-12.5 -2q-29 0 -74 -10q-14 2 -28.5 2h-28.5q-74 0 -154 -6q-39 -2 -57.5 -3t-15.5 -1q-66 0 -128.5 6t-117.5 29q0 20 4 32.5 t13 19.5t21.5 13t28.5 16q-10 0 -13 7.5t-13 7.5v82q-10 0 -27.5 6t-28.5 6v41q23 0 42.5 7t39.5 7q31 -20 70 -38.5t80 -28.5h14q-51 20 -73.5 38.5t-22.5 69.5q59 8 88 19q25 8 90 8q6 -16 39 -17q18 0 38.5 5.5t31.5 11.5q8 -8 33.5 -15.5t58.5 -11.5q16 -2 34.5 -3 t37.5 -3q20 -2 17 -2h-26q39 0 71 2t46 6q31 -10 52.5 -20t41.5 -21q119 27 246 27q10 -41 20.5 -88t20.5 -88zM483 971q-10 10 -11 13t-1 13q-23 10 -35 13.5t-35 13.5v29q10 0 20.5 1t20.5 11v14q-41 0 -72.5 -3t-62.5 -23q51 -23 98 -47.5t78 -34.5zM1042 956q0 10 -7 29 t-7 39h-149q41 -20 79.5 -35.5t69.5 -46.5zM551 1053q-23 20 -27 26t-14 27h-68q10 -10 26.5 -13t27.5 -14v-14zM575 1020h-40l40 -14v14zM727 653q270 20 301 0q10 0 102 -41q0 -31 -23.5 -46t-43.5 -36h14q10 -20 11.5 -39.5t1.5 -41.5q10 -10 20 -13.5t20 -13.5v-27 q-10 -10 -28.5 -14t-38.5 -14q-23 43 -62 49l-12 -13q12 -6 22.5 -9t16.5 -7l12 -6v-41q-61 -10 -130.5 -18.5t-141.5 -8.5q-6 12 -27 13q-20 0 -41.5 -6.5t-25.5 -6.5q-23 18 -55.5 24.5t-102.5 6.5q-51 0 -96 -2t-68 -2q-23 10 -6 20q14 8 -67 0q-41 -4 -85 -10t-94 -10 q-10 51 -20 94t-21 84q14 10 19.5 26.5t6.5 34t3 34t12 26.5q14 0 38 -6t48 -15q27 -8 30 -14t20 -6q35 25 48 33t42 8t63.5 -6t85.5 -6q35 10 64 10q16 2 19 2t-7 0q41 0 88 2t88 12zM674 489q10 -10 13 -18t13 -8q10 -10 27.5 -13.5t28.5 -13.5q10 -10 11 -20t1 -21h-53 v-14q41 0 80 3t69 24q-61 23 -105 47t-85 34zM285 477q20 -23 38.5 -29t28.5 -26h82v-14h29v14q-41 16 -64.5 24.5t-41 13.5t-32.5 8t-40 9zM774 582v-29h41q0 10 -5 14.5t-36 14.5z" />
<glyph unicode="&#x3e;" horiz-adv-x="1179" d="M1167 672q-4 -10 -8 -22.5t-8 -24.5q-2 -4 -2 -6.5t-2 -4.5q-2 -4 -2 -12l-4 -4q-8 -12 -11 -18q-29 -12 -61.5 -21.5t-60.5 -21.5q-4 -8 -10.5 -16.5t-16.5 -18.5q-35 -35 -35 -31q2 2 -67 -25q-68 -27 -103 -45t-78 -43q-27 -10 -56.5 -24.5t-59.5 -34.5 q-78 -31 -99 -43q-10 -4 -34.5 -16.5t-65.5 -30.5q-80 -35 -98 -37q-8 -2 -31 -5t-61 -9q-6 12 -5.5 22t5 18.5t8.5 15.5t4 13q8 18 2 16.5t-39 -12.5l-21 9q25 16 9.5 22t-27.5 4q-18 0 -29 2l-16 21l-16 18q14 12 31.5 21.5t31.5 23.5q25 2 38 4t22.5 2t15.5 1t16 6l6 8 q-6 6 -8 6h-5t-8 3t-15 15q-6 2 -13 17q59 35 60 37q2 2 15 10t42 22q10 -4 26.5 1t32 13.5t27.5 17.5t14 11q25 -2 76 13q51 14 53 12t54 22q27 12 46 21.5t31 13.5l43 15q29 10 53.5 20t45.5 19l-15 6q-31 14 -56.5 23t-45.5 18q-10 6 -41 16t-70 16q-35 16 -73.5 29.5 t-79.5 28.5q-41 14 -70 23t-45 16q-16 6 -44 18t-66 29q-80 39 -136 82q14 27 33 27.5t49 9.5q0 8 -6 11t-18 13l2 10q2 10 4 24.5t12 31.5q-20 10 -29.5 19t-17.5 20v24h6q16 -2 34.5 -7t37.5 -5q37 -31 72.5 -60.5t74.5 -60.5h11q-84 53 -82 111q0 16 2 20q33 -10 53 -14 t31 -6q18 -2 77 -25q4 -10 19.5 -17.5t32 -12.5t31 -7t18.5 -2q12 -20 61 -43.5t97 -44.5q47 -20 99 -38.5t79 -31.5q20 -12 39.5 -26.5t48.5 -26.5q0 -4 10 -10t34.5 -18.5t65.5 -30t105 -41.5q-2 -33 0 -66q6 -4 12 -10zM467 928q2 8 0 16t-12 8q-8 12 -24.5 21.5 t-37.5 19.5l4 39h4q10 2 21.5 -5t21.5 -7h2l3 14q-29 6 -54.5 16.5t-50.5 14.5q-8 0 -17.5 -1t-19.5 -3q57 -43 96 -79t64 -54zM881 772q-8 16 -23.5 35.5t-23.5 42.5l-76 27v12l-39 12l2 -14q39 -27 63.5 -43.5t40 -27.5t28 -21.5t28.5 -22.5zM721 530q2 0 4 1t4 1h2 q-14 6 -11 14.5t-18 14.5l-73 -35l-11 9l-36 -15l10 -12q49 8 79 14t50 8zM608 913q-16 29 -19 34t-1 16l-76 41q8 -18 25.5 -30.5t33.5 -21.5l-12 -12zM569 498q-33 8 -40 10t-13 10l-29 -10q-35 -23 -14 -19q10 2 20.5 4.5t20.5 6.5l18 -6zM555 457l-29 -11l-4 -6l39 6z M672 872l-27 13l-8 2q0 -2 33 -27zM580 375q-23 -10 -31 -13l-2 -2q6 -2 14 -2q2 2 6.5 5.5t12.5 11.5zM514 836l-29 14l-4 2l6 -12q8 0 17 -2zM735 530q-4 4 -8 0q-15 -2 8 0zM297 403q29 0 64.5 2.5t60.5 6.5q23 23 26 26.5t3 14.5h-31q-29 2 -58.5 2t-48.5 -11 q-10 -10 -26.5 -20t-28.5 -18z" />
<glyph unicode="?" horiz-adv-x="886" d="M606 639q-2 2 -4 2q-4 0 -9 -12.5t-11.5 -26.5t-11.5 -26.5t-11 -12.5q-4 0 -4 2l10 -73q-8 -8 -8 -23q0 -10 2 -24.5t2 -24.5q0 -23 -16 -27l-158 19l-113 -9q8 27 18.5 84.5t22 114.5t23.5 100t27 43q8 0 14 -12q2 -2 4 -2t8 12q10 18 21.5 45t19.5 27q0 10 2 12t12 2 q10 10 11.5 20.5t1.5 20.5h14l14 13q4 0 10.5 9t12.5 20.5t11 20.5t11 9l17 -45l-21 -41v-14h27q0 23 7 34t7 21h13v-14h14q10 25 10 26.5t-10 1.5q-8 0 -12 -10l-2 -2v37l-4 -4q-2 0 -9.5 10t-13.5 23h14q0 23 1 42t12 40q2 18 3 36.5t1 34.5q0 113 -51 135 q-37 14 -57.5 25.5t-47.5 11.5q-12 0 -25.5 -2t-31.5 -8l-49 -55l-9 -8q-10 -6 -18 -7q-6 -18 -6 -30t2 -23.5t2 -21.5q0 -12 -2 -17q0 -31 2 -51t2 -51l-152 -10q0 4 -17 9t-40 9q-14 2 -27.5 3t-29.5 3q4 14 4 24.5v20.5q0 16 -1 32.5t-1 39.5v16q4 6 6 20.5t4 31t5 31 t9 20.5q0 25 19.5 52.5t50.5 52t65.5 44t65.5 29.5q14 0 22.5 -3t16.5 -3t14 6q0 20 12.5 23t43.5 3v-12h26q37 4 47.5 7t11.5 6.5t0 6.5t15 7h63q0 -10 3.5 -12.5t23.5 -2.5q8 8 27 9q20 0 40.5 -12.5t39 -30t35 -34t26.5 -24.5q25 -25 45.5 -46t35.5 -45.5t27.5 -55.5 t20.5 -76q0 -20 -6 -36.5t-6 -31.5q0 -14 12 -26q0 -20 -3 -41t-3 -41t6 -41h-27q-6 -39 -10 -48t-8 -9q-6 6 -8 16q-10 -20 -16.5 -32.5t-14.5 -21.5t-19.5 -18.5t-31.5 -23.5l-2 -2q18 4 31.5 6t17.5 2h2l-4 -4q8 -8 8 -15q0 -10 -19.5 -19t-45.5 -44q-14 -16 -21.5 -21.5 t-11.5 -5.5q-2 0 -3 1t-3 1q-4 0 -7.5 -4t-13.5 -20zM514 287q10 -12 17.5 -17.5t14.5 -6.5l14 -2t20 -7q-10 -14 -12.5 -34.5t-2.5 -35.5q4 -20 7 -41.5t3 -48.5q0 -29 -3 -60.5t-7 -70.5q-14 6 -28.5 7t-27.5 3t-24.5 7.5t-19.5 17.5v-18q-20 0 -29.5 -11.5t-29.5 -11.5 q-4 -6 -15 -6q-4 0 -9 1t-9 1q-10 0 -13 -6h-24q-4 6 -15.5 9t-22.5 5t-19.5 5t-8.5 9q23 31 38.5 42.5t15.5 13.5t-2 2q-4 0 -12.5 -1t-24.5 -1q-10 39 -12.5 86t-2.5 86q8 0 9 6q0 4 -5.5 14t-5.5 21q0 8 2 10v6q0 10 6.5 12t13.5 2t13 1t6 8v4q25 0 65 -4t77 -4 q45 0 63 8zM152 1180h-13q-10 -10 -15 -27.5t-15 -28.5h-27q-10 -10 -14.5 -20t-14.5 -21h29v-41q8 8 10 12.5t2 14.5v14q31 31 39 44.5t12 27.5zM356 631q20 20 36 34.5t26 29t15 31.5t5 42q-23 -31 -46 -54.5t-23 -54.5h-13v-28zM371 252q-14 8 -23 8q-8 0 -10 -7 t-4 -14.5t-4 -14.5t-11 -7l-14 -49h-14v-18h14q20 25 31.5 39t17.5 24t9.5 18.5t7.5 20.5zM664 815q31 31 51 49.5t30 59.5q-10 -10 -22 -16.5t-23.5 -12.5t-19.5 -15.5t-8 -23.5l-8 -27v-14zM408 1309q-2 0 4 -3t14 -3t12 2q4 8 22.5 18t31.5 27q-8 6 -13.5 7l-27.5 5 q-12 -16 -25.5 -23t-17.5 -30zM113 1038q35 12 49 22.5t18 20t4 18.5t6 19q-31 -2 -48 -28.5t-29 -51.5zM805 1178l-10 30l-52 -41q0 -10 9.5 -13t9.5 -13zM315 1260l80 81l-14 17q-14 -16 -38 -43.5t-28 -54.5zM719 1020q14 20 23.5 31.5t15.5 20.5t12 17.5t16 24.5h-14 v-12h-12q-10 -10 -15.5 -12.5t-15.5 -12.5l-10 -30v-27zM526 66q-18 -12 -24 -14.5t-23 -2.5v-51q8 14 10.5 23.5t12.5 9.5h12zM745 938q10 0 12.5 2t2.5 12q-10 0 -12 -8l-3 -6v0z" />
<glyph unicode="@" horiz-adv-x="1619" d="M1059 1100q2 2 4 13t6 5l16 -14l2 4l142 -21l-6 -92l-2 -32l-7 -101l-8 -2v-16l6 -21l-4 -53q-4 -96 -20 -123q-4 -12 -8 -25.5t-9 -29.5l-30 16q2 -137 37 -137q51 0 106 49q-2 -2 14 0l5 27q10 14 18 29.5t16 31.5q10 23 23.5 62t34.5 98q-4 -8 -4 59q0 35 -3.5 69 t-7.5 69q-14 29 -31.5 56.5t-37.5 55.5l-2 23q-49 39 -90 71q-29 25 -134 68l-14 16q-109 14 -227 50l-33 -7q-82 -2 -158 -22q-31 -6 -96 -31q-66 -25 -92.5 -52.5t-34.5 -33.5q-16 -20 -31.5 -36.5t-25.5 -30.5q-6 -8 -19 -15q-4 -6 -8 -14q2 -10 -4 -25 q-14 -31 -37.5 -99.5t-23.5 -193.5l-9 -16q8 -37 13 -72q4 -31 11 -60.5t17 -57.5q35 -96 113 -205l25 -6q86 -80 180 -119q10 -4 18 -9t17 -14q6 -4 20 2q82 -25 174 -24q47 0 101 -6q47 8 91 18t85 27q18 6 34.5 13t32.5 15q10 4 18.5 10.5t18.5 10.5l33 -2l45 16l29 4 l51 6l16 7l12 -7l15 11l12 -13q-18 -51 -84 -110q-211 -193 -559 -193q-90 23 -168 45.5t-143 44.5q-270 94 -342 199q-70 96 -90 287q-2 -8 0 35l2 14l-13 4q-6 61 -6 131q0 125 33 230q10 20 20.5 38.5t20.5 34.5q0 31 14 43q23 55 51 92l19 25q18 25 49 51q6 4 12 10.5 t13 12.5q86 94 186 145q16 8 32.5 15.5t33.5 13.5q20 -20 23 -28.5t3 -39.5l55 27q10 0 20.5 -8.5t20.5 -18.5q10 10 20.5 12.5t20.5 2.5v-27l41 53q-41 16 -71.5 26.5t-61.5 10.5h-16q-29 0 -47 -8q131 47 268 47q96 0 182 -41l60 -12q119 -6 221 -82q18 -10 59 -45 q88 -47 148 -129q16 -31 22 -68l23 -14l2 -23q43 -96 43 -207q0 -178 -90 -323q-12 -20 -25.5 -39t-28.5 -35q-27 -33 -63 -53l-16 -29l-13 4q-133 -111 -278 -110q-123 0 -133 108q-35 -35 -68 -55q-8 -4 -16.5 -9t-16.5 -10q-74 -35 -149 -34q-135 0 -215 116 q-23 14 -39 43q-14 29 -24.5 57.5t-14.5 61.5q-4 23 6 45q-12 12 -4 15q-8 29 10 75q-14 -2 -10 21q16 66 55 121q12 39 25.5 72.5t28.5 66.5q20 27 42.5 47.5t45.5 36.5q27 20 51 31q82 43 182 43q23 0 43.5 -3.5t40.5 -7.5q106 -29 164 -127l4 23q-8 18 -8 31q0 2 1 3t1 3 v41zM838 963q-16 0 -25.5 -3.5t-24.5 -3.5q-18 0 -35.5 -1t-23.5 -1q-8 0 -35 -12q-16 -12 -23 -31.5t-22 -29.5l-14 2v-6q0 -10 1 -23.5t1 -26.5q0 -14 -2 -16q-12 -12 -17.5 -18.5t-21.5 -18.5q6 -12 6 -26q0 -29 -19.5 -61t-31.5 -54q20 -20 19 -45t10 -41q8 -8 19 -14.5 t22 -14.5l-5 -18q29 -12 47.5 -20.5t36 -14.5t38 -8t55.5 -2q2 18 19 32.5t38.5 28.5t42 27.5t29.5 27.5q4 16 8 37t8 33q-16 6 -16 7t2 5q27 16 39 38t17 45.5t7 48t8 49.5l-14 4q-8 8 -8 28q0 14 4 31l-23 -6l-12 -4l-14 2l-45 4l-13 2q-10 10 -10 27q0 14 2 16 q-18 2 -22 14zM1001 49q6 4 15.5 3t19.5 1q0 10 15 25l10 -15v43q-29 -10 -49.5 -17t-40.5 -21l-13.5 -13.5t-13.5 -17.5q20 -2 24.5 -5t18.5 -20zM1147 727q4 -25 -17 -41q-27 -2 -26 -20q0 -2 -4 -19q-6 0 -8 2l10 -18l12 -29q35 49 56.5 83t21.5 89v19 q-14 -8 -20.5 -11.5t-16.5 -3.5t-6 -10zM184 274q10 10 21.5 26.5t19.5 27.5h17q6 16 19 51t13 61q-2 4 -2 10.5t-2 12.5q-10 0 -12 -3t-2 -11l-14 -13q0 -12 -9.5 -13t-19.5 -1q-10 -41 -14.5 -75t-14.5 -73zM207 1034q14 10 29.5 31.5t26.5 47.5t18.5 51.5t7.5 45.5 q-10 -31 -21.5 -57.5t-34.5 -36.5q-10 -10 -11 -21.5t-1 -33.5h-26zM1114 696q12 18 13 32.5t14 33.5l-23 14q-12 -18 -16 -29.5t0 -41.5zM229 227q10 10 19.5 26.5t9.5 27.5h-29v-54zM416 717q12 6 25.5 20.5t25.5 22.5l-4 39q8 41 55 63q18 8 19 23q-12 2 -14.5 0 t-4.5 -11l-14 -10q-2 -12 -11.5 -11t-19.5 3q-20 -39 -29.5 -70.5t-27.5 -68.5z" />
<glyph unicode="A" horiz-adv-x="1169" d="M993 -55q-16 8 -37.5 13t-45 11t-44 13.5t-35.5 17.5q-6 16 -10 60t-4 90v108q-37 27 -55 68q-10 0 -20.5 7t-20.5 7q-14 -16 -31.5 -22.5t-38.5 -6.5q-29 0 -58.5 7.5t-47.5 7.5q-10 0 -27.5 -2t-28.5 -13q-31 10 -54 27.5t-54 28.5q-20 -113 -47 -219.5t-88 -188.5 q-12 2 -13 8q0 10 15.5 23.5t15.5 32.5q0 6 -6 16q0 -10 -1 -13t-11 -14h-96q-10 -20 -20.5 -31.5t-20.5 -21.5h-41v68q31 41 63.5 82t73.5 81l-15 13q-31 -51 -59.5 -72.5t-89.5 -21.5q0 61 10 128.5t31 129.5q10 8 16 26.5t6 38.5q0 27 -10 43q27 14 45.5 68.5t29.5 117 t16 119t5 76.5q20 23 34 44.5t34 51.5q31 123 69 259.5t68 258.5q10 2 18.5 2.5t16.5 0.5q23 0 43.5 -4.5t42.5 -4.5q18 0 43 6q10 -10 19.5 -21t19.5 -22l41 -38h41q10 10 12 21t2 32l41 -12q10 -10 20.5 -29t20.5 -39q-10 -31 -21.5 -71t-33.5 -81l14 -12q10 20 16.5 37.5 t16.5 30t27.5 19.5t48.5 7q31 -61 52.5 -136t43.5 -136q-10 0 -10 -14q0 -16 13 -45t24 -35q-14 -14 -15 -58q0 -35 8.5 -81t18.5 -90t22.5 -83t20.5 -57q-10 -20 -12 -41.5t-2 -52.5q10 -57 24.5 -107.5t30.5 -100.5t33.5 -102.5t33.5 -113.5q-25 -4 -40 -17.5t-27 -29 t-27.5 -28.5t-42.5 -19zM721 530v37q0 31 -2 59.5t-10 53.5l-41 123q-6 12 -22.5 65.5t-36 113.5t-39 107.5t-29.5 47.5t-11 -47q-10 -27 -24 -79.5t-26.5 -108.5t-21.5 -104t-9 -63q-10 -31 -11.5 -61.5t-1.5 -61.5q-10 -10 -12 -22t-2 -33q0 -6 8 -6q6 0 15.5 3t17.5 3 q8 -14 36.5 -20.5t57.5 -6.5h29l26 -26q31 0 60 8t49 18zM750 938q10 0 20 7t21 7q-6 12 -7 23q0 10 3.5 20.5t3.5 24.5h40q10 -10 13.5 -21.5t13.5 -31.5h14q-10 41 -24 79.5t-45 69.5q-10 -61 -26.5 -104t-26.5 -74zM463 1307v55h-41l-41 -152q31 23 46.5 50t35.5 47z M367 926q-20 -23 -32.5 -39.5t-35.5 -16.5l-27 -82q0 -10 -8 -11t-18 -1v-28h12q31 41 48.5 63.5t27.5 39.5t16.5 32.5t16.5 42.5zM217 381q-4 -2 -7 -4t-7 -4q-12 -6 -27 -6q10 20 12 32.5t2 22.5h-26q0 -29 -3 -51.5t-3 -46.5q0 -25 6 -52q20 29 31.5 57.5t21.5 51.5z M872 434q10 0 19.5 22.5t19.5 32.5l-12 95q-10 -20 -15 -47t-26 -48q0 -10 2 -32.5t12 -22.5zM831 203q10 23 20.5 39t20.5 16l-14 82q10 10 13 11t14 1l-13 29h-14q-16 -59 -21.5 -85t-5.5 -52v-41zM735 489q-20 -20 -30.5 -32.5t-10.5 -22.5q-2 -2 -2 -4q0 -6 11.5 -19.5 t23.5 -29.5q6 -6 12 -13.5t13 -15.5q0 4 -2 6q-15 49 -15 131zM258 625q-16 -16 -20.5 -26.5t-5.5 -18t-3 -12.5t-12 -11l-27 -68q20 10 33 28t23 28h12v80zM831 788q31 31 37 36t17 5l-13 82q-10 -10 -12 -28.5t-2 -38.5h-27v-56zM313 680l-26 14v-41q10 0 13 3.5t13 23.5z M817 735h27l-13 27q-10 0 -12 -3.5t-2 -23.5zM668 885v41q-10 -10 -11 -17q1 -8 11 -24z" />
<glyph unicode="B" horiz-adv-x="1093" d="M352 1393l13 12q10 0 20 -6t21 -6q10 31 17 36t38 5l14 -15q6 0 8 -2l19 -12q10 23 17 32t36 9l-12 -12l26 -15q20 10 23.5 13.5t3.5 13.5h29q10 -10 13 -11t13 -1q14 8 35 8q23 0 43.5 -11.5t37.5 -25.5t29.5 -29.5t18.5 -23.5q27 -6 43 -10.5t27.5 -9.5t23 -13 t29.5 -23q16 0 19.5 -11t3.5 -28v-18q0 -23 7 -45.5t38 -32.5q0 -18 -9.5 -37.5t-9.5 -40.5q0 -10 4 -18v-109q-10 0 -11 -2t-1 -12q-6 -31 -11 -41t-10 -10q-4 0 -8 10l-41 -41q-8 -8 -17 -16t-24 -23q-20 -10 -39.5 -14t-40.5 -14q20 -10 37 -26.5t17 -27.5q25 -10 44 -15 t32.5 -10t24.5 -14.5t22 -29.5q27 0 30.5 -22.5t4.5 -51.5t8.5 -58.5t38.5 -43.5q0 -18 -9.5 -43t-9.5 -48q0 -6 4 -18v-137l-12 -12q-6 -45 -11 -59.5t-10 -14.5q-6 0 -8 18q-25 -31 -34 -44t-29 -34l-31 -30q-18 -6 -42 -14.5t-50.5 -15.5t-55 -13t-53.5 -6q-31 0 -45 8 l-41 -41q-10 0 -27.5 8t-27.5 18q0 -20 -21.5 -23t-31.5 -3q-25 18 -46.5 23t-37.5 5q-10 0 -20.5 -1t-18.5 -1q-51 -10 -93 -20t-83 -21q-10 6 -19 7q-16 0 -36.5 -13.5t-38.5 -13.5q-10 0 -17 8q0 14 4 45t10.5 63.5t10.5 62.5t4 46q-25 33 -33 95.5t-8 134.5 q0 86 6 167.5t6 133.5q-10 23 -11 47t-1 49v27q0 86 -6 173t-6 179q0 74 8 144.5t30 129.5q31 0 46.5 -18.5t35.5 -48.5v26h82q10 10 13.5 27.5t13.5 28.5h27q10 -23 14 -42.5t14 -39.5zM406 315q-16 -23 -21.5 -34t-11.5 -11q-2 0 -8 6q0 -10 7 -22t7 -33h14 q0 -10 6.5 -27.5t6.5 -27.5h14v14h26v27h35l-2 -2l4 -4l4 -6h15q0 -10 2 -22.5t12 -33.5q10 0 13 -2t14 -12q14 8 22 11t27 3h33v27h12v14h29q0 31 8 52.5t18 43.5v95q2 10 14.5 34.5t12.5 69.5v19q-10 20 -20.5 48.5t-20.5 59.5q-27 0 -27 27v28q-27 4 -47 7.5t-39 3.5 q-20 0 -38.5 -3t-39.5 -8l-108 13v-82q-10 -20 -18.5 -40t-8.5 -40v-96h27q0 -31 7 -52.5t7 -44.5h13zM379 821q20 10 72.5 13.5t103.5 13.5l14 -14q10 10 13.5 12t13.5 2q0 10 7 20.5t7 20.5h15v12h41v-27h12v-14h14q10 10 12.5 27.5t2.5 27.5h12q0 12 6 19l8 8 q-10 0 -15 10.5t-26 30.5h15q8 18 10 32.5t2 31.5v18q-10 41 -25.5 89t-15.5 89q-39 12 -66.5 20.5t-56.5 8.5q-37 0 -80 -17v-26q-12 0 -20 -8q-2 -2 -4 -3t-5 -4q-20 -39 -40 -81v-68q-12 -6 -13 -27q0 -20 6.5 -44.5t6.5 -37.5q-10 -10 -18.5 -47t-8.5 -88zM324 684 l-13 14h-14q-16 -41 -25.5 -64.5t-14.5 -38.5t-7 -27.5t-6 -32.5q20 10 26 26.5t27 26.5v82h27v14zM719 1120h14q10 20 20.5 31.5t20.5 22.5q0 10 8.5 12t18.5 2q0 10 7 13t7 13h-14q0 10 -1 25.5t-12 15.5q-10 -10 -12 -14t-2 -27q-16 -20 -24.5 -31.5t-13.5 -20.5 t-8 -18.5t-9 -23.5zM868 1024q14 20 23.5 31.5t16.5 20.5t13.5 18.5t16.5 25.5l-14 13v-13h-27q0 -10 -7 -28.5t-7 -38.5h-15v-29zM393 1229h27q0 20 2 33.5t12 33.5h-41v-67zM270 834q31 20 37 25t17 15v62l-7 -21q-6 -16 -6 -26h-28zM877 168q25 31 32 68 q-10 -10 -21 -22.5t-24 -25.5q-18 -18 -22 -55q23 19 35 35zM862 883q20 18 21 59q-8 -18 -33 -43q-18 -16 -23 -45q10 8 18.5 15.5t16.5 13.5zM883 942q12 29 15 40t11 42q-20 -10 -23 -34.5t-3 -47.5zM270 1024h-14q0 -12 -6 -27q-6 -16 -6 -22q2 8 26 8v41zM774 1024 l14 41h-28q0 -10 7 -20.5t7 -20.5zM256 766h14v41q-10 0 -12 -5t-2 -36zM815 113q4 4 10 7t11 7l-21 12v-26zM162 915v41q-10 -10 -10 -16q0 -9 10 -25zM637 72q20 10 24.5 12t4.5 10v4q-10 -10 -14.5 -13t-14.5 -13zM338 1024h-14v-12h14v12zM733 901q10 25 10 27t-10 2 v-29zM801 834q4 4 8 7t10 7h-18v-14zM229 84l-14 14v-14h14z" />
<glyph unicode="C" horiz-adv-x="1067" d="M51 516h8l-8 68q6 61 9 96t3 57q0 23 -3 42.5t-9 49.5q10 10 13.5 12.5t13.5 2.5q10 -10 19 -28.5t9 -39.5h13q0 20 -3 47t-24 47q0 31 16.5 67t38.5 56q-8 8 -11 7t-3 4v-11h-55q10 51 27.5 95.5t27.5 95.5q8 16 14.5 29.5t14.5 27.5q10 23 22.5 46.5t16.5 33.5 q12 0 26 27l15 22l9 12t5 7q41 10 83 20t93 21q0 10 7 20t7 20q14 0 23.5 3.5t19.5 3.5q12 0 25 -7q0 27 19.5 36.5t48.5 9.5q37 0 77.5 -9.5t59.5 -9.5q51 -31 90 -56.5t67.5 -55t50 -67.5t38.5 -93q4 0 6 -2q6 -6 6 -13q0 -16 2 -43.5t2 -58.5q0 -41 -8 -75t-35 -34 q-14 0 -29 9l-14 -56q-20 4 -51 6.5t-60.5 7.5t-50 15t-20.5 33q0 20 20 47v14q0 27 -12 50.5t-30.5 42t-40 32.5t-40.5 25q-23 0 -41 -7.5t-28 -7.5q0 10 -3 12.5t-24 2.5l-37 -19q-14 -8 -57 -8q-10 -113 -28.5 -231.5t-41.5 -231.5q0 -61 3 -135t3 -156h-6q2 -20 5 -42.5 t10 -49.5q10 -27 10 -53q0 -35 -8.5 -67.5t-16.5 -55.5h15q0 20 8 25.5t18 15.5q0 20 7.5 33.5t7.5 34.5q20 0 20 7t20 7q10 -59 61.5 -88t104.5 -29q35 0 52 8q0 10 7 13.5t7 13.5q6 0 13 17.5t15.5 39t14.5 41t12 25.5l6 141l6 -2v51q31 10 62 18.5t61 8.5q2 -2 3 -4t3 -4 q8 -8 9 -19q29 0 57.5 -13t48.5 -30q4 2 15 2h2h12q0 -20 -6 -42.5t-6 -53.5q0 -61 -1 -102t-10.5 -77t-29 -73t-56.5 -88q-10 0 -13 -7t-13 -7l-15 14q-20 -10 -37.5 -28.5t-17.5 -38.5q-10 -10 -20.5 -12.5t-20.5 -2.5h-16q-23 0 -23 -12q-23 0 -42 -7t-40 -7v41 q-23 0 -35 -2t-34 -13v-12q-31 8 -41.5 12t-40.5 15v26h-13v-12h-55q-10 20 -14 23.5t-27 3.5v-27q-10 10 -20.5 18.5t-20.5 8.5v-15h-53v97h-14q0 -10 -7.5 -14.5t-7.5 -14.5q-41 0 -48 12t-19 43v-26l-41 12q-10 18 -11.5 32.5t-1.5 30.5v19q-10 10 -22 19t-33 9v80h-14z M610 1401q10 0 20.5 -8.5t20.5 -18.5q10 10 20.5 12.5t20.5 2.5v-27l41 53q-43 14 -74.5 25.5t-66.5 11.5q-14 0 -29.5 -2t-34.5 -8q20 -20 23.5 -28.5t3.5 -39.5zM201 217q10 10 20 27.5t21 27.5h14q6 16 18.5 51t12.5 64q0 4 -4 21q-10 0 -12.5 -2.5t-2.5 -12.5l-12 -12 q0 -10 -9 -12t-20 -2q-10 -41 -13 -75t-13 -75zM201 1034q14 10 29.5 31.5t26.5 47.5t18.5 51.5t7.5 45.5q-10 -31 -21.5 -57.5t-34.5 -36.5q-10 -10 -11 -21.5t-1 -33.5h-27zM854 162q23 0 35 7t35 7v27q-23 0 -35 -3t-35 -24v-14zM786 1157q0 31 7.5 45.5t7.5 36.5 q-10 -10 -20.5 -22.5t-20.5 -32.5v-15zM160 803q10 10 19 26.5t9 26.5h-28v-53zM106 653q-6 0 -8 -2q-6 -4 -6 -12q0 -10 2 -28.5t12 -39.5v82zM106 545h-14v-15h27q0 10 2 20.5t12 20.5h-27v-26zM160 326v14h28v12q-23 0 -26.5 -3t-14.5 -23h13zM582 1401v29h14v-29h-14z M174 776v12q-10 0 -18.5 -1t-8.5 -11h27zM379 961q4 8 6 10t3 4t3 4l-12 14v-32zM217 516h10l-12 14z" />
<glyph unicode="D" horiz-adv-x="1153" d="M516 1497l14 -41h56v14h30q18 0 26.5 -6t25.5 -22v-27h12v27l68 -12q10 -10 15 -12.5t25 -2.5v15q10 0 20.5 -7.5t20.5 -7.5v15h56l-27 -150h12q0 10 7.5 13t7.5 14q20 0 29.5 -3.5t14.5 -8.5t9 -12t14 -17v14l56 -14v-82q10 -10 26.5 -18.5t26.5 -8.5v-82h14l27 -272 q-4 -61 -6 -96t-2 -58t2 -42t6 -50q-10 -10 -13.5 -11t-13.5 -1q-8 8 -18 28q-8 14 -8 50q-2 -6 -9 -9q-2 -2 -6 -2q0 -23 3 -48t24 -48q-10 -31 -21.5 -61.5t-31.5 -61.5l14 15q6 4 13 9t14 5l-29 -29h41q0 -25 -2 -40t-4 -27.5t-4 -27.5t-2 -40q-6 0 -17.5 -19.5t-23 -44 t-19.5 -46t-8 -27.5q-10 0 -27.5 -30t-27.5 -52q-41 -10 -89.5 -19.5t-88.5 -19.5q-10 -10 -13.5 -20.5t-13.5 -20.5h-53q-4 -16 -33 -21.5t-74 -5.5q-39 0 -85 4.5t-93 9.5t-94 12t-86 13q-41 10 -70 12.5t-39 2.5q10 20 20.5 31.5t20.5 21.5q-10 10 -13 14t-13 15 q10 31 12 54t2 54q-29 33 -37 90.5t-8 124.5q0 86 8 174t8 142q-10 31 -13 61.5t-13 60.5q2 31 3 63t1 64q0 47 -1 97.5t-1 99.5q0 82 7 159t32 144q31 0 46 -18.5t35 -48.5v26h82q0 10 8.5 27.5t18.5 27.5h27q0 -23 7 -34t7 -21q10 0 12 10.5t2 30.5q20 0 31.5 7t22.5 7 q25 -10 24 -10q4 0 17 23q20 0 33.5 2t33.5 12zM408 272q0 -10 7 -14t7 -14l-14 -13q0 -10 -6.5 -20t-6.5 -21h13q10 0 33.5 2.5t49 6.5t48 8t32.5 10q0 -6 11.5 -7t23.5 -1h27q14 0 20 -6q29 20 49.5 44.5t59.5 24.5v136h14v26q0 61 8 92q4 27 9.5 57.5t9.5 69.5q6 49 6 86 q0 23 -2 48.5t-5 59.5t-6 79t-8 108q-12 14 -12 47q0 35 9.5 71t17.5 58h-15q0 -20 -8 -25t-18 -16q0 -10 -7 -28.5t-7 -38.5q-12 0 -15 -2l-6 -2h-4q-2 0 -14 4q-6 27 -24.5 54.5t-43.5 49t-54.5 34.5t-60.5 13q-18 0 -22 -2v-26q-16 0 -50 14t-51 14q-6 0 -8 -2 q0 -41 6.5 -95t6.5 -95q-16 -10 -17 -35q0 -20 6 -40.5t11 -33.5q-18 -18 -23.5 -81.5t-5.5 -133.5q0 -47 1 -89t1 -64q-4 -12 -4 -19q0 -18 5 -51t11 -66.5t11.5 -66.5t5.5 -51q0 -16 -2 -19v-39zM612 68l-55 -41q0 27 -27 26h-41q0 4 -2 6q-2 8 -12 9l-26 -56 q31 -12 59.5 -20t56.5 -8q37 0 74 16q-6 16 -9 23.5t-9 19.5zM952 1169q-10 -10 -20 -26.5t-21 -26.5h-12q-10 -16 -20.5 -54t-10.5 -67q0 -14 2 -16l29 29q10 10 13 11t14 1q10 41 13 74.5t13 74.5zM244 311q10 10 28.5 14.5t40.5 14.5v135q-20 -31 -36.5 -72t-45.5 -63 q0 -10 6.5 -14.5t6.5 -14.5zM231 967q8 8 19 10q2 2 8 2q10 23 13 35t14 35h41v-41h14q0 41 -3 74.5t-24 74.5q-23 -72 -47.5 -115.5t-34.5 -74.5zM244 530q23 10 29 26.5t26 27.5v82h14v28h-14q-16 -41 -24.5 -64.5t-13.5 -39t-8 -28t-9 -32.5zM981 393q-41 -23 -62.5 -71 t-33.5 -91q20 31 28.5 50.5t38.5 29.5q0 23 7.5 34t7.5 22q4 0 6 2q8 2 8 12v12zM272 829q31 20 37 25.5t17 15.5v68q-10 -10 -13.5 -26.5t-13.5 -26.5h-14zM993 584q-10 -10 -20 -21.5t-21 -32.5q10 0 20.5 2.5t20.5 12.5v39zM967 952h-15v-26l-12 12v-82q10 23 13.5 49.5 t13.5 46.5zM244 762h28v41q-10 0 -14 -5t-14 -36zM1049 817v27h12v12h-27q0 -10 -2 -19.5t-12 -19.5h29zM1049 817v-82q6 0 9 5t3 8q0 10 -1 28t-11 41zM1008 625h-27v-27q10 0 18.5 3.5t8.5 23.5zM1008 1061h-15v-12h-26v-15q20 0 25.5 3.5t15.5 23.5zM598 27v-15h-12v27z M152 932q0 -6 4 10z" />
<glyph unicode="E" horiz-adv-x="1011" d="M940 1442v-27h-14q-4 -8 -4 -20q0 -10 1 -20.5t3 -20.5l4 -35v-12q0 -10 -4 -15q-10 -4 -11 -24q0 -14 3.5 -32.5t3.5 -31.5q0 -20 -11 -20l-20 -4q-37 0 -37 39l4 20h-14v-14h-13v-15h-12q-23 0 -45 4.5t-39 24.5q0 -10 -7 -20.5t-7 -20.5q-10 0 -20.5 3t-20.5 24 q-20 0 -33.5 7t-34.5 7v-29h-41v15q-12 0 -18 6q-4 2 -5 4t-3 4v-41q-18 -6 -39 -6q-23 0 -46.5 5t-51.5 13q10 -41 12 -79.5t2 -69.5q-10 -4 -13 -15.5t-3 -27.5q0 -18 4 -36.5t12 -29.5q-10 -10 -18.5 -28.5t-8.5 -38.5h13q14 -10 42.5 -17.5t55.5 -7.5q29 0 39 10 q27 -8 76 -8t99 6t93 6q12 0 23.5 -1t21.5 -3q0 -12 6 -18l8 -8l-14 -191q-82 0 -149.5 -10t-149.5 -31q-12 0 -28.5 4.5t-34 9.5t-34 9t-26.5 4q0 -33 -14 -33q-6 0 -14.5 7.5t-12.5 11.5v-41l-20 -40t-21 -40q0 -104 13.5 -205.5t13.5 -218.5q6 27 7 53.5t6 48t16.5 35.5 t38.5 14q43 4 90 13.5t96 9.5q23 0 43 -2t43 -8q0 -10 2 -20.5t12 -20.5l96 55l68 -55h12q-10 -10 -13 -18.5t-13 -8.5q31 -10 39 -25.5t28 -15.5q0 -20 -3 -44.5t-3 -47.5q0 -25 6 -43q-10 0 -20 -2t-21 -12q-8 0 -10 3t-6 3t-10 -6q-35 12 -72 12q-47 0 -96 -9t-99 -9 q-33 0 -59 6q10 0 11 8t1 18q-12 0 -14 -2q-6 -2 -14 -4t-13 -6v-14h-41q-6 6 -10 18q-2 2 -2 8q-23 0 -42 -1t-40 -11q-10 -10 -22.5 -19.5t-32.5 -9.5q0 10 -1 14.5t-11 14.5q-31 -10 -61.5 -14t-61.5 -15l-29 29q0 -35 -43 -35q-18 0 -39 6q-2 0 -2 -1t-2 -1q-6 0 -6 13 q0 10 3 26.5t3 32.5q0 20 -8 27q-4 4 -4 8q0 14 10 41l8 33q0 4 1 7t1 5t-4 14q-10 0 -13 2t-13 12v13q8 -2 18 -10q18 -10 49 -31v14q-31 37 -41 106.5t-10 147.5t5 153.5t5 123.5q0 31 -1 61.5t-11 60.5q0 16 1 32t1 32q0 76 -5 155.5t-5 157.5q0 68 6 131.5t29 118.5 q20 0 31.5 -5t19.5 -13t14 -21.5t16 -27.5q0 10 7.5 13t7.5 13h82v27l12 14v14h14l27 27l82 -55q0 10 2 20.5t12 20.5q29 10 62 10q35 0 70.5 -9t70.5 -14q33 4 74 12.5t82 8.5q25 0 48 -5t42 -16q12 6 22 7q33 0 33 -35zM246 967q10 10 13 11t13 1q10 23 13.5 35t13.5 35 h41q-10 -16 -10 -23q0 -8 10 -18h14q0 41 -3 74.5t-23 74.5q-23 -72 -47.5 -115.5t-34.5 -74.5zM272 176q-10 -20 -21 -40.5t-34 -41.5l29 -14q10 0 26.5 7t26.5 7v82h-27zM721 748v14h-12q0 20 -9.5 25.5t-19.5 15.5v14h-80v12q-14 0 -14 -12q20 -23 41.5 -26t52.5 -3 q0 -20 15.5 -30t25.5 -10zM313 612l-26 13q-23 -31 -26 -47.5t-3 -47.5q10 10 22.5 26.5t32.5 27.5v28zM831 707v41q-23 0 -28.5 2t-26.5 12q0 -31 8.5 -39t18.5 -29q10 0 14 6.5t14 6.5zM313 885q10 0 19 -8q2 -2 4 -3.5t4 -3.5v68q-10 -10 -13.5 -21.5t-13.5 -31.5z M272 190h27v54q-10 -20 -13.5 -32t-13.5 -22zM803 1415q-10 10 -14.5 13.5t-26.5 13.5v-27h41zM477 1401v14q-10 10 -20 12q-8 2 -8 9q0 -14 2.5 -19.5t25.5 -15.5zM668 162q20 10 23 14t3 14l-8 -8q-10 -6 -18 -6v-14zM381 1401q0 10 -2 15t-12 26q0 -20 2 -25.5t12 -15.5z M776 162q10 10 13.5 14t13.5 14q-20 -10 -23.5 -14t-3.5 -14zM639 147q2 2 14 3v12q-12 0 -14 -8l-6 -13zM477 1389q10 0 12 -3l7 -6l-7 13q-2 8 -12 8v-12zM776 803q-2 2 -4 3t-6 5l-2 2q-2 0 -2 -10h14zM545 817h8q-4 2 -8 2t-6 2z" />
<glyph unicode="F" horiz-adv-x="976" d="M784 625l-67 28v-14q-6 -6 -14.5 -13.5t-16.5 -7.5q-14 0 -24 35q-20 0 -54.5 -14t-54.5 -14q-51 10 -87 19t-77 9q0 -47 3 -108.5t3 -124.5q0 -78 -9 -147.5t-38 -110.5q0 -20 7 -49t7 -60q-20 -20 -40.5 -41.5t-40.5 -52.5q-51 10 -93.5 20.5t-83.5 20.5 q0 98 8.5 192.5t8.5 192.5q0 27 -1 52.5t-3 51.5q0 31 -8.5 52.5t-18.5 42.5q0 16 1 51t1 78q0 35 -1 69.5t-4 65.5t-9 54.5t-15 35.5q4 12 9.5 32.5t5.5 39.5q0 12 -3 23t-12 16q0 51 6.5 101t6.5 101q0 8 6 13q2 2 8 2v41h14q0 16 -9 35.5t-9 33.5q0 8 4 13q10 4 10 24 q0 14 -3 31.5t-3 28.5q0 12 4 12q2 0 3 -1t3 -1q20 6 39 6q25 0 40.5 -12.5t15.5 -34.5l14 14q41 0 66.5 -2t56.5 -12q10 10 11 20.5t1 20.5q23 0 35 -8.5t35 -18.5q20 -10 38.5 -12t28.5 -2q2 2 3 4t4 4q2 4 4 9t2 11q10 0 20 -2t21 -12q10 -6 18 -8t12 -4q2 -2 11 -2v28 q25 6 51 7q47 0 94 -10.5t94 -10.5q45 0 74 14q10 -10 14 -10t15 10q10 -10 20 -12t21 -2v-135q-23 -10 -29 -20.5t-27 -20.5q2 -2 3 -4t3 -4q8 -8 9 -21h-15l-67 -53l-97 53q0 -10 -7 -20t-7 -21q-47 -12 -86 -12q-47 0 -92 9.5t-94 17.5q-23 0 -33 13t-16.5 33.5t-9.5 44 t-9 46.5q10 -53 13.5 -116.5t3.5 -129.5q0 -59 -1.5 -118.5t-1.5 -112.5q29 0 54.5 -3t50.5 -3q23 0 45 6q6 -6 22 -6q27 0 66 9t61 9q10 0 20.5 9t20.5 20v-29h15v-27h12q0 16 12.5 26.5t24.5 10.5q20 0 20 -22q0 -10 -2 -15q0 -10 8.5 -20t18.5 -21v-12h14v-14h15 q6 -23 6 -37q0 -18 -3 -34.5t-3 -37.5h-29q0 -10 7 -15t7 -26q0 -2 -10 -6t-25 -8q-12 -4 -47 -14zM240 952q-10 41 -36 85t-46 106q-20 -41 -23.5 -75t-3.5 -75h14q10 10 11 21q0 4 -11 35q10 0 25 -9q6 -2 14 -6q10 -10 14.5 -28.5t14.5 -38.5q6 0 8 -2zM254 68 q0 12 12 12q-31 31 -45 76t-37 75v-151q23 0 41.5 -6t28.5 -6zM225 516q-4 25 -7 40t-8 31.5t-14.5 40t-23.5 66.5h-14v-41h14v-82q20 -10 31.5 -27.5t21.5 -27.5zM389 762q10 0 25.5 10t15.5 31q20 0 46 3t36 23q0 10 -2 12.5t-12 2.5v-15h-80v-12l-29 -29v-26zM199 817 l-15 53h-12q-10 20 -13 34t-14 34v-82q20 -10 27 -14.5t27 -24.5zM172 1307l-27 -15q20 -10 31.5 -30.5t22.5 -51.5v15q-10 20 -13.5 41t-13.5 41zM225 748q-10 31 -13 35.5t-13 4.5l14 -40h12zM676 1292v-12q10 -10 20.5 -12t20.5 -2q-10 10 -15.5 13t-25.5 13zM811 666 q23 23 26 26.5t3 12.5q-2 -8 -11 -11h-18v-28zM322 1415l-41 -26q4 0 6 -3l4 -4t4 -6q0 8 8.5 18.5t18.5 20.5zM643 1309l10 -9q2 -4 4 -5t5 -3v15q-6 0 -9 2q2 0 -10 4q-2 0 -6 4zM784 1292l27 -26q0 10 -3.5 13t-23.5 13zM567 829v15q-8 -8 -20 -13l-4 -2h24zM784 782 q2 2 4.5 3t4.5 3h-9q0 -4 -2 -6q-4 -6 -8 -6q6 0 10 6z" />
<glyph unicode="G" horiz-adv-x="1091" d="M522 -82q-31 10 -67.5 20.5t-71.5 26t-63.5 37t-43.5 51.5q-18 6 -23 15.5t-5 23.5q0 10 1 20.5t1 22.5h-82q-10 61 -19.5 120.5t-9.5 111.5q-10 0 -13 7t-13 7v123h-41q0 25 8 54.5t8 57.5q0 16 -2 23q0 20 6 32.5t6 22.5q-10 0 -20 6.5t-21 6.5q0 51 -5 100t-5 96 t10.5 93t40.5 94q23 41 35 88t35 88l149 149q20 0 49 8.5t60 18.5q6 20 18.5 29.5t28.5 12.5t35.5 5t40.5 8q2 14 24 14q25 0 56 -12q16 -4 33.5 -11t35.5 -18l27 -14v-14q37 -10 74 -31.5t69.5 -51.5t59 -63.5t43.5 -70.5h14q10 -41 21.5 -82t31.5 -82h-12 q-10 -10 -12 -20.5t-2 -20.5q-72 0 -141.5 12t-131.5 43q6 20 6 45q0 29 -9 58.5t-23 60.5q-10 10 -14.5 11t-14.5 1q-31 10 -61.5 12.5t-61.5 2.5v-15q-51 0 -79.5 -18.5t-69.5 -48.5q-41 -82 -61.5 -165t-20.5 -175l41 -164q-10 -10 -18.5 -20.5t-8.5 -20.5v-217 q14 -8 20.5 -34t6.5 -56v-33q14 -10 23 -16.5t15.5 -12.5t13.5 -15t17 -24q20 -10 33.5 -20t34.5 -21q6 -29 25.5 -42t41.5 -13q51 0 82 41h15q10 10 13 20.5t13 20.5h15l53 135q10 41 12 90.5t2 102.5h-26l12 53q-35 -8 -71 -14t-72 -6q-31 0 -62 6q-6 31 -6 63q0 41 6 81 t14 75q82 -10 170.5 -25.5t169.5 -15.5q23 -20 51.5 -20.5t59.5 -20.5q-6 -29 -6 -57q0 -18 1 -37t3 -35l4 -66v-20v-21.5t-2 -21.5h12q-8 -41 -8 -105q0 -41 2 -83t2 -82q0 -51 -7 -99.5t-30 -93.5q-23 -8 -40 -17.5t-39 -9.5q-18 0 -44 13v108q-10 10 -20 12.5t-20 2.5v41 h-27v-15h-12q-43 -82 -82 -164q-53 -31 -96.5 -37t-94.5 -16zM352 1329q6 6 20.5 6t26.5 -2q2 12 9.5 20.5t15.5 14.5l16 -20l-2 65q-41 -14 -72.5 -24.5t-60.5 -28.5q-10 -10 -22.5 -20.5t-20.5 -26.5q27 -4 35 -9.5t27 -31.5zM184 217q10 10 20.5 27.5t20.5 27.5h15 q6 16 18 51t12 64q0 4 -4 21q-10 0 -12 -2.5t-2 -12.5l-12 -12q0 -10 -9.5 -12t-19.5 -2q-10 -41 -13.5 -75t-13.5 -75zM184 1034q14 10 29.5 31.5t27 47.5t18.5 51.5t7 45.5q-10 -31 -21.5 -57.5t-33.5 -36.5q-10 -10 -11 -21.5t-1 -33.5h-27zM770 1157q0 31 7 45.5t7 36.5 q-10 -10 -20 -22.5t-21 -32.5v-15zM143 803q10 10 19.5 26.5t9.5 26.5h-29v-53zM90 545h-14v-15h26q0 10 2 20.5t13 20.5h-27v-26z" />
<glyph unicode="H" horiz-adv-x="1093" d="M770 1497l14 -14q0 -10 7.5 -20.5t7.5 -20.5q6 -6 12 -6q20 0 47 20.5t47 20.5q10 0 17 -7q4 -23 32 -22q14 0 30.5 3t27.5 3q18 0 18 -12q0 -80 -14 -117q-16 -37 -41 -37q-2 0 -4 1t-4 1l6 -4q2 -2 2 -6q6 -10 10 -16.5t4 -12.5h15v-28q0 -49 -4.5 -87t-24.5 -75 q10 -20 20.5 -25.5t20.5 -15.5q0 -31 -8.5 -52.5t-18.5 -41.5q-10 -41 -12 -74t-2 -64q2 -2 4 -3t4 -3q8 -6 21 -6v-82h-15q-10 -23 -12 -41t-2 -28q10 10 20.5 12t20.5 2q2 -14 2 -26.5v-26.5q0 -86 -14.5 -180.5t-14.5 -186.5q0 -74 15 -125q-6 -6 -7 -14q0 -6 3.5 -12.5 t3.5 -14.5q-10 -20 -14.5 -33.5t-14.5 -33.5q-18 6 -39 6q-25 0 -49.5 -6t-46.5 -15q-6 20 -12.5 32.5t-11.5 24t-9 27t-8 39.5q-10 -10 -14.5 -20.5t-14.5 -20.5v15l-53 122q8 23 14 43.5t12 38.5q10 33 18.5 60.5t8.5 34.5q-10 0 -19.5 7t-19.5 7q-10 35 -14 66.5t-4 64.5 q0 35 2 69.5t2 71.5q-6 -6 -12.5 -12t-12.5 -6q-8 0 -16 18q-20 0 -61.5 -7t-61.5 -7q-51 10 -95 20.5t-96 20.5q0 -61 -7 -117.5t-7 -87.5q20 -12 21 -45q0 -18 -6.5 -39.5t-14.5 -38.5l29 -162q-6 0 -11.5 -31.5t-10.5 -70.5t-10 -70.5t-9 -31.5q-10 0 -21 16q-2 4 -4 11 t-4 16q-2 -6 -6 -23q-6 -12 -6 -35q-23 0 -39 -6t-33 -6q-10 0 -18 2t-19 10v15h-14v26q-14 0 -14 15v12q-10 10 -20.5 27.5t-20.5 27.5q-12 -4 -11 -4q-14 0 -20 17.5t-6 39.5q0 29 10 56.5t27 27.5v27h-27q-2 2 -4 3t-4 5q-6 6 -6 19l-13 14q10 20 13.5 39.5t13.5 42.5 q0 29 2 68.5t5 81.5l6 84t3 75v23.5t-2 21.5q0 14 1 28.5t1 31.5q0 113 -12 242.5t-12 252.5q0 37 2 72t6 68q14 23 23.5 34t17.5 19l231 -41q0 -125 -8 -231.5t-8 -217.5v-48t2 -48q41 0 77 -3t71 -3t71 6q12 -12 41 -12q27 0 56.5 6t52.5 6q0 8 6 12q2 2 8 2 q-6 63 -10 127t-4 125q0 59 5 116.5t21 109.5q-12 25 -12 43q0 25 12.5 41t26.5 24zM225 1143h-12v-27q-20 -10 -25.5 -23.5t-15.5 -43.5h-14v-193h-13v-10q0 -8 1 -14.5t12 -14.5q10 41 19 96.5t9 106.5q20 12 29.5 51t9.5 72zM266 1389q-10 0 -20 -2.5t-21 -12.5v-33 q0 -16 -3 -30.5t-9 -44.5q31 10 41 23.5t41 43.5q-10 10 -14.5 28t-14.5 28zM389 776q10 0 32.5 9.5t22.5 31.5q20 0 40 3t42 24l-14 12v-12h-82v-15q-10 -10 -18.5 -20t-8.5 -21h-14v-12zM799 1184q-6 -6 -9.5 -10.5t-5.5 -11.5t-5 -21.5t-9 -38.5l14 -12q0 20 7.5 41.5 t7.5 52.5zM322 135l-9 -8q-10 -6 -18 -6v-68zM799 463h-15q0 -10 -7 -22.5t-7 -32.5q10 10 14.5 21t14.5 34zM172 1251q-10 0 -12 -5t-2 -36q10 10 12 20.5t2 20.5zM213 203h-14v-33q0 6 6 12q8 9 8 21zM817 510q-4 -4 -9 -10t-9 -11h12q8 8 12 21q2 2 2 16q-2 -8 -8 -16z M156 748q0 -12 -11 -54l13 13v57zM799 285l-15 -15q-6 -6 -14 -26q10 10 14.5 15.5t14.5 25.5z" />
<glyph unicode="I" horiz-adv-x="454" d="M266 1470q23 -23 42.5 -49t39.5 -47q0 -31 -6 -54.5t-6 -53.5q31 -41 41 -112t10 -148q0 -78 -5 -151t-5 -120q0 -31 1 -63.5t11 -73.5q-2 -14 -2 -28.5v-28.5q0 -74 5 -153t5 -157q0 -66 -6 -128t-29 -117q-23 0 -34 4t-18 13t-13 21.5t-16 28.5q0 -10 -7.5 -13 t-7.5 -13h-82q0 -10 -6 -27.5t-6 -28.5h-41q0 23 -7 42.5t-7 39.5q20 31 38.5 70t28.5 80v14q-20 -51 -38.5 -73.5t-69.5 -22.5q-10 61 -18.5 129.5t-8.5 130.5q16 6 17 39q0 18 -5.5 38.5t-11.5 30.5q8 8 15.5 34t11.5 59.5t6 71.5t2 73q0 39 -2 70.5t-6 46.5 q10 31 20 52.5t21 41.5q0 123 -13.5 246t-13.5 246q41 10 88 20t88 20zM225 475q-10 -10 -13 -11t-13 -1q-10 -23 -13.5 -35t-13.5 -35h-29q0 10 -1 20.5t-11 20.5h-14q0 -41 3 -72.5t23 -62.5q23 51 47.5 98t34.5 78zM240 1362q-10 0 -28.5 -7t-39.5 -7v-150q20 41 35.5 80 t46.5 70zM213 911q-10 -10 -22.5 -27.5t-32.5 -27.5v-80h-15v-28h15q14 41 22 63.5t13.5 37.5t9.5 28.5t10 33.5zM184 612q-20 -23 -26 -26.5t-27 -14.5v-67q10 10 13 26.5t14 26.5h14zM199 680v-41l14 41h-14z" />
<glyph unicode="J" horiz-adv-x="980" d="M41 231h-12v13q-10 0 -12.5 10t-2.5 31l15 -13l12 13q-23 45 -23 92q0 18 3.5 38.5t7.5 47.5q31 0 59.5 -2t48.5 -12q4 0 6 2q8 2 9 12h67q27 0 27 26l41 -14q0 -6 2 -8q2 -12 12 -18q-10 -10 -10 -15q0 -4 2 -4l2 -4q0 -2 -8 -4l-15 -41q14 14 15.5 20.5t11.5 6.5h29 q10 -31 12 -62t2 -61q-12 -4 -12 -17q0 -10 6 -20t6 -17q-2 -2 -6 -2q-12 0 -19.5 17.5t-11.5 40.5q-2 12 -3 26.5t-1 30.5v-4l-41 -41v-14h27v-27q10 0 12 -8t2 -19l12 -28l-12 14h-14l-27 -27l12 -14h15v-26q10 10 20 11t21 1v28q16 -10 33.5 -21t39.5 -11q6 0 11.5 1 t11.5 3q37 6 58.5 10t37 14.5t26.5 30t27 55.5q4 41 11.5 75t7.5 77q0 31 -6 80q-4 -8 -4 -2q0 12 10 54t35 97q-23 23 -31 62t-8 84q0 53 6 106t6 88q0 20 -7 41t-7 41q2 14 2 27.5v30.5q0 49 -4 100t-4 100q0 43 6 85t28 79q20 0 31.5 -5t19 -12t14.5 -17.5t17 -20.5 q0 10 1 12t12 2q20 10 33.5 12t33.5 2q10 10 14.5 13.5t14.5 13.5h41q0 -10 6 -21.5t6 -33.5q-20 -20 -39.5 -42t-42.5 -52l15 -15q20 31 38.5 49.5t69.5 18.5q8 -29 14.5 -61.5t6.5 -63.5q0 -27 -7 -51q-6 -6 -6 -19q0 -12 6.5 -26.5t14.5 -22.5q-16 -10 -24.5 -44 t-11.5 -74t-4 -76.5t-1 -51.5q0 -20 -9.5 -32.5t-19.5 -22.5v-12q0 -82 14.5 -164t14.5 -164h-29v-78q0 -43 -5 -73.5t-22 -65.5q-6 0 -17 -15.5t-26 -35.5l-28 -41q-16 -23 -25 -31q23 6 42.5 11.5t33.5 5.5q20 0 20 -17q-6 -6 -28.5 -29.5t-51 -50t-59 -48t-51.5 -21.5 q-37 -10 -58.5 -17.5t-45 -12.5t-55 -8t-87.5 -3q0 8 -20 8t-51 -4t-60 -4q-25 0 -44 5t-30 21q-51 0 -80.5 31t-80.5 92l-4 12q-4 8 -5 11q-6 18 -6 32q16 10 26.5 14.5t16.5 8.5l9 4q-2 0 -5 2q-14 2 -20 12zM750 1157q10 10 13 11t13 1q0 10 7.5 20.5t7.5 20.5 q10 0 20 7.5t20 7.5v-41h27q0 31 -3 52t-24 44q-31 -41 -51 -66.5t-30 -56.5zM586 53l28 -14q2 6 15.5 19.5t29 28.5t27.5 28.5t12 17.5q-2 2 -8 -4q-4 -4 -14 -7t-22.5 -7t-24 -9.5t-15.5 -11.5l-41 -26q0 -10 1.5 -12.5t11.5 -2.5zM764 870q10 10 21.5 20.5t31.5 20.5v56 h14v12h-14q-20 -25 -30.5 -39t-15.5 -24.5t-6 -21t-1 -24.5zM750 434q14 6 23 9t15.5 7.5t12.5 9.5t16 15v41l-26 -12q-10 -10 -20.5 -28.5t-20.5 -41.5zM791 1061q20 23 26 26t29 3v53q-10 -10 -19.5 -20.5t-9.5 -20.5h-12zM764 1020h12v29q-10 0 -11 -1t-1 -12v-16z M668 1128v29q-10 -10 -11 -14q1 -5 11 -15z" />
<glyph unicode="K" horiz-adv-x="1148" d="M508 598l-68 -68q-12 0 -15 2.5t-4 6.5t-2 9t-7 9q0 -27 -27 -27q-10 -10 -13 -12t-14 -2q4 -55 7.5 -115.5t3.5 -119.5t-5.5 -113.5t-19.5 -99.5q10 -31 10 -54q0 -27 -11 -41t-26 -14h-14q0 10 -7 20.5t-7 20.5q-6 6 -17 6q-23 0 -51 -18.5t-47 -18.5q-2 0 -3 1t-3 1 q-10 23 -37 23q-4 0 -10 -1t-12 -1l-31 -6h-4q-4 0 -4 4q0 8 2 10q-4 16 -4 31.5v29.5q0 31 6 54q8 37 41 37v4q-2 2 -2 6q-10 6 -13 20q-2 2 -2 8h-12q0 51 3 101.5t24 101.5q-10 10 -20.5 14.5t-20.5 14.5q0 31 8 52.5t18 41.5q10 31 12.5 69t2.5 68q-2 2 -4.5 3t-4.5 3 l-9 4.5t-9 2.5v82h12q10 23 13 38q2 2 2 17h-41q-2 14 -2 27.5v27.5q0 88 14 184.5t14 188.5q0 61 -12 117q6 6 6 14q0 6 -3 12t-3 15q10 20 13 38.5t14 28.5q18 -6 39 -6q25 0 50 6t48 14q4 -20 9 -32.5t10 -23.5t10.5 -26.5t9.5 -39.5q10 10 14 20t14 21l54 45v-183 q-8 -23 -15.5 -43t-11.5 -39q-10 -33 -18.5 -61.5t-8.5 -32.5q10 0 20.5 -7t20.5 -7q10 -51 11.5 -101.5t1.5 -103.5q31 41 56.5 77t25.5 46q41 51 76.5 112.5t72.5 124t77 122t87 104.5q10 10 20.5 14t20.5 14l231 -14q-72 -113 -137 -219.5t-106 -228.5q-10 -10 -30 -34 t-40 -49.5t-38.5 -48t-29.5 -32.5q16 -10 17 -19q0 -6 -17 -22q51 -92 105.5 -184.5t126.5 -184.5q10 -16 17 -37.5t15.5 -44t16.5 -44t18 -36.5q29 0 36 -11t7 -28q0 -8 -1 -16t-1 -14h-12l82 -82q10 -45 18 -66q10 -45 11 -53v-4q-2 0 -2 2q-20 0 -32.5 8t-23.5 19 q0 -10 2 -20.5t13 -20.5q-23 -8 -40.5 -14.5t-39.5 -6.5q-18 0 -43 6h-15l-12 15h-14l-15 14q-10 10 -28.5 13t-38.5 14q-2 -2 -8 -2q-16 0 -28.5 19t-12.5 38q0 27 22 27l-14 12h-27q-14 0 -14 14h-27q0 10 7.5 27.5t7.5 27.5q-10 20 -21.5 48t-24 58t-24.5 55.5t-27 41.5 q-20 41 -48.5 97.5t-59.5 107.5zM780 1251h-14l-12 -12q-43 -20 -82 -41h-15l-82 -123h-14q0 -16 -2 -18q0 -4 -2 -6q45 20 74 55q16 18 29.5 37.5t23.5 40.5q31 0 58.5 23.5t37.5 43.5zM631 639h-29l14 -14q-20 -10 -23 -20.5t-3 -20.5h-15l56 -109l-15 -12q10 0 13.5 -7 t13.5 -7q6 14 6 32q0 23 -9 45.5t-24 44.5q23 0 23 33q0 21 -8 35zM944 1415q-23 0 -34 -7t-21 -7l-68 -68q39 10 60.5 22.5t62.5 33.5v26zM616 776l-14 -14l-27 -55q37 18 56 55zM289 258q10 10 14 22.5t14 71.5h-14q0 -20 -7 -41.5t-7 -52.5zM494 625h-15q-10 0 -14 -2 t-12 -11q-10 -10 -25.5 -20t-15.5 -21zM1038 80q-10 0 -13 -6t-13 -6q0 -10 2 -20.5t12 -20.5zM289 979h14q0 10 7 22.5t7 32.5q-10 -10 -14 -17t-14 -38zM549 1034q-10 -10 -20.5 -28.5t-20.5 -38.5l14 12q10 10 18.5 27.5t8.5 27.5zM657 408q2 -14 15 -27h12q-8 18 -20 31 l-17 16q8 -12 10 -20zM289 1157l14 14q4 4 14 27q-10 0 -14 -5t-14 -36zM270 928q10 10 19 10l-13 14q-8 -8 -12 -22q-2 -2 -2 -21zM889 109l-15 -15l15 -14v29zM752 1317l-2 -2q8 4 10 6z" />
<glyph unicode="L" horiz-adv-x="970" d="M297 -16q-14 -6 -26.5 -12.5t-24.5 -6.5q-14 0 -33 12v13q0 10 -8 12q-2 2 -6 2v14h-15q0 -47 -45 -47q-16 0 -37 6q-4 -2 -7 -2t-3 13q0 8 1 18t1 21q0 14 -3 27.5t-15 17.5q0 10 7 28.5t7 38.5v41h-14q0 10 -2 12.5t-13 2.5q10 10 15 10q4 0 6 -3t8 -7q10 16 17.5 30.5 t15.5 14.5q4 0 8 -4v26l-29 14q-2 2 -3 4.5t-3 4.5q-6 6 -6 18h-14q10 20 13 47t13 49q0 23 3.5 55.5t8.5 70.5t8 76t3 71q0 49 -8 67q4 35 6 72t2 78q0 111 -8 224.5t-8 217.5q0 39 2 75t6 69q10 0 13 8t13 18l219 -26q0 -96 3.5 -185.5t8.5 -175.5t12 -175t17 -185 q2 -6 3 -37q0 -27 -3.5 -58.5t-6.5 -62.5t-5 -57.5t-2 -44.5q23 -29 23 -48q0 -12 -2 -14l-21 -61h-14l28 -162q10 10 21.5 18.5t32.5 8.5q47 0 97 11t99 11q39 0 64 -8q0 -10 6 -20.5t6 -20.5q14 8 26.5 14t22.5 13q18 10 37 18t23 8l69 -53v-14l-14 -15q20 -10 33.5 -25.5 t34.5 -15.5q-10 -25 -11.5 -52.5t-1.5 -53.5v-29q-10 0 -14 -7t-14 -7q-8 0 -14.5 3t-12.5 3q-8 0 -14 -6q-31 10 -68 10q-53 0 -106.5 -12.5t-104.5 -12.5q-25 0 -35 2v41l-8 -8q-6 -6 -18 -6l-13 -14h-41q0 10 -2 14t-12 14q-10 0 -28.5 -7t-39.5 -7q-23 -10 -28.5 -18.5 t-26.5 -8.5q-4 4 -7 8.5t-5 6.5l-2 2v-4q-23 0 -37 -6zM254 1161h-14v-41q-20 0 -32.5 -16.5t-23.5 -36.5h-12v-193h-14q10 -10 12 -19t2 -19q20 41 30.5 96t10.5 106q18 0 29.5 41t11.5 82zM293 1407q-10 0 -19.5 -7t-19.5 -7v-33q0 -16 -2 -31.5t-12 -44.5q31 10 41 23.5 t41 44.5q-10 10 -14.5 22.5t-14.5 32.5zM352 141q-2 -2 -18 -2q0 -20 -6 -38.5t-6 -28.5q2 -8 8 -9q8 0 16 33q2 18 12 47q-4 -2 -6 -2v0zM348 31q0 12 -14 26v-39q4 0 6 2q8 3 8 11zM621 139q10 0 20 7.5t21 7.5l-15 14q0 -10 -8 -14.5t-18 -14.5zM676 168l26 27 q-10 0 -15 -7.5t-25 -7.5zM240 221l-15 -12v-21q0 6 6 13q9 8 9 20zM784 168q10 10 12.5 13t2.5 14q-10 -10 -12.5 -13.5t-2.5 -13.5z" />
<glyph unicode="M" horiz-adv-x="1466" d="M229 0q-8 8 -26 8q-23 0 -54.5 -8t-54.5 -8q-18 0 -26 8q0 29 13 53.5t13 55.5q-14 29 -19 74.5t-5 101.5q0 55 4 116.5t8 119t8 106.5t4 80t-2 61.5t-12 60.5q2 29 3 57.5t1 57.5q0 66 -3 135.5t-3 139.5q0 72 6 138t22 126q31 0 45.5 -25.5t24.5 -56.5q0 10 1 14t11 15 q10 0 29 6t41 6q0 10 1 20.5t11 20.5h29q0 -4 9 -7t21.5 -5.5t26 -5.5t23.5 -9v14q41 -10 75.5 -14t75.5 -14q20 -113 34 -240t34 -250l41 -82q4 -23 13.5 -78t22.5 -114.5t27.5 -109.5t30.5 -64v-29q4 35 12.5 70t22.5 67q14 39 22.5 70t12.5 53q0 31 8 61.5t18 59.5 q14 70 27.5 153t32 167t43 162.5t61.5 144.5q31 -10 36 -30.5t5 -51.5q10 10 11.5 14t1.5 15h69q10 10 13.5 20t13.5 20h26v-55q10 20 27.5 41t28.5 41q41 -10 74.5 -18.5t74.5 -8.5q0 -135 -13 -259t-13 -259q10 -20 13 -42.5t13 -53.5q0 -16 -2 -60t-2 -98q0 -70 6 -131 t25 -78q-4 -12 -10.5 -33.5t-6.5 -39.5q0 -29 17 -35q0 -61 -8.5 -131t-18.5 -141q-31 0 -46 26.5t-36 67.5l-14 -13q23 -41 41 -80.5t29 -70.5q0 -20 -7.5 -39.5t-7.5 -40.5h-26q0 10 -9.5 26.5t-19.5 26.5h-53q0 10 -2 13.5t-13 13.5q-10 -29 -23 -48.5t-44 -19.5 q-16 53 -22.5 117t-6.5 131q0 98 7 199.5t7 193.5q0 31 2.5 62t12.5 61q6 70 6 129q0 72 -6 124t-15 87v-26q-14 0 -20 -24t-6 -46v-27q-16 -16 -33.5 -65t-33 -107.5t-27 -114t-15.5 -81.5l-20 -40t-21 -40q-31 -123 -54.5 -252t-53.5 -252q-23 0 -42.5 -2t-39.5 -12h-55 q-10 10 -12.5 20t-2.5 21h-41q-10 0 -11 8t-1 18q-10 -31 -17.5 -56.5t-37.5 -25.5q-31 61 -50.5 138t-34 160t-25.5 167t-25 162v123q-16 47 -35 116.5t-35 141.5q-10 41 -12 82q-6 -6 -7 -29q0 -20 3.5 -40.5t3.5 -24.5q-8 -16 -13.5 -50t-8.5 -77t-4 -89t-1 -85v-82 q0 -20 -9 -42t-20 -53q0 -61 4 -103t10.5 -82t10.5 -85t4 -110q-20 0 -34.5 -15.5t-26 -35t-24 -37t-26.5 -21.5zM203 53q10 6 22.5 21.5t24.5 33t25.5 30t23.5 12.5l12 135q-10 -16 -24.5 -47t-29.5 -64t-29.5 -62.5t-24.5 -43.5v-15zM1237 1389v-15q23 -31 35 -75t35 -74 v149q-23 0 -35 7.5t-35 7.5zM217 967q10 10 13 11t14 1q0 23 7 41t7 29q10 10 20.5 11t20.5 1v-53h12q0 41 -3 79.5t-23 69.5q-20 -61 -39 -105t-29 -85zM1282 395l37 -110q23 41 26 74.5t3 74.5h-15v-41q-6 -6 -14 -6q-6 0 -12.5 3t-14.5 3q0 10 -7 28.5t-7 41.5q-4 0 -6 2 q-6 0 -6 2q0 -19 16 -72zM748 80q10 10 27.5 12t27.5 2l41 150q-23 -20 -35 -47t-35 -47v-15h-12q0 -10 -8 -18q-2 -2 -3 -4t-3 -4v-29zM979 979h27q0 23 9 41t19 29q0 10 8.5 11t18.5 1q0 -20 -7 -31.5t-7 -21.5h14q10 41 18 74.5t8 74.5l-69 -104q-14 -23 -24.5 -40.5 t-14.5 -33.5zM692 299v27q6 20 6 41q0 20 -3 40.5t-3 41.5h-12v-56h-29q-10 23 -13 35t-13 35q-10 0 -13.5 1t-13.5 11q10 -31 36.5 -73t57.5 -103zM420 1362v-14q31 -31 46 -69t36 -69l-27 138q-10 0 -27.5 7t-27.5 7zM870 530q20 10 31.5 32t22.5 22l28 82h13l14 28 l-14 13q-25 -41 -39.5 -65t-23.5 -40t-15.5 -31.5t-16.5 -40.5zM530 911q6 -31 12.5 -48t22.5 -52l33 -63h14v28q-10 0 -12 1t-2 11l-27 68q-10 10 -20.5 27.5t-20.5 27.5zM1266 926q4 -20 7 -33.5t7 -30t10 -43t17 -71.5h12v32l-2 -2l-10 10v82q-10 10 -20.5 28t-20.5 28z M270 584v82h15v28h-15q-10 -41 -15 -64.5t-9 -41t-7 -32.5t-10 -38q21 46 41 66zM258 829l41 41v70q-2 -8 -4 -15t-4 -12q-6 -18 -6 -28h-15zM1292 625l15 -54h12q0 -20 2 -38.5t12 -28.5v80q-10 0 -15.5 5t-25.5 36zM965 829q31 31 38 36t17 5l27 68q-10 -10 -20.5 -26.5 t-20.5 -26.5h-13zM598 625l27 -54h14q10 -20 13 -33.5t14 -33.5l-15 80q-10 0 -16 5t-37 36zM340 1374h-12q0 -4 -1 -6t-1 -6q0 -10 5 -19.5t19 -9.5l-4 21q-2 2 -2 5t-2 7zM354 1272q2 -31 13 -62v41l-9 29q-4 20 -6 27v-17zM571 680q10 -20 13.5 -23.5t13.5 -3.5l-14 27 h-13zM897 926q8 8 12 24q2 2 2 17q-10 -10 -12 -15.5t-2 -25.5zM1196 530q-10 -20 -10 -24q0 -6 10 -17v41zM692 176v14q0 10 -1 13.5t-11 13.5v-14zM229 762h15v26zM938 776l14 12v15zM1266 680l12 -27v27h-12zM530 489v-2v2z" />
<glyph unicode="N" horiz-adv-x="1165" d="M326 -41l-15 12q-10 10 -11 20.5t-1 20.5q-2 2 -12 2q-20 0 -47 -17t-50 -17q-8 0 -14 6q-6 18 -26 18q-16 0 -34 -6t-30 -6q-18 0 -18 20q-2 12 -3.5 24.5t-1.5 24.5q0 41 13 66q14 37 47 37v4q-2 2 -2 8h-12v27h-15q0 53 3 101t24 89q-18 23 -41 41q0 31 9 53.5 t20 42.5q0 31 6 68t6 68q-6 0 -8 2q-12 2 -19 12v68l15 14q8 14 13 26.5t5 20.5t-6 8q-10 0 -20.5 -2t-20.5 -12q-2 10 -2 20.5v20.5q0 94 14 194.5t14 192.5q0 63 -12 117q6 12 6 22t-3 16.5t-3 14.5q10 23 12.5 34t2.5 21q31 0 74.5 8.5t74.5 18.5q0 -20 4 -31.5t9 -21 t9.5 -18.5t4.5 -23q10 20 20 41.5t21 52.5q31 -10 68.5 -13.5t68.5 -13.5q41 -113 74.5 -239.5t74.5 -249.5q10 -23 21.5 -42.5t32.5 -39.5q6 -25 22.5 -80t35.5 -114.5t40.5 -110t38.5 -64.5q10 -10 13 -34.5t13 -47.5q-10 72 -13 136.5t-13 136.5q0 27 2 64.5t4 77.5 t4 74.5t2 55.5q-20 12 -20 41q0 20 8 41.5t12 40.5h14l-26 164l12 106q4 39 8 68.5t6 29.5q10 0 18.5 -17t8.5 -38q10 20 12 32.5t2 22.5q20 6 37 14.5t35 8.5q16 0 37 -10v-13h14v-28q4 0 6 -2q8 -2 9 -10v-15q10 -10 21 -26.5t32 -26.5q2 2 8 2q10 0 13 -15.5t3 -37.5 q0 -29 -7 -57.5t-17 -28.5q-10 -10 -12 -13.5t-2 -13.5h40v-29q4 0 7 -2q8 -2 8 -10q-10 -23 -13.5 -44t-13.5 -52q0 -25 -3 -59.5t-6 -74.5t-6 -79t-3 -72v-30.5t4 -24.5q-2 -27 -3 -54.5t-1 -58.5q0 -104 6 -219t6 -221q0 -47 -2 -89t-6 -79q0 -12 -8 -20q-2 -2 -3 -4.5 t-3 -4.5l-218 29v39h-26q-10 10 -12.5 14t-2.5 15q-10 -31 -15 -51.5t-25 -30.5q-41 66 -73 142.5t-59.5 158.5t-51 165t-48.5 160q-10 31 -18.5 62t-8.5 61q-20 51 -54 134t-54 165q2 -23 3 -43t1 -41q0 -86 -9 -169t-9 -156q0 -74 4 -158t4 -166q0 -66 -5 -125t-18 -108 q10 -25 10 -45q0 -25 -11 -42.5t-25 -21.5zM938 311h14v29q20 10 30.5 23.5t10.5 44.5l15 -15v205h26q-10 10 -12 20.5t-2 20.5q-20 -41 -30.5 -96.5t-10.5 -108.5q-10 -4 -17.5 -18.5t-12.5 -32.5t-8 -38t-3 -34zM680 489q23 -33 52.5 -73.5t70.5 -89.5q0 31 -9.5 68.5 t-19.5 68.5h-12q0 -10 6 -20.5t6 -20.5q-8 -8 -14 -8q-2 0 -2 1t-2 1q-2 2 -4 3t-4 3q-10 10 -20.5 28.5t-20.5 38.5h-27zM367 1374v-12q31 -31 59.5 -69t48.5 -68l-41 137q-20 0 -33.5 6t-33.5 6zM911 68q6 0 9 2q12 4 18 10v33q0 18 2 33.5t12 43.5q-10 -10 -20 -14 t-21 -14q-10 -10 -13 -20.5t-13 -20.5q0 -10 8 -20.5t18 -20.5v-12zM543 938q10 -25 17 -40t16.5 -31.5t23.5 -40t39 -64.5l14 14l-14 27q0 -4 -2 -6l-2 -2q-2 0 -10 8l-27 82q-10 0 -21 16.5t-34 36.5zM666 639l28 -55h13q10 -20 20 -31.5t21 -22.5l-27 68q-10 0 -17 5 t-38 36zM340 1143q0 -23 -8 -37q-2 -4 -3 -8t-3 -8q10 0 20 -7.5t21 -7.5q-10 20 -13.5 34t-13.5 34zM844 1321q6 0 8 2l8 4q2 2 10 6v68zM299 272q4 4 7 8.5t5 11.5t5 21.5t10 38.5h-15q0 -10 -6 -35t-6 -45zM299 993l12 -14q0 23 7.5 34t7.5 21q-20 0 -23.5 -10.5 t-3.5 -30.5zM1014 700q6 27 6 48h-12v-76q0 12 6 28zM279 936q6 4 11 8t9 8l-14 15q-8 -8 -13 -23q-2 -2 -2 -22q3 8 9 14zM299 1169q10 10 13 15.5t14 25.5q-20 -10 -23.5 -14t-3.5 -27zM829 176v14q0 10 -8 21.5t-18 32.5v-13zM625 694q10 -23 14 -25.5t14 -2.5l-14 28 h-14zM952 1251h15v35q-2 -4 -4 -7t-5 -7q-6 -11 -6 -21zM993 203q10 0 12.5 5t2.5 30q-2 -4 -4.5 -7.5t-4.5 -7.5q-6 -10 -6 -20z" />
<glyph unicode="O" d="M487 -63q-31 39 -58.5 45t-52 9t-45 19.5t-34.5 75.5l-14 14v-41q-61 10 -101.5 44t-60.5 106q-14 0 -23.5 23.5t-14.5 63.5t-7 89t-2 102q0 90 3 171t3 110q16 29 21 43t5 37v41q-20 10 -32.5 20.5t-22.5 20.5q0 23 9.5 35t19.5 34q4 51 29.5 116t61.5 127.5t77 114.5 t76 77q8 -8 15 -13.5t17 -5.5t23 6q0 27 3 38t10 15.5t20.5 6.5t33.5 8v-41q10 0 13.5 -2t13.5 -12q10 41 24.5 56t45.5 26v-41l26 -13q20 10 23.5 16.5t3.5 37.5h41q0 -20 3 -25.5t26 -15.5q18 18 39 18q23 0 45 -18.5t42.5 -43t37 -51t26.5 -41.5q25 -16 42 -29.5 t29.5 -28.5t24 -33.5t25.5 -45.5q16 0 21.5 -15.5t5.5 -39.5q0 -20 -2.5 -45t-2.5 -51q0 -35 9.5 -65t38.5 -42q-6 -29 -7 -45q0 -23 5.5 -43t13.5 -49v-203q-8 0 -10 -8q-2 -2 -2 -6q-6 -66 -9.5 -101.5t-5.5 -53t-5 -23.5t-9 -13q4 0 6 -2q8 -2 8 -12v-149h-26 q-16 -31 -26.5 -49.5t-19 -34t-19.5 -33t-32 -47.5q-18 -8 -44.5 -21.5t-55.5 -27t-58.5 -22.5t-54.5 -9q-27 0 -45 12q-10 -10 -20 -28.5t-21 -38.5q-20 10 -33.5 20t-33.5 20q0 -10 -23 -20t-33 -20zM545 170q12 12 33 12h32l15 27h12v27h29q0 20 12 38.5t29 34.5l30 31 q16 16 23 33q0 12 14 12q0 31 -7 63.5t-7 73.5q10 31 13 61.5t13 61.5q-12 55 -12 109q0 53 6 105t6 99q-10 51 -20 93.5t-21 83.5l-18 18q-4 2 -5 4t-3 4l-82 56q-49 25 -94 24q-35 0 -68 -13.5t-69 -37.5q0 -86 -16.5 -171t-37.5 -171q0 -31 6.5 -68t6.5 -67q10 0 12 -2 t2 -13q-23 -57 -32 -109t-9 -106q0 -41 4 -86t10 -94h13q10 -20 12 -47t2 -47h27v27h14v40h41q0 -10 6 -13t6 -13h14q0 -20 2.5 -33.5t12.5 -34.5h4q8 0 10 -4l12 -24zM256 944q0 31 10 54.5t31 54.5h27q0 10 9 27.5t19 27.5q-10 10 -14 11t-14 1v70q-16 -16 -21.5 -25.5 t-5.5 -25.5v-31q-20 -37 -31.5 -57.5t-18.5 -36t-10.5 -30.5t-7.5 -40h27zM174 209q10 10 20.5 18.5t20.5 8.5q10 41 13 73.5t14 63.5q-20 0 -28.5 -3t-39.5 -26v-135zM897 768q20 31 31.5 48.5t18.5 33.5t13.5 36.5t16.5 57.5h-12v-26l-27 12q0 -31 -9 -61.5t-20 -61.5h-12 v-39zM879 246q-18 -31 -23 -84q10 16 20.5 29.5t18.5 25.5q29 41 29 100q-10 -16 -21.5 -33.5t-23.5 -37.5zM924 406q-2 -16 -4 -30t-7 -28q8 18 13 31q10 29 14 47t10 55q-20 -26 -26 -75zM297 836v41q-10 0 -13 -5.5t-14 -35.5h27zM827 127q6 8 12.5 14t10.5 15l-23 12 v-41zM801 807l-15 14v-67zM637 59q23 20 26 25.5t3 15.5q-10 0 -14.5 -10.5t-14.5 -30.5zM924 616q4 4 7 8.5t5 6.5t2 20q-2 -4 -4 -7t-4 -7q-6 -11 -6 -21zM745 250q2 8 11 16q-8 -4 -11 -6q-12 -6 -12 -10h12zM815 303q-2 0 -2 -2q-2 -2 -2 -3t-2 -3h2z" />
<glyph unicode="P" horiz-adv-x="1034" d="M432 229l-41 -41q0 -6 -4 -21t-9 -33.5t-9 -34t-4 -19.5l26 -41l15 -70h-29v-12q-10 -2 -18.5 -3t-12.5 -1q-35 0 -62.5 10t-56.5 10q-6 0 -26 -4q-10 10 -28.5 14.5t-39 8.5t-39 10t-28.5 23q0 14 8 29.5t18 30.5t18.5 30.5t8.5 31.5q-20 33 -26.5 81t-6.5 104 q0 86 9 177t9 157v28q0 27 -2 54.5t-10 52.5q0 16 1 33.5t1 33.5q0 82 -5 166t-5 166q0 72 6 140.5t29 127.5q20 0 31.5 -5t19.5 -13t14 -21.5t17 -27.5q2 2 3 4t3 4q8 8 8 18h82q0 10 6 28t6 28h41q0 -23 7.5 -29t7.5 -27h12q16 0 24.5 -3t16.5 -3t14 6q0 31 12.5 31 t42.5 10v-26h27q10 20 17.5 25.5t37.5 15.5v-29h13q23 0 26.5 3t14.5 26h26q0 -10 3 -25.5t26 -15.5q8 8 29 8q27 0 54 -19.5t50 -41.5l31 -29q10 -4 18 -8t17 -9l28 -8q12 -4 23.5 -13t21.5 -30q20 0 23.5 -21.5t5.5 -50t8 -55t31 -37.5q0 -20 -6 -36.5t-6 -32.5 q0 -14 12 -27v-205h-14q-10 -35 -17.5 -49t-11.5 -14q-2 0 -2 2q-6 4 -10 20q-20 -41 -42 -65.5t-53 -54.5q-2 -2 -6 -2q-6 0 -11 11t-10 24.5t-10.5 24.5t-11.5 11q-2 0 -3 -1t-3 -1q6 -10 6 -20t-5 -24.5t-11 -26.5q-6 -10 -13.5 -23.5t-17.5 -28.5l-94 -26q-35 8 -82 8 q-20 0 -40.5 -2t-41.5 -6l-108 26v-67q-10 -31 -19.5 -52.5t-9.5 -44.5v-108h29q0 -23 1 -48.5t11 -47.5zM406 786q12 0 40.5 -2t61.5 -2h31.5t29.5 4q10 -10 13.5 -11t13.5 -1q0 10 2 11t25 1v41h14l12 15h29v-27h12l15 -14h14q0 20 6 32.5t6 22.5h14v-14h15q10 25 10 24 q0 4 -3 7.5t-7 9.5q-8 -8 -12 -21l-3 -6v41q-2 -2 -4 -2t-4 6q-10 6 -18 37h12q0 20 7 39.5t7 42.5q-20 41 -37.5 89t-17.5 101q-43 16 -100.5 43t-112.5 27q-25 0 -31 -2v-27q-10 -10 -15 -14t-25 -14q0 -20 -9.5 -40t-19.5 -42q0 -10 8 -24.5t19.5 -30t19.5 -30t8 -24.5 q-16 0 -16 -37q0 -16 4 -34.5t12 -22.5q-10 -23 -18 -61t-8 -91zM338 625v26h-14q-16 -41 -24.5 -63.5t-13.5 -40t-8.5 -32.5t-9.5 -40q10 10 22.5 26.5t33.5 26.5v97h14zM731 1087h29q0 10 8 26.5t18 27.5q6 6 15 6h4q2 -2 4 -3t4 -3q10 10 14 20t15 21h-29v55 q-10 -16 -11 -22.5t-1 -16.5v-16l-33 -33q-16 -16 -21.5 -27.5t-15.5 -34.5zM842 842q25 6 41 22.5t24 37t11.5 41t3.5 36.5q-4 -4 -17.5 -24.5t-28 -45t-19.5 -35.5zM297 786q20 31 26.5 36t26.5 5v97q-10 -20 -13 -41t-13 -41h-15zM377 1237l14 14q0 10 2 28.5t13 39.5 q-23 0 -27 -2t-14 -12v-13q0 -10 1 -24.5t11 -30.5zM827 774q20 14 36 17.5t26 4.5t15 6t5 25q-18 0 -38.5 -7t-32.5 -25l-11 -9v-12zM883 979q14 20 22 31.5t14.5 21.5t13.5 22.5t17 32.5h-14v-14h-14q0 -10 -8.5 -28.5t-18.5 -38.5q0 10 -2 10l-10 -10v-27zM297 1006h-14 q-10 -20 -18.5 -34t-8.5 -34q10 10 18.5 13t8.5 14q0 10 7 20.5t7 20.5zM268 719h15l14 41q-10 0 -14.5 -5t-14.5 -36zM786 979l15 41h-15v-41zM365 991h-15v-12h15v12zM909 827q10 0 11.5 3.5t1.5 19.5l-2 -6l-5 -8l-4 -5z" />
<glyph unicode="Q" horiz-adv-x="1179" d="M1012 -217q-31 0 -61.5 9t-61.5 20q-10 10 -24.5 33.5t-29 48t-25.5 47t-17 32.5l-33 13l-27 8q-4 -16 -8 -21.5t-10 -6.5t-16.5 -1t-28.5 -4q0 10 -1 20.5t-12 20.5h-28q-4 -20 -7.5 -31.5t-8.5 -17.5t-14 -10t-24 -9v39l-26 15q-23 -20 -27 -26.5t-14 -27.5h-29 q-10 20 -13 24.5t-13 14.5q-23 -23 -47 -22q-25 0 -49.5 18.5t-46 44t-38 53t-24.5 44.5q-51 20 -69.5 45.5t-39.5 76.5q-23 4 -30 25t-7 49q0 23 2 49.5t2 53.5q0 33 -6 58.5t-28 37.5q0 41 -3 66.5t-24 56.5v217q10 0 13 2t14 12q4 61 6 95t5 50.5t6 21.5t9 9 q-10 0 -13 7.5t-13 7.5l12 149h14q14 37 23.5 57.5t19 37t21.5 34t33 47.5q20 8 46.5 21.5t56.5 27t60.5 22.5t59.5 9q18 0 49 -10q10 10 20.5 26.5t20.5 26.5q35 0 53 -41q0 23 22.5 32t32.5 9q23 -27 44.5 -36t41 -11t36 -1t29.5 -7t23.5 -28.5t16.5 -65.5h27v26 q61 0 100 -36.5t49 -98.5q14 0 24.5 -29.5t16.5 -78t9 -108.5t3 -120q0 -78 -4 -144.5t-8 -90.5q-4 -16 -6 -25.5t-5 -21t-6 -28.5t-10 -48q20 -10 33.5 -14.5t34.5 -14.5q-10 -20 -20.5 -39.5t-20.5 -40.5q0 -53 -29.5 -127.5t-70.5 -144.5q4 -10 9 -20.5t9 -20.5 q37 -57 57.5 -79.5t38 -36t39 -33t58.5 -70.5q-31 -31 -67 -61.5t-56 -61.5zM590 1282q-14 -8 -24.5 -11t-33.5 -3h-38v-27q0 -8 -5 -8q-2 0 -2 1t-2 1l-6 6l-82 -41h-12q-10 -31 -14 -68.5t-15 -68.5h-26q10 -41 12 -73t2 -62q0 -31 -7 -69t-7 -68q8 -31 8 -74 q0 -57 -10.5 -117.5t-10.5 -120.5q10 -41 19.5 -82t19.5 -82l41 -41l70 -55q23 -6 43 -10t41 -4q37 0 71.5 13t75.5 42q10 82 26.5 170t27.5 170q0 31 -1 63.5t-12 73.5h-14q29 63 37 115.5t8 105.5q0 41 -2 87.5t-2 99.5h-14q-10 23 -13.5 42t-13.5 40h-14v-13h-27v-40h-41 v26h-14q-10 10 -11.5 28.5t-1.5 39.5q-20 0 -23 2t-3 12zM862 506q-10 -31 -20.5 -59.5t-20.5 -49.5h-41q0 -23 -7 -35t-7 -34h14q0 -20 6.5 -40t6.5 -42q4 4 5 8t3 8l4 14q2 2 2 19v33q20 41 31.5 64.5t18.5 41t10 32.5t7 40h-12zM1012 -66l-82 121q0 -33 8 -63.5t8 -63.5 q0 -10 -1 -17t-3 -17q0 -14 14 -15zM930 1227q-10 -10 -20.5 -13.5t-20.5 -13.5q0 -31 -2 -61.5t-13 -61.5q16 -10 23 -10q8 0 33 25v135zM276 1309q-20 -25 -35.5 -44.5t-25.5 -40t-15 -45t-5 -61.5q20 41 43.5 82t23.5 82h14v27zM221 682q-20 -35 -32.5 -55.5t-21.5 -37 t-18.5 -34.5t-23.5 -49q10 0 14 -7t15 -7v26h12q10 31 14 55.5t15 55.5h6q4 0 5 1t1 11zM195 1118q-16 -47 -22.5 -65.5t-6.5 -44.5v-39q16 16 22.5 48t6.5 62v39zM236 629h26q0 20 -7 33.5t-7 33.5zM301 1165q2 4 2 33q-4 -12 -14 -12q-10 -20 -10 -27q0 -10 10 -26 q2 4 4 11t4 11zM821 614l-14 -41q10 0 13 5.5t14 35.5h-13zM180 831q-10 -10 -12 -14t-2 -26q10 10 12 15t2 25zM467 1376q-10 -10 -12 -14t-2 -19q0 6 6 13q8 8 8 20z" />
<glyph unicode="R" horiz-adv-x="1148" d="M827 -68q-20 20 -33.5 31.5t-33.5 22.5q0 20 2 40.5t12 41.5q-27 16 -36 58t-9 93q0 35 3 72t8 70.5t10.5 60.5t9.5 41q-4 6 -19 20l-22 21q-10 10 -18.5 20.5t-8.5 20.5q8 18 8 47l-22 -6q-25 4 -48.5 6t-45.5 2q-49 0 -82 -8l-111 41v-82q-10 -23 -18 -44.5t-8 -51.5 v-109h26q0 -20 7.5 -47t7.5 -49h14q-23 -29 -27 -41.5t-14 -12.5q0 -10 -9.5 -36.5t-9.5 -49.5q0 -14 5 -22l26 -41l15 -70h-41v-12q-41 0 -75 8t-67 8q-10 0 -17 -1t-18 -3q-10 14 -27.5 21.5t-34.5 11.5t-33.5 8t-26.5 15q0 31 21.5 61.5t31.5 61.5q-23 31 -32 76.5 t-9 99.5q0 45 4 94t10 94t10 85t4 69q-10 41 -12 72.5t-2 62.5q0 92 -6 187t-6 194q0 80 8 153.5t31 132.5q31 0 46 -18t36 -49v27h82q10 20 13 32.5t13 22.5h29q8 -23 12 -29t15 -26l14 14q10 0 20.5 -7t20.5 -7q4 14 7 20t8 8t13.5 4t24.5 8q0 -10 7 -13t7 -13h15 q20 20 28.5 30.5t38.5 10.5l-14 -29h27l28 29h27q10 -10 13 -25.5t14 -15.5q14 8 34 8q23 0 44.5 -11t39 -25.5t29.5 -30t16 -23.5q25 -6 41.5 -10t27.5 -8.5t20.5 -13.5t19.5 -23q27 -4 31 -28t5 -53.5t8 -57t38 -38.5q0 -25 -8.5 -44t-8.5 -35q0 -8 5 -17v-205h-15 q-6 -37 -10 -46t-8 -9q-4 2 -8 14q-18 -25 -34 -43t-32 -34q6 -16 15.5 -28.5t16.5 -23t13 -21.5t6 -26q-4 -4 -4 -6q0 -4 15.5 -11t33.5 -17l2 -3q-27 -37 -46 -66.5t-27 -45.5q2 2 4 3t4 3q8 8 18 8q0 10 7.5 19.5t7.5 19.5h41v-27h12q0 10 1 21.5t3 21.5v5q0 14 -8 32 l28 -12q25 -10 31 -12q-16 -10 -24.5 -42t-12.5 -69t-4 -71.5v-49.5q-10 -10 -20.5 -22t-20.5 -33q0 -33 17.5 -64.5t38 -62.5t38 -62.5t17.5 -64.5q0 -4 -1 -9t-1 -9q-20 -6 -57 -13.5t-78 -15.5t-79.5 -14.5t-58.5 -10.5zM391 788q10 0 29.5 -2t42.5 -2q25 0 52.5 4.5 t53.5 14.5v-15q4 0 6 -2q6 -6 7 -10q10 10 14 11t14 1q0 10 1 20.5t12 20.5h14v15h41v-27h14v-14h13q10 20 12 32.5t2 22.5h14q0 20 6 31q4 8 6 10q-10 0 -14 5t-26 36h14q10 20 12 39.5t2 42.5q-10 51 -27.5 100t-27.5 90q-41 23 -94.5 48.5t-106.5 25.5q-25 0 -45 -6v-27 q-2 -2 -4 -3t-4 -5q-4 -4 -9 -10t-9 -10q-20 -39 -41 -82q10 -20 32.5 -47t22.5 -47q-12 -10 -12 -31q0 -18 6 -40t6 -38q-10 -23 -19.5 -61t-9.5 -91zM338 639l-14 14h-15q-14 -41 -22 -64.5t-12.5 -40t-8.5 -31.5t-10 -40q20 20 26.5 39t26.5 29v82h29v12zM827 844 q25 6 41.5 22.5t26.5 37t16.5 41t12.5 36.5q-10 -6 -26.5 -24.5t-32 -40t-27 -42t-11.5 -30.5zM733 1090h12q10 20 20.5 33.5t20.5 33.5h29q0 10 1 13.5t11 13.5q-12 0 -12 14q0 10 -2 20.5t-12 20.5q-10 -10 -12.5 -17.5t-2.5 -37.5q-16 -20 -25 -31.5t-13.5 -21 t-7.5 -18.5t-7 -23zM854 0h70v94q-23 -20 -37.5 -45.5t-44.5 -36.5zM283 788l55 56v74q-4 -20 -10 -27q-4 -8 -9.5 -15.5t-9.5 -17.5h-12zM365 1239l14 14q0 20 6 33.5t6 34.5h-41q0 -20 7.5 -41t7.5 -41zM883 993l22 23q10 10 16.5 19t12.5 22l16 33h-14v-15h-27 q0 -10 -7 -26.5t-7 -26.5h-12v-29zM815 776q20 14 34.5 17.5t25 4.5t15.5 7t5 24q-6 0 -27 -4q-27 -8 -26 -22h-27v-27zM774 82q20 10 26.5 25.5t26.5 15.5v51q-4 -8 -9 -13l-9 -9q-16 -23 -22.5 -35t-12.5 -35zM705 627q23 20 28.5 23t26.5 3v56q-10 -10 -18.5 -20.5 t-8.5 -20.5h-14zM283 1008h-13q-8 -8 -12 -29q-2 -6 -2 -35q6 23 27 23v41zM786 981l15 41h-27q0 -10 1 -20.5t11 -20.5zM256 735h27v27q-10 0 -13.5 -3.5t-13.5 -23.5zM854 176v14h-12q-6 -8 -15 -14h27zM733 844q12 0 12 14q10 10 11 12q0 4 -3 6.5t-8 8.5q0 -10 -1 -20.5 t-11 -20.5zM432 993q0 20 10 21q4 0 4 -6v-15h-14zM909 422h15v27zM215 41q0 10 -8 12q-6 2 -6 8v-20h14zM350 993h-12v-12h12v12zM1006 586q6 -8 8 -17q-4 2 -8.5 3t-8.5 3q2 2 3 4.5t6 6.5v0zM371 201q-2 2 -4 2t-2 -13h14q2 0 -8 11v0zM162 920q0 -6 4 10z" />
<glyph unicode="S" d="M500 -31q-20 4 -56 8.5l-76 9.5t-78 11t-63 12q-37 45 -67.5 81t-53 72t-36 74.5t-13.5 88.5q0 29 6 65q23 0 23 10q0 6 -3 13.5t-3 13.5q0 14 24 31q4 -10 27 -10q18 0 42 4t50.5 9t52 9t46.5 4q35 0 40 -16v-109q8 -8 9 -16q0 -12 -5.5 -26.5t-12.5 -30t-12 -28.5 t-5 -22h18q16 0 34 -2t42 -10h4q10 0 40 -15.5t77 -15.5q25 0 51.5 7.5t59.5 23.5q53 16 67 64.5t14 91.5v47q-39 59 -62.5 76.5t-39.5 17.5q-10 0 -18.5 -4t-14.5 -4q-10 0 -14 10q-82 72 -185.5 128t-195.5 118q-10 0 -15 6t-9.5 13t-7.5 13.5t-9 6.5q-6 10 -13 12 t-14.5 2t-14.5 2t-13 12h-13v27q0 23 1 44.5t12 37.5q-10 0 -26.5 7t-27.5 7q10 20 11.5 40t1.5 42q-10 0 -13.5 6t-13.5 6q10 20 13.5 41t13.5 41h14l14 97l13 -15q18 80 71.5 139.5t124 98.5t151.5 58.5t154 19.5q10 0 21.5 -1t22.5 -1q23 -10 44 -27.5t52 -28.5v-41 q20 0 49 -6t59 -6l41 -82h27q10 -20 20.5 -38.5t20.5 -28.5q31 -43 31 -99q0 -57 -31 -106q-47 0 -84 -6t-76 -6t-84 12l12 26h-26q0 20 -7.5 41t-7.5 41h-26v15q-4 0 -4 2q0 4 3 10t3 18q0 10 -6 25.5t-23 38.5q-41 0 -79 6t-70 6q-27 0 -49.5 -7t-40 -27.5t-29.5 -57.5 t-19 -96l82 -123q35 -41 88.5 -73t114 -56.5t121.5 -46t113 -41.5q20 -20 37.5 -47t37 -54.5t41 -52t47.5 -39.5q23 -49 23 -108q0 -72 -21.5 -145.5t-41.5 -139.5q-16 -31 -29.5 -44t-27 -23.5t-27 -24.5t-27.5 -45q-23 -6 -41 -6q-10 0 -20.5 1t-18.5 1q-29 0 -29 -23 q-31 -10 -54 -20t-54 -21q-31 -6 -51 -6q-25 0 -43.5 4t-44.5 4h-18.5t-18.5 -2zM690 1413q-31 -10 -70.5 -12t-80.5 -2l55 -56q31 10 40 14.5t15 6.5l19 6l18 6t31 8q-10 10 -13.5 14.5t-13.5 14.5zM848 707q8 -10 22.5 -24.5t22.5 -27.5l-8 -39q-10 2 -18.5 11.5 t-18.5 11.5l-4 -14q57 -55 98 -64q-14 31 -27.5 56.5t-25.5 48.5q-6 10 -10.5 18t-10.5 14l-16 27zM862 561q10 -23 26.5 -42t14.5 -40l68 -26zM322 424h-15v-29q10 0 12.5 3t2.5 26zM803 723l-15 -41q10 0 13.5 5t13.5 36h-12zM113 377q-2 -2 -19 -2q0 -20 -6 -39t-6 -29 q2 -8 8 -8q8 0 16 33q2 18 13 47q-4 -2 -6 -2v0zM283 244q8 4 14 15t14 15l-18 7q4 -8 -1 -15.5t-9 -21.5zM317 293l13 37q-8 -4 -10.5 -13.5t-20.5 -17.5zM133 975q10 10 16.5 27.5t26.5 25.5l-8 82h12l2 41l-26 2q-12 -59 -15.5 -85t-5.5 -50zM188 987q-10 0 -21 -20.5 t-32 -20.5l27 -110q10 23 13 51t13 59v41z" />
<glyph unicode="T" horiz-adv-x="1017" d="M608 1217q12 -43 16.5 -98.5t4.5 -114.5q0 -80 -4 -155t-4 -122q0 -41 7 -73.5t7 -63.5q-2 -23 -3 -43.5t-1 -42.5q0 -72 5 -148.5t5 -152.5q0 -66 -6 -126.5t-27 -113.5q-31 10 -46 30.5t-36 51.5q0 -10 -8 -18q-2 -2 -3 -4.5t-3 -4.5q-10 0 -28.5 -7t-39.5 -7 q-10 -10 -18 -20.5t-8 -20.5h-41q0 10 -7.5 28.5t-7.5 41.5l82 164l-14 12q-16 -45 -32.5 -71.5t-51.5 -26.5q-4 0 -24 4q-8 43 -14.5 89t-6.5 93q0 39 6 76q6 6 6 28q0 18 -3 39t-3 29q8 14 14.5 49t9.5 77t4 87t1 80v74q0 20 8 42.5t18 53.5q0 82 -7 154.5t-7 158.5 q-8 0 -16 1t-17 1q-39 0 -71.5 -7t-65.5 -14t-67.5 -14.5t-75.5 -7.5v135q6 8 6 25q0 10 -2 22.5t-2 24.5q0 25 12 37h19q16 0 31.5 -2t31.5 -10q23 23 64 31t88 8q59 0 117.5 -6.5t99.5 -6.5q10 0 77.5 -2t148.5 -5t150.5 -5t86.5 -2q29 0 28 -6q0 -4 -28 -15 q-12 -4 -30 -9t-40 -11q16 0 18 2q10 2 22.5 4t29.5 8q0 -25 8 -30t8 -13q0 -4 -4 -12l14 -12v-56l2 -2q-4 0 -18.5 4.5t-22.5 4.5q-6 -2 -2 -7l15 -41h-41q-18 12 -21 15l-8 6q-2 4 -7 7t-20 13l-14 -12q14 -6 19.5 -9t3 -7t-5.5 -12.5t-3 -26.5q-25 0 -40 -6t-27.5 -14.5 t-27.5 -14.5t-40 -6q0 12 -14 12t-30.5 -6t-24.5 -6q0 10 -17 13.5t-37 13.5zM463 457q-2 -2 -19 -2q0 -20 -7 -39t-7 -29q-10 0 -20.5 -7t-20.5 -7v55h-27q0 -41 3.5 -76t23.5 -76q16 31 28.5 57.5t22.5 49.5t17.5 43t11.5 37zM459 903q-10 -20 -20.5 -36.5t-20.5 -16.5 l-15 -82q0 -10 -2 -12t-12 -2v-27h14l31 64q18 35 21.5 56t3.5 56zM430 604q-20 -31 -26.5 -36t-26.5 -5v-82q10 20 18 33.5t8 34.5h15zM459 659h-15v-28q10 0 12.5 2.5t2.5 25.5zM418 1217v-27l26 27h-26zM553 508v-39l10 25q0 4 -3 6t-7 8z" />
<glyph unicode="U" horiz-adv-x="1089" d="M754 1509q10 0 13 -7t13 -7v-27q14 -10 27 -10q16 0 30.5 7.5t30.5 7.5l21 -5q10 -29 43 -28q16 0 34.5 4t32.5 4q27 0 27 -21q2 -23 4 -44t2 -40q0 -37 -10 -59t-39 -22q-4 0 -6 1t-6 1v-27h26v-27h15q0 -53 -3 -101t-24 -89q10 -23 20.5 -27t20.5 -14q0 -41 -3 -58.5 t-26 -37.5q-10 -41 -13 -74t-13 -61q10 -10 20 -12.5t21 -2.5v-82q0 -10 -8 -12q-2 -2 -7 -2q-8 -14 -13 -26.5t-5 -20.5q0 -6 6 -6q10 0 20.5 1t20.5 11q2 -18 3 -32.5t1 -28.5q0 -37 -7 -60.5t-15.5 -44t-15.5 -40t-7 -46.5q0 -29 12 -74q-4 -4 -27.5 -45t-52 -88t-55 -85 t-37.5 -38q-4 0 -4 11l-41 -41l-41 55q-20 -23 -42.5 -34t-53.5 -21v14q-12 -6 -24.5 -20.5t-23.5 -29t-22.5 -25.5t-23.5 -11q-10 0 -14 4v53q-20 -10 -29.5 -12t-18 -2t-17.5 -1t-30 -11v67q-23 0 -32 17.5t-9 38.5q-10 -20 -12 -39t-2 -29q-23 0 -37 -2t-24 -2 q-20 0 -48 16v15q-10 0 -13 2t-13 12v27h-14v14q-10 20 -29 33.5t-39 33.5q-16 -4 -14 -4q-14 0 -23.5 14.5t-13.5 32.5q-2 4 -2 25l-11 -20q-2 -8 -6 -9v2l-12 150q0 12 -14 27h-15q10 31 19.5 53t9.5 43q0 47 6 108.5t6 114.5q0 55 -12 90q6 55 6 111q0 98 -10 192 t-10 193q0 86 14 157l27 27l272 -27q0 -78 -8 -160.5t-18.5 -167.5t-18.5 -171t-8 -168q0 -84 12 -164q10 -51 12 -93t2 -83q29 -23 29 -49q0 -27 -17.5 -53.5t-25.5 -47.5q10 -6 16.5 -9t15.5 -5t23.5 -5t40.5 -9q10 -47 41 -66.5t68 -19.5q47 0 89 26.5t46 73.5 q31 10 47.5 15t25.5 9.5t13 7.5t10 9q-10 10 -27.5 13t-27.5 14q-10 39 -14 76.5t-4 76.5q0 78 9 156t9 153q0 74 -7 137.5t-7 129.5q0 45 6 90t22 94q-10 18 -15 55t-5 78q0 49 8.5 90t26.5 49zM139 256l-2 2zM870 811q10 10 20.5 27.5t20.5 27.5h15q6 16 18 51t12 64 q0 4 -4 20q-10 0 -12 -2t-2 -12l-12 -12q0 -10 -9.5 -12t-19.5 -2q-10 -41 -13.5 -75t-13.5 -75zM936 1384q-10 -10 -13 -11t-14 -1q0 -23 -2 -41t-12 -28h-27q0 10 -7 20t-7 20h-12q10 -41 16 -72.5t37 -62.5q10 59 20.5 103t20.5 73zM813 969l55 55v74q-4 -20 -10 -27 q-4 -8 -9 -15t-9 -18h-13zM813 1188h-12q-8 -8 -13 -29q-2 -6 -2 -35q6 23 27 23v41zM786 915h27v27q-10 0 -13.5 -3.5t-13.5 -23.5zM881 1174h-13v-13h13v13zM936 565q10 -10 13 -20t14 -21v27q-10 0 -13.5 7t-13.5 7zM942 590q2 2 8 2q0 10 -8 12q-6 2 -6 8v-30q0 4 6 8z M139 766q31 31 37 36t17 5l-13 82q-10 -10 -12 -28.5t-2 -39.5h-27v-55zM125 713h27l-13 26q-10 0 -12 -3t-2 -23z" />
<glyph unicode="V" horiz-adv-x="1097" d="M201 1509q14 -10 37.5 -16t49 -11t50 -11.5t41.5 -16.5q0 -4 1 -8t1 -8q0 -35 -15.5 -77t-15.5 -69q41 -37 63.5 -104.5t36 -144t20.5 -149.5t17 -120l41 -123q6 -16 11.5 -57t9.5 -87t9 -87t11 -55q6 27 23.5 75.5t37 106t34 115t14.5 98.5q0 14 4 53t10 83t13.5 82 t13.5 54q10 37 14 67.5t4 59.5q0 35 -3 66.5t-3 62.5q0 41 10.5 83t44.5 97q31 0 45.5 -23.5t24.5 -43.5q2 2 3 4t3 4l4 8q2 2 2 10h97q0 10 8 20.5t18 20.5h41v-67q-31 -41 -54.5 -75t-53.5 -75v-14q27 35 49 59.5t59 24.5q20 0 27 -2q0 -61 -8.5 -130t-18.5 -130 q-18 -4 -23 -21.5t-5 -36.5q0 -12 1 -22t1 -14q-20 -20 -38 -72.5t-32 -112t-24.5 -112t-16.5 -72.5q-10 -20 -26.5 -42t-26.5 -52q-31 -123 -41 -246t-41 -246q-51 -10 -100.5 -20t-90.5 -21q-20 31 -40.5 53.5t-41.5 43.5h-41q0 -10 -2 -28t-12 -28h-41q-10 23 -18 42.5 t-8 39.5q10 31 20 70t21 80l-15 14q-10 -41 -26.5 -67.5t-67.5 -26.5q-20 59 -46 135t-36 137q8 0 8 10q0 16 -14 43t-21 41q12 12 13 54q0 33 -7.5 79t-16.5 92t-18 85t-12 59q0 20 6.5 42t6.5 52q-16 61 -30.5 113.5t-31.5 101.5l-30 101q-8 27 -14.5 52t-14.5 54 q25 6 46 19.5t39.5 29t37.5 28.5t39 19zM379 514q-2 -2 -4 -3t-4 -3q-10 -6 -21 -6q6 -12 6 -25q0 -10 -3 -19t-3 -24h-39q0 10 -7 21.5t-7 31.5h-27q10 -41 23.5 -79.5t44.5 -69.5q10 61 25.5 104t15.5 72zM836 977q8 2 20 14q10 10 19.5 27.5t19.5 28.5q0 10 15.5 11 t25.5 1q0 -10 -6 -26.5t-6 -26.5h26q0 29 3 51t3 47q0 23 -6 51q-20 -31 -39.5 -57.5t-38.5 -48.5q-35 -41 -43 -76zM733 528q20 20 33.5 38t34.5 18l26 82h15l14 41h-29q-25 -41 -39 -65t-23 -41t-15.5 -32.5t-16.5 -40.5zM651 147v-55h41l27 150q-20 -20 -34 -47.5 t-34 -47.5zM311 1251q-10 -10 -15 -27.5t-26 -27.5l13 -82h-13v-41h27q10 59 12 85t2 50v43zM283 1020q-10 0 -21.5 -20.5t-32.5 -20.5l27 -111q10 23 13 51.5t14 59.5v41zM311 666q-23 -31 -29 -36t-26 -5l14 -82q10 10 11.5 28.5t1.5 38.5h28v56zM827 827q41 29 49.5 35 t18.5 6l29 82q-10 -20 -20.5 -33.5t-20.5 -33.5h-27zM786 774l29 -14v41q-10 0 -14.5 -3.5t-14.5 -23.5zM324 719h-13v-27q10 0 11.5 2t1.5 25zM725 944q8 8 8 21q-10 -10 -12 -15.5t-2 -19.5q0 4 6 14zM461 569q0 -12 6 -20q2 -4 3 -8t3 -9v5q0 4 -2 10t-10 22z" />
<glyph unicode="W" horiz-adv-x="1613" d="M813 1483q20 -23 33.5 -34t34.5 -22l12 -14l55 41l-41 -53q2 -14 11 -15q2 0 8 7l6 6q2 0 2 -13q25 -25 42 -71.5t30.5 -106t22.5 -125t16.5 -127t13.5 -113.5t12 -83q10 -31 18.5 -61.5t8.5 -61.5q10 -31 14 -54.5t14 -54.5q10 51 19.5 99.5t19.5 79.5q0 31 2 60.5 t13 59.5q14 70 23 151t22.5 162t34 158.5t57.5 143.5q23 0 51.5 4t56.5 4q23 0 40.5 -4t25.5 -19q-2 0 -3 1.5t-3 1.5q-10 0 -19.5 -5.5t-19.5 -11.5q-23 -10 -45 -27q18 10 37.5 12.5t40.5 2.5q10 10 14 20.5t14 20.5h41v-70q-31 -41 -55.5 -80t-54.5 -69l14 -13 q27 37 45.5 60.5t46.5 23.5q4 0 8 -1t9 -1q0 -61 -3.5 -129.5t-23.5 -130.5q-10 0 -13 -13t-3 -30q0 -16 1 -29.5t1 -21.5q-16 -16 -30.5 -65.5t-28 -106.5t-22.5 -109.5t-14 -72.5q-10 -23 -21 -44.5t-34 -52.5q-20 -123 -33.5 -259t-33.5 -259q-35 0 -64 3t-57 3 q-29 0 -56 -6q-10 31 -27.5 53.5t-27.5 43.5h-41q0 -20 -7 -33t-7 -23h-27q-20 43 -41 82q10 31 20.5 70t20.5 80l-14 14q0 -51 -14.5 -72.5t-67.5 -21.5q-20 59 -38.5 127.5t-29.5 130.5q8 6 9 20q0 18 -12.5 42t-22.5 32q10 27 10 59q0 20 -3 42t-7 51q0 -31 -7.5 -59.5 t-7.5 -51.5q-10 -20 -20 -39.5t-21 -40.5q-31 -123 -39 -246t-28 -245q-41 -10 -88 -13.5t-88 -13.5q-10 20 -22.5 39.5t-33.5 42.5h-41q0 -10 -2 -20.5t-12 -20.5h-27q0 10 -8 28.5t-18 39.5q10 31 20.5 69.5t20.5 79.5l-15 14q-6 -20 -10 -37.5t-11 -31t-21.5 -20.5 t-38.5 -7q-20 61 -39 130t-29 130q10 4 10 25q0 20 -8 45.5t-16 38.5q8 14 8 45q0 33 -6 78t-14.5 89t-16.5 83t-12 59v82q-20 123 -54 245t-55 244q41 10 80 18.5t70 8.5q18 -12 45 -12q16 0 33.5 3t33.5 3q23 0 33 -10q2 -4 2 -19q0 -18 -6 -41.5t-12 -46t-12.5 -41 t-6.5 -26.5q35 -41 56.5 -112t36 -148.5t23.5 -151.5t19 -119l41 -123q0 -23 7 -49q8 -18 8 -53q10 55 20 97t21 73q0 31 1 61.5t11 61.5q14 68 25 141l20 150q10 76 24.5 147.5t39.5 132.5q0 23 -6.5 42.5t-6.5 39.5q41 0 82 9.5t82 19.5zM975 502q-10 0 -13.5 -2 t-13.5 -13v-53q-10 -10 -20 -12t-21 -2q0 10 -7 27.5t-7 27.5h-12q10 -41 16 -75.5t37 -75.5q10 61 25.5 104t15.5 74zM1358 950q10 10 13 12.5t13 2.5q10 20 18.5 33.5t8.5 33.5h41v-53h14q10 51 11 80q0 29 -11 69q-31 -61 -64.5 -104t-43.5 -74zM362 487q-10 -10 -13 -11 t-13 -1q0 -23 -2 -41t-12 -28h-27q0 10 -7 20t-7 20h-13q10 -41 16.5 -72.5t37.5 -62.5q10 59 20 103t20 73zM213 1360q-20 0 -33.5 -7t-34.5 -7l27 -150q10 31 15.5 75t25.5 75v14zM1206 147v-55h29l41 137q-23 -10 -41.5 -36t-28.5 -46zM268 924q-10 -20 -15 -39t-26 -29 l13 -70q0 -2 -3.5 -7t-9.5 -5v-26h27q10 59 12 84.5t2 50.5v41zM1276 514q20 23 33.5 41t33.5 29l15 67h26v41h-14q-25 -41 -39 -63.5t-23.5 -40t-15.5 -32.5t-16 -42zM582 121v-55h26l27 149q-20 -20 -31.5 -47t-21.5 -47zM649 502q20 10 31.5 26.5t21.5 26.5l29 82h12v29 h-12zM840 842l14 -41h-14v-27h14q16 59 21.5 84t5.5 45v21q-21 -21 -41 -82zM1370 815q31 20 38 25.5t17 15.5l13 68q-10 -10 -18.5 -27.5t-8.5 -28.5h-27zM907 651q-20 -31 -25 -36t-16 -5l15 -82v11q0 12 1 26.5t11 30.5h14v55zM295 625q-20 -31 -25.5 -36t-15.5 -5 l14 -82q0 18 1 32.5t12 34.5h14v56zM772 979l-14 27l-41 -82q8 8 18 12q2 2 8 2q10 20 14.5 30.5t14.5 10.5zM772 827v15h-14l-27 -56q20 23 25.5 32t15.5 9zM922 707h-15v-41q10 0 12.5 5t2.5 36zM1329 748h14l15 38q-10 0 -14.5 -4.5t-14.5 -33.5zM690 733h27v27 q-10 0 -13.5 -3.5t-13.5 -23.5zM309 678h-14v-27q10 0 12 3.5t2 23.5zM1262 897q10 20 12 25.5t2 15.5q-10 -10 -12 -15.5t-2 -25.5zM1044 555v-41q10 10 11 16q0 4 -3.5 9.5t-7.5 15.5zM641 903q8 8 8 21q-10 -10 -12 -15.5t-2 -15.5q0 4 6 10zM758 1360h-15l15 -14v14z " />
<glyph unicode="X" horiz-adv-x="1173" d="M231 1468q51 -10 102.5 -12t102.5 -2q51 -100 78 -171t41 -105q14 -33 27.5 -65t29.5 -64q20 43 41 85t43 83q6 14 35 69t86 141q10 10 20.5 13.5t20.5 13.5l227 -8l45 8l-34 -72l-49 -122q-25 -25 -37 -52q-18 -35 -35 -69q-12 -27 -45 -60q8 -6 -35 -108q8 10 -29 -19 q12 -23 -2 -51q-6 -16 -21.5 -60t-37.5 -118q16 -33 34.5 -66.5t37 -62.5t35 -50.5t28.5 -29.5q6 -10 11 -26.5t11.5 -33t13.5 -29.5t17 -19q31 -61 59.5 -129t51.5 -130q-8 -2 -14.5 -3t-14.5 -1q-41 0 -70.5 26t-64.5 60l-14 -14q41 -41 82 -75t82 -74q10 -20 12 -39 t2 -29l-29 -14q-20 10 -31.5 27.5t-21.5 27.5h-96l-13 12q-6 -10 -7 -21.5t-5 -21.5t-13 -17t-30 -7q-80 80 -134 183t-101 210q-12 -14 -30 -27.5l-34 -25.5l-55 -162q0 -4 -23.5 -38t-51.5 -73t-51.5 -71.5t-23.5 -36.5q-20 2 -23 17t-3 38q-10 -23 -20.5 -35t-20.5 -33 q-31 0 -66 -12t-63 -12q-20 0 -35 10l14 14h-28l14 27h-14l14 27q-10 10 -20.5 21t-20.5 34q-12 -6 -21 -6q-10 0 -10 10q0 12 10.5 34.5t25.5 44t32.5 37t30.5 15.5q10 0 13 9.5t13 19.5h-39v26h-14q20 20 41.5 47t52.5 48q14 37 46 87t64.5 101t57.5 96t25 70 q10 16 21 32.5t22 32.5q-23 45 -59 111t-70.5 134.5t-59 131t-24.5 103.5q0 16 6 28q-23 31 -35 60.5t-35 60.5q10 23 22.5 44t32.5 52zM281 150q6 2 6 12zM803 1147q8 2 20 14q10 10 19.5 27.5t19.5 28.5q0 10 15.5 11t25.5 1q0 -10 -6 -26.5t-6 -26.5h27q0 29 3 51t3 47 q0 23 -6 51q-20 -31 -40 -57.5t-38 -48.5q-35 -41 -43 -76zM700 698q20 20 34 38t34 18l27 82h14l14 41h-28q-25 -41 -39.5 -65t-23.5 -41t-15.5 -32.5t-16.5 -40.5zM795 997q41 29 49 35t18 6l29 82q-10 -20 -20.5 -33.5t-20.5 -33.5h-27zM754 944l28 -14v41 q-10 0 -14 -3.5t-14 -23.5zM692 1114q8 8 8 21q-10 -10 -12 -15.5t-2 -19.5q0 4 6 14zM522 606q-10 -31 -20 -59.5t-21 -48.5h-41q0 -23 -7 -35t-7 -35h14q0 -20 6.5 -39.5t6.5 -42.5q4 4 5 8t3 8l4 15q2 2 2 18v33q20 41 31.5 64.5t18.5 41t10 33t8 39.5h-13zM309 1432h-28 l14 -15q-20 -10 -23.5 -20.5t-3.5 -20.5h-14l55 -108l-14 -13q10 0 13 -7t14 -7q6 14 6 33q0 23 -9.5 45t-23.5 45q23 0 22 33q0 21 -8 35zM336 1200q2 -14 14 -26h12q-8 18 -20 30l-16 17q8 -13 10 -21zM831 195q10 10 29 14t41 14v135q-20 -31 -36.5 -71.5t-45.5 -63.5 q0 -10 6 -14t6 -14zM969 326q10 -4 7 8t-9 26q-4 16 -12.5 40t-24.5 65h-15v-29l9 -8l6 -74q20 -10 26.5 -26t12.5 -2zM500 1102l18 -19v41q-18 1 -18 -22z" />
<glyph unicode="Y" horiz-adv-x="1087" d="M188 1479q14 -4 41 -7.5t53.5 -5.5t50 -5t34.5 -9q2 -2 2 -12q0 -16 -9.5 -35t-9.5 -29q0 -4 2 -6q41 -20 63.5 -57t34 -78t15.5 -79t10 -58q20 -20 32.5 -39t22.5 -29q0 -20 6.5 -32.5t6.5 -22.5q23 23 34 47.5t21 34.5q0 20 7 38.5t7 28.5q20 41 32.5 86t28 88t38 83 t63.5 71q39 0 51.5 -9t30.5 -18l14 13h82q10 0 20.5 9t20.5 19h27q10 -10 12 -20t2 -21q-31 -23 -61.5 -42t-61.5 -40l13 -14q31 31 58.5 43t78.5 12q-10 -31 -15.5 -68.5t-25.5 -68.5q-18 -10 -19 -28q0 -6 2.5 -13.5t2.5 -11.5q-20 -10 -40 -38t-35.5 -58.5t-24.5 -58 t-9 -35.5q-39 -23 -53 -56q-31 -61 -46.5 -123.5t-35.5 -134.5h-33q4 -20 4 -28q-16 -10 -16 -29q0 -10 5 -21.5t11 -17.5q-12 -8 -19 -28.5t-12.5 -46t-7.5 -54.5t-2 -53v-50q-10 -10 -20 -21t-21 -34q0 -35 6.5 -68.5t14.5 -66.5t14 -66.5t6 -70.5q-41 -10 -101.5 -26.5 t-101.5 -26.5q-23 20 -41 31.5t-28 21.5q0 23 2 42t12 40q-27 16 -36 49t-9 72q0 59 12.5 117.5t18.5 88.5q-10 16 -11 32t-1 32v18q4 59 25.5 100.5t33.5 90.5h-18q-10 0 -14.5 -8.5t-14.5 -18.5l-27 12q-10 10 -20.5 14.5t-20.5 14.5q10 20 21.5 40t34.5 40l-15 14 q-10 -31 -26.5 -42t-67.5 -11q-31 29 -53.5 67t-42.5 68q10 4 10 17q0 10 -8 20t-17 19q6 6 7 20q0 18 -8.5 43t-19.5 49.5t-20.5 46t-11.5 31.5q0 20 6 31.5t6 21.5q-31 61 -60.5 110.5t-59.5 121.5q25 0 46 6t39.5 14t37 14.5t38.5 6.5zM379 963q-10 0 -19 -9q-2 -2 -4 -3 t-4 -3q0 -10 -1 -13t-11 -13h-41q0 6 -2 8l-12 18h-15q10 -31 22.5 -46t33.5 -36q20 31 36.5 52.5t16.5 44.5zM516 49q10 0 28.5 7t39.5 7v82q-20 -23 -36 -42t-46 -40zM592 524q2 2 20 2q0 10 6.5 20.5t6.5 20.5h41v-28h14q0 23 -2 44t-12 52q-16 -20 -28.5 -37.5 t-23.5 -34.5q-8 -12 -12 -19zM639 772v-41q10 0 20.5 6t20.5 6l41 68q-23 -10 -42.5 -19.5t-39.5 -19.5zM311 1343q-20 -10 -26 -18t-27 -8l27 -41h-27v-29h27q16 39 21 54.5t5 25.5v16zM836 1204q2 2 20 2q0 10 9 19.5t20 9.5q10 0 19 6t20 6v-26h14q8 14 14 27.5t6 23.5 t-6 16q-23 -16 -42 -29.5t-36 -23.5q-8 -4 -16 -10t-16 -11q-6 -4 -12.5 -8t-10.5 -8q9 6 17 6zM270 1221q-10 0 -20 -13.5t-21 -13.5l15 -55q10 10 15 27.5t26 27.5q0 10 -2 12q-3 15 -13 15zM434 131q20 10 26.5 20.5t28.5 20.5v53q-6 -8 -11 -14t-9 -10 q-16 -23 -20.5 -35t-14.5 -35zM733 963q23 10 35 20t35 21l12 38q-16 -10 -24 -18q-23 -16 -32.5 -27t-25.5 -34zM829 1124q31 10 39.5 12.5t28.5 2.5l14 41q-10 0 -20 -8.5t-21 -18.5h-14zM530 676q20 20 26.5 23t27.5 3v56q-10 -10 -13.5 -20.5t-13.5 -20.5h-14zM299 1030 q-23 -10 -27 -12t-14 -2l12 -41q0 10 7.5 14t7.5 15h14v26zM788 1098l15 -15l12 29q-10 0 -13.5 -2t-13.5 -12zM311 1071h-12v-27q10 0 11 2t1 25zM844 1044v13h-15q-2 -2 -6 -5t-8 -8h29zM516 227v13h-14q-6 -10 -13 -13h27zM571 471h13v29zM461 989v-26q10 10 10 12 q0 4 -3 6t-7 8z" />
<glyph unicode="Z" horiz-adv-x="1105" d="M956 1210h-53q0 -10 1 -20t11 -21q-20 -31 -38.5 -61.5t-28.5 -60.5q2 4 3 3t-13 -36q-8 -25 -21.5 -56.5t-28 -61.5t-24.5 -50.5t-12 -20.5v2q-20 -41 -39 -72.5t-29 -62.5q-10 -20 -18.5 -42.5t-8.5 -53.5q-41 -72 -76.5 -158t-86.5 -168q35 4 84 6.5t104 2.5 q86 0 165 -10.5t124 -39.5q20 20 37 21q29 0 45 -62q-10 0 -13 -8q-2 -2 -2 -6q-10 -10 -13 -11t-13 -1q-10 -31 -7 -69t-8 -68q-12 -4 -22 -5q-16 0 -26.5 9.5t-33.5 9.5v-55h-12v-15l-14 -12v-14q-41 0 -94.5 16t-83.5 39q-10 -10 -13.5 -27.5t-13.5 -27.5h-27 q-23 0 -51 6t-45 20q-4 4 -4 8q0 8 10.5 20.5t21.5 26t21.5 26.5t10.5 22q0 4 -5 8q0 -6 -25.5 -23.5t-55.5 -38.5q-18 -10 -39 -22t-43 -27h-56v15q-12 0 -18 6q-4 2 -5 4t-3 4q0 -10 -6.5 -20.5t-6.5 -20.5v-14q-14 0 -14 14l-96 -14q-16 10 -38 14t-44.5 5t-44 2t-35.5 5 q-10 23 -14 35t-15 35l41 123l15 12l12 14l-12 15v26h-15q6 20 24.5 49t40 60t42 59.5t31.5 48.5q31 10 35.5 36t4.5 46q20 10 46 46t50.5 80t43 85t22.5 62q23 10 35 28.5t35 38.5q14 31 30.5 74t35 89t36 90t33.5 75h-27v14q-23 20 -43 21q-25 0 -53 -21q-41 10 -90 18.5 t-100 8.5q-16 -6 -38 -9t-43.5 -7t-40 -9.5t-28.5 -15.5q-10 20 -21.5 38.5t-33.5 29.5q14 31 14 49q0 10 -7 15t-19 15q2 6 4 13.5t4 15.5q6 18 11 56t34 67l82 -27q20 0 54 3.5t69 3.5t68.5 -6.5t54.5 -26.5q41 6 77.5 23.5t77.5 17.5q33 0 62 -15q18 18 163 41v-26h68 q-16 -18 -24.5 -31.5t-12.5 -13.5q-2 0 -2 4l-29 -41v-15q10 0 20.5 -2t20.5 -12q0 23 14.5 53.5t26.5 42.5q6 -23 9.5 -61.5t3.5 -77.5q0 -41 -3.5 -74t-9.5 -45zM643 10q2 -2 4 -2q10 0 39 17.5t63.5 39t68.5 39t56 17.5q14 27 15 37q0 14 -15 14q-4 0 -6 -1t-6 -1 q-10 -4 -24.5 -9t-30.5 -14q-14 -6 -40 -27.5t-52.5 -46t-37.5 -33.5zM412 502q-10 -10 -20.5 -27.5t-20.5 -28.5h-41q0 10 7 20.5t7 20.5h-14q-41 -66 -41 -108q27 20 49 38.5t41 35.5q8 8 15 14l14 12l22 23h-18zM453 610q-31 -10 -39 -12t-29 -2l-27 -68q10 10 26.5 21.5 t27.5 34.5h14zM602 842q-20 -10 -39.5 -25.5t-42.5 -15.5l-26 -68zM616 1319q10 -10 13.5 -20.5t13.5 -20.5v27q-10 0 -13.5 7t-13.5 7zM180 1319h15q6 0 6 4t-3 9t-3 14zM623 1343q2 2 8 3q0 10 -8 12q-6 2 -7 8v-31q1 4 7 8zM508 666h-14l-15 -29zM479 733l-12 -14h12 l15 14h-15zM98 203q0 6 -2 8l-4 8q-2 2 -6 10l27 -26h-15zM711 1106h2q4 0 12 8h-20l4 -4zM303 297v14l-14 -14h14zM113 1346v-3q-2 -12 -15 -24z" />
<glyph unicode="[" horiz-adv-x="624" d="M180 -387v12q0 14 -10 15v14h-12q0 -47 -35 -47q-14 0 -29 6l-2 -2q-4 0 -4 12q0 6 1 14.5t1 18.5q0 16 -2 30.5t-12 20.5q0 10 4 27.5t4 38.5v41h-8q0 10 -1 12t-12 2q10 10 13 10q2 0 8 -10q6 16 13 30.5t14 14.5q2 0 6 -4v27l-23 14q-2 2 -3 4t-3 4q-4 20 -4 19h-8 q6 20 8 45.5t10 48.5q0 47 10.5 124.5t10.5 143.5q0 49 -9 68q6 68 7 147q0 106 -6.5 220t-6.5 218q0 76 6 142q6 0 7.5 4t5.5 10l-13 8q-4 2 -7 4t-7 4q-8 12 -11 28.5t-4 44.5t-1 70t-4 103q16 6 16 31q0 10 -2 19.5t-2 15.5t4 6h4q10 2 17.5 3t11.5 1q37 0 37 -35h12v10 q4 0 6 2t4 3t2 6v10l336 6q6 -6 12 -6t11.5 3t9.5 3q8 0 10 -6t12 -6q0 -23 1 -50.5t10 -50.5q-16 0 -26.5 -11t-27.5 -19q4 -16 8.5 -32t8.5 -26t6 -19t2 -11l-2 2q-2 2 -6 14l-62 10q-16 20 -37.5 26.5t-44.5 6.5q-25 0 -47 -4t-37 -4q-14 0 -16 6l14 -129q2 -10 2 -18.5 v-16.5q0 -45 -18 -57q0 -90 1 -172t3 -163t7 -164t14 -173v-29q0 -25 -2 -57.5t-4.5 -65t-4.5 -61.5t-2 -45q20 -27 21 -57q0 -16 -4 -32l-8 -32h-11l6 -176q8 18 23 18q14 0 29.5 -11t33.5 -11q12 0 24.5 7t29.5 30l53 -54v-14l-12 -14q16 -10 33.5 -17.5t33.5 -7.5 q-6 -29 -7 -65.5t-1 -67.5q-10 0 -12 -7t-10 -7q-4 0 -9.5 3t-11.5 3t-12 -6zM203 1260q0 4 -6 14q-6 6 -7 12l-10 -18z" />
<glyph unicode="\" horiz-adv-x="653" d="M592 -14q-41 0 -79 6t-77 6q-41 129 -70.5 245.5t-72.5 245.5q-8 29 -22.5 49.5t-22.5 43.5q-10 25 -25.5 78t-34 111t-39 107.5t-40.5 65.5q0 4 -1.5 18.5t-5.5 31t-10 31.5t-16 22q-16 59 -31.5 125.5t-30.5 132.5q4 2 21 2q31 0 55.5 -25t46.5 -65l2 10 q-29 41 -55.5 78.5t-52.5 76.5q0 18 -4 37t-4 35v6h24q10 -10 18.5 -20t16.5 -31q18 8 32.5 10t24.5 2h11q10 -10 12 -17t10 -7q12 29 13 48t30 30q41 -63 70.5 -141.5t54.5 -161t46.5 -164.5t45.5 -156q4 -39 12.5 -69.5t18.5 -59.5q10 -43 31.5 -104.5t44 -128t40 -131 t17.5 -113.5q0 -37 -8 -53q10 -29 23.5 -59t23.5 -58q-10 -20 -21.5 -46t-21.5 -44zM543 76q2 2 2 12v14q-37 29 -60.5 65t-62.5 64l59 -143h11q10 0 23.5 -2t27.5 -10zM256 969q-18 29 -52 69.5t-71 100.5q-6 -18 -6 -35q0 -29 9 -54.5t14 -54.5h14v2q0 10 -5 22.5t-5 22.5 v5h39q10 -18 18 -36t18 -28q0 -10 8.5 -12t18.5 -2zM385 528q-12 20 -20.5 32.5t-17.5 29t-24.5 41t-41.5 67.5h-15l13 -39h12l20 -77q20 -10 39 -27t35 -27zM260 827l-24 52l-13 -13q-8 18 -19 36t-28 28l35 -78q10 0 15 -3.5t34 -21.5zM307 762q-23 35 -22 35v-9l10 -26 h12zM342 918v10q0 12 -2 14l-12 8l2 -4q2 -4 5 -11t7 -17z" />
<glyph unicode="]" horiz-adv-x="622" d="M444 1458v-12q0 -14 11 -14v-15h12q0 47 35 47q12 0 28 -6l2 2q2 0 3 -12v-35q0 -16 2 -30.5t12 -18.5q0 -10 -4 -27.5t-4 -38.5v-41h8q0 -10 1 -12t11 -2q-10 -10 -12 -10q-4 0 -8 10q-6 -16 -13.5 -30.5t-13.5 -14.5q-2 0 -6 4v-26l22 -15l5 -8q2 -4 4 -9t2 -9h8 q-6 -20 -8 -46t-11 -49q0 -25 -3 -56.5t-7 -68t-7 -73.5t-3 -70q0 -49 8 -67q-6 -68 -6 -148q0 -111 6 -223.5t6 -216.5q0 -76 -6 -140q-6 0 -7 -4t-5 -10l12 -8q4 -2 7 -4t7 -4q8 -12 11.5 -28.5t4.5 -44.5t1 -70t4 -103q-10 -4 -13 -12t-3 -19q0 -10 1 -19t1 -16 q0 -8 -2 -8t-2 1t-3 1q-10 -2 -17 -3t-11 -1q-37 0 -37 35h-12v-10q-4 0 -6 -2q-6 -4 -7 -8v-11l-336 -6q-6 6 -12 6t-11 -3t-9 -3q-8 0 -10.5 6t-12.5 6q0 23 -1 50.5t-9 50.5q16 0 26.5 11t26.5 20q-6 16 -10 31.5t-8 25.5q-8 18 -8 29q2 0 10 -15l61 -10q16 -20 38 -26.5 t44 -6.5q25 0 47.5 4t36.5 4q12 0 17 -6l-15 129q-2 10 -2 18.5v16.5q0 45 19 57q0 88 -1 170t-3.5 164t-7.5 165t-13 173q-2 6 -2 39q0 25 2 56.5t5 62.5t5 57.5t2 42.5q-12 14 -16 27.5t-4 28.5q0 16 4 32.5t8 32.5h10l-6 176q-10 -18 -22 -18q-14 0 -29.5 11t-34.5 11 q-12 0 -25.5 -7t-27.5 -30l-53 54v14l12 14q-16 10 -33.5 17.5t-34.5 7.5q6 29 7.5 65.5t1.5 67.5q10 0 12 7t10 7q4 0 9 -3t12 -3q6 0 12 6zM422 -188q0 -6 6 -15l6 -12l10 18z" />
<glyph unicode="^" horiz-adv-x="1075" d="M197 594q-27 0 -45.5 6t-36 14.5t-36 16.5t-42.5 12q25 63 55.5 116.5t54.5 125.5q0 8 -8 21.5t-8 27.5q4 4 8 14t11 25q12 25 30 24q6 0 13.5 -2t11.5 -2q18 0 22 23v14q0 20 -8 27q10 10 22.5 24.5t12.5 24.5q0 4 -4 8q12 29 32.5 69t47.5 79q6 66 20 65q4 0 6 -2 q10 -8 17.5 -19.5t15.5 -25.5l10 12q-8 23 -19 43.5t-26 42.5q0 6 10.5 19.5t24.5 19.5h29q14 -6 15 -15t1 -16h49q25 18 86 27q35 8 74 8q10 0 20.5 -1t20.5 -3q12 -35 20.5 -66.5t20.5 -65.5t30.5 -67.5t51.5 -70.5q12 -14 25.5 -25.5t25.5 -23.5q8 -16 18.5 -45 t24.5 -60.5t31.5 -59.5t38.5 -38v-12q0 -14 2 -25.5t12 -21.5q25 -29 39 -68t14 -78q-45 0 -70.5 15.5t-54.5 44.5v-11q23 -23 49.5 -44t59.5 -42v-41h-49q-8 8 -12.5 15.5t-16.5 15.5q-10 -4 -18 -4h-19q-16 0 -27.5 2t-15.5 2q-6 0 -12 6l-4 4q-25 -12 -34 -26.5 t-46 -14.5q-41 37 -64.5 82t-39 91t-26.5 91.5t-30 84.5q-10 14 -13 29.5t-3 27.5v10q-10 25 -22.5 47.5t-24.5 52.5q-12 -18 -13.5 -32.5t-1.5 -26.5q-12 -14 -25 -33.5t-22 -36.5q-14 -25 -21 -64.5t-18.5 -81.5t-31 -81t-58.5 -61q-8 -8 -8 -13q0 -2 1 -3t1 -3l6 -24 q4 -12 10.5 -24.5t6.5 -20.5q-14 -6 -39 -10.5t-51.5 -7.5t-50 -5t-33.5 -6zM803 885q-10 0 -25 8q10 -12 25.5 -23.5t32.5 -21.5q35 -25 65 -60q23 16 23 33q0 12 -7.5 22.5t-15.5 22.5h-10v-10q0 -2 10 -8q-12 -4 -14 -4q-6 0 -13.5 2t-15.5 2q-12 6 -22.5 14t-10.5 23 h-22zM698 1137q12 -14 19.5 -22.5t15.5 -18t22.5 -21.5t41.5 -35h28l-18 21h-10l-21 37q-25 6 -40 19.5t-38 19.5zM307 752q0 4 -1 12t-3 18l-12 43h-35v-8q12 0 14 -1t2 -9l-16 -41q29 -6 34 -14.5t17 -20.5v21zM573 1350q14 -14 22.5 -29.5t35.5 -28.5l-25 78l-10 4 q-20 4 -23 4v-28zM272 895q-10 6 -14 24.5t-12 32.5l-21 -67q16 0 26.5 -10.5t20.5 -18.5v39zM825 934l17 8q8 -14 23.5 -22.5t25.5 -16.5l-19 39q-12 0 -20 1t-14.5 4t-15.5 8.5t-25 15.5zM682 913q0 -8 2 -10t14 -8q0 6 -1 8t-15 10zM776 983v16h-16z" />
<glyph unicode="_" horiz-adv-x="1210" d="M1047 -70q8 0 100 -41q0 -31 -23.5 -46t-44.5 -36h15q10 -20 11 -39.5t1 -41.5q10 -10 20.5 -13.5t20.5 -13.5v-27q-10 -10 -28.5 -14t-39.5 -14q-23 45 -32 47l-13 -13q18 -27 21 -24q4 4 4 -37q-63 -10 -90 -18q-25 -8 -101 -9q-6 12 -26 13q-20 0 -42 -6.5t-26 -6.5 q-23 18 -86 24.5t-133 6.5h-18.5t-36.5 -2q-23 -2 -40.5 -2h-27.5q-20 10 -41.5 18.5t-52.5 8.5q-12 2 -15.5 3t5.5 1h14l-20 -3q-19 -3 -51.5 -7.5t-76.5 -9.5t-94 -11q-10 51 -20 94t-21 84q14 10 19.5 26.5t6.5 34t3 34t12 26.5q14 0 38 -6t49.5 -14.5t49 -14.5t39.5 -6 q-27 25 -23.5 33t75.5 8q6 0 90 -6q86 -6 137 -6q-10 10 23 12q16 0 65 -1t133 -3q76 -25 271 18zM774 -233q10 -10 13.5 -18.5t13.5 -8.5q10 -10 27.5 -13t27.5 -14q10 -10 11 -20t1 -21h-53v-14q41 0 80 3t70 24q-61 23 -105.5 47.5t-85.5 34.5zM225 -266q20 -23 39 -29 t29 -27h82v-14h28v14q-41 16 -64.5 24.5t-40.5 13.5t-32.5 8.5t-40.5 9.5zM637 -274q31 -31 36 -37t5 -17h82q-20 10 -33.5 13.5t-34.5 13.5v14zM569 -246v-28h41q0 10 -5 14t-36 14z" />
<glyph unicode="`" horiz-adv-x="491" d="M264 1233q-16 16 -28.5 27.5t-18.5 17.5l-16 16q-4 4 -8.5 7.5t-20.5 15.5t-49 42t-96 89h18q29 0 33 -4h2q0 6 2 8q-18 8 -19 16q0 2 3 2l2 3q-2 2 -17 8l-8 20t-4 21q0 10 2 12l29 2l45 -33q20 2 41.5 3t42.5 3l8 -18q8 25 40 28t56 15q47 -74 70.5 -124t29.5 -89 q8 -14 20.5 -34.5t29.5 -31.5v-2q0 -14 -20.5 -18t-49.5 -4q-25 0 -50.5 1t-45.5 1h-23zM279 1466l-13 -2h-4l47 -32z" />
<glyph unicode="a" horiz-adv-x="946" d="M414 -29q-14 4 -28.5 8.5t-31.5 8.5q-4 2 -10 6q-10 8 -16 29q-4 2 -8.5 2t-12.5 2q-4 -10 -13 -12.5t-20.5 -1.5t-20.5 3t-15 0q-10 -10 -37 1.5t-58 21.5q-4 14 -10 28.5t-10 28.5q-18 53 -41 120t-33 149q6 45 21 71q18 31 75 84q61 55 64 58l10 -9q53 51 110.5 64.5 t139.5 13.5q20 10 23.5 14.5t3.5 14.5q20 10 39.5 18t42.5 8v41q-6 31 -7.5 55.5t-3.5 42t-8 28t-22 14.5q-31 8 -61 14t-75 21q-10 0 -20 -6.5t-21 -6.5q-2 -10 -4 -19t-4 -20q-4 -18 -6 -43.5t-12 -66.5h-21.5t-36.5 -2q14 2 -8 16q-10 6 -37 4q-27 -16 -67.5 -15 t-100.5 11q0 45 7.5 78t21.5 60.5t34.5 55t45.5 62.5q29 31 61.5 52.5t73.5 41.5q57 10 117.5 25.5t120.5 15.5q23 0 43 -2t43 -10v-14l149 -68q4 -20 11.5 -31.5t15.5 -21.5q4 -4 10 -9.5t10 -9.5q6 -6 -45 -4q76 -47 66 -71q23 -49 18 -91q0 -18 -6 -63q-4 -47 -20 -43 q0 -104 -6 -76q6 -59 9 -100t5 -69.5t2 -46v-30.5q0 -29 -10 -53q-2 0 10 -6q-4 -66 -10 -27q-6 -76 -21 -92l12 -35l17 -41h26q0 -41 1.5 -80.5t11.5 -80.5h-86q-33 0 -66 4t-62.5 15t-51 32.5t-31.5 56.5h-41q-20 -20 -34.5 -37.5t-28 -33t-30.5 -29t-42 -23.5zM375 162 q12 6 22 6t19.5 -3t25.5 -3q10 10 27.5 26.5t40.5 26.5q25 41 38 81t20 83t8.5 89t1.5 99q-4 0 -8.5 1t-10.5 1q-23 0 -53.5 -7t-61 -20.5t-54 -35t-30.5 -47.5q-47 -25 -58 -50.5t-11 -68.5q0 -14 1 -31.5t1 -38.5q10 0 13 -2t13 -12q-10 -20 -18 -31.5t-8 -21.5l14 -15 q39 -10 48.5 -14t19.5 -12zM549 1053q23 0 34 17t21 38q-20 0 -38.5 6t-28.5 6v-20q0 -16 1 -23.5t11 -23.5zM684 68q10 0 20.5 6t20.5 6q-10 10 -11 21.5t-1 33.5q-23 -10 -34 -12t-22 -2v-27q0 -10 8.5 -13t18.5 -13zM698 553q10 10 20.5 12t20.5 2q0 20 17.5 55t29.5 107 q-35 -51 -56 -82t-25 -41t-10.5 -19t-10.5 -20q4 0 6 -2q8 -2 8 -12zM442 999l13 27q-20 0 -31.5 -1t-22.5 -11v-15h41zM766 53v15q-8 8 -15.5 10t-11.5 10v-35h27zM752 371q31 31 37 36t16 5l10 88q0 59 -18 2q-18 -55 -19 -76h-26v-55zM737 317h27l-12 27 q-10 0 -12.5 -3.5t-2.5 -23.5zM223 514q-20 -10 -39.5 -25.5t-42.5 -15.5l-26 -67zM213 403l-14 15h-15q-14 -41 -22 -64.5t-12.5 -40t-8.5 -32t-10 -39.5q20 20 26.5 38.5t26.5 28.5v82h29v12z" />
<glyph unicode="b" horiz-adv-x="980" d="M375 1053q8 0 11 -3t7 -3t10 6q4 29 8.5 36t14.5 7q4 0 12 -1t19 -1v-13q10 -10 13 -12t13 -2q6 14 9.5 23.5t8.5 14.5t13 8t25 7v-26l12 -13q20 10 23.5 14.5t3.5 24.5h28l27 -26q14 14 31 14q18 0 37.5 -14.5t36 -34t27.5 -40t15 -34.5q25 -4 39.5 -11t23.5 -18.5 t16 -28t18 -36.5q23 0 22 -45q0 -12 -1 -27.5t-1 -32.5q0 -27 5 -49t28 -35q0 -31 3 -48t23 -46q-10 -25 -11 -53.5t-1 -58.5v-37l-14 -15q-10 -66 -12.5 -91t-2.5 -34v-10h15l-15 -121h-12l-16 -32l-13 -23l-16 -27q-4 -8 -9 -17t-13 -21q-35 -10 -85.5 -30t-93.5 -20 q-25 0 -39 9l-40 -41q-10 0 -19.5 7t-19.5 7q0 -10 -15.5 -14t-25.5 -15q-31 31 -56.5 35t-45 7t-35 16.5t-25.5 64.5v-94q-41 -10 -82 -14t-82 -15q-20 23 -32.5 48.5t-35.5 48.5v120q-23 31 -29.5 89.5t-6.5 128.5q0 92 8 185t16 152q-10 29 -12 62t-2 74q2 27 3 54.5 t1 55.5q0 68 -3 139.5t-3 143.5t6 136.5t22 117.5q31 0 46.5 -24.5t35.5 -55.5v27q20 10 40 12t42 2q0 10 8.5 19.5t18.5 19.5h27q0 -10 2 -27.5t12 -40.5q-23 -41 -42.5 -81t-39.5 -81l14 -12q20 41 37 67.5t57 26.5q10 -72 18.5 -142.5t8.5 -141.5q-10 0 -12 -9t-2 -32z M524 135q10 6 14.5 9t20.5 3h33v27h14v14h27v27q0 23 1 44.5t11 37.5h14v109q0 20 2.5 41.5t12.5 52.5q-8 16 -10 33.5t-2 37.5q0 37 6 77t6 81q-10 31 -14.5 54.5t-14.5 54.5l-27 26v41q-41 14 -77 15q-29 0 -53.5 -8.5t-57.5 -20.5q0 -72 -15.5 -134.5t-25.5 -121.5 q0 -20 2 -47t12 -47h13q-29 -55 -36 -103.5t-7 -99.5q0 -23 1 -46.5t1 -49.5h14q10 -20 13.5 -32.5t13.5 -35.5h14v14h12v27q10 10 15 10q4 0 6 -3t8 -7l12 -12q10 -10 12.5 -22.5t2.5 -33.5q10 0 13 -1t13 -11zM227 1014q6 0 9 2l8 4q2 2 10 6q0 20 7 33.5t7 34.5h39v-54 h15q0 41 -2.5 81t-12.5 81q-29 -72 -49.5 -115.5t-30.5 -72.5zM201 80q10 0 26.5 7t26.5 7l14 148q-20 -29 -35.5 -73t-46.5 -75q1 -14 15 -14zM227 553q10 10 21.5 27.5t32.5 27.5v80q0 6 4 6h2q2 -2 4 -3t4 -3v41h-14q-16 -45 -25.5 -69.5t-13.5 -42t-7.5 -31t-7.5 -33.5z M254 864q31 20 37 25.5t16 15.5v80q-10 -20 -13 -32.5t-13 -34.5h-13zM768 121q31 31 49.5 57.5t18.5 77.5q-12 -31 -34 -55.5t-22 -65.5h-12v-14zM821 580q14 27 22.5 41t13.5 25t9 22.5t11 33.5h-15v-14h-14q0 -20 -6 -39.5t-6 -40.5h-15v-28zM348 782h14q0 10 6.5 22.5 t6.5 33.5h-13v53q-10 -31 -12 -54.5t-2 -54.5zM842 301q4 12 5 21.5t1 17.5v25q-10 -10 -12 -43v-48q2 21 6 27zM240 797h14v26q-10 0 -12 -3t-2 -23zM727 567l14 41h-14v-41zM686 203h14v33q-2 -4 -4 -7.5t-4 -7.5q-6 -10 -6 -18zM606 68q20 10 23.5 13t3.5 13 q-10 0 -13.5 -8t-13.5 -18zM147 979q0 -6 5 10z" />
<glyph unicode="c" horiz-adv-x="935" d="M426 -41q-10 10 -26.5 19.5t-26.5 9.5q0 20 2 24t12 15v14q-20 -10 -24.5 -18.5t-4.5 -18.5v-4q-29 0 -38 10t-29 31h-53v27q-20 0 -37 -3.5t-27 -3.5q-12 0 -18 7l14 67q-86 14 -86 76q0 29 18 59q-16 86 -30.5 162t-14.5 156q0 18 1 36.5t3 39.5h-12q10 29 19.5 51 t19.5 43q0 4 -6 10q-2 2 -6 2v55h12q6 25 20.5 56.5t36 59.5t49 48.5t58.5 24.5q0 10 6 27.5t6 27.5q14 0 27 6l26 12q25 10 37 11q14 0 19 -2q0 -10 7 -20.5t7 -20.5q10 31 23.5 42t44.5 11v-53h26q10 31 21.5 52t32.5 42h108l78 -43q27 -14 47 -28.5t36.5 -34t30 -46 t25.5 -63.5h27q-10 -23 -18.5 -42.5t-8.5 -39.5q10 -25 10 -55q0 -35 -11 -70t-28 -63h-38q-10 25 -32 33t-46.5 9t-48 1t-37.5 10q-4 35 -12.5 72.5t-23.5 68.5t-40 51.5t-59 20.5q-12 0 -25.5 -2t-28.5 -8q-16 -16 -34.5 -31t-34 -31t-26.5 -34.5t-11 -39.5q0 -20 12 -41 q0 -10 -7 -28.5t-7 -38.5q10 -35 15 -78t5 -84t-5 -81t-15 -68h-13q-10 -10 -12 -19.5t-2 -19.5h-14q0 -23 17.5 -45.5t37.5 -22.5q0 -23 8 -44t19 -52h14v-12q10 0 13 -8.5t14 -18.5q72 0 109.5 27.5t78.5 78.5q0 51 2 93.5t12 83.5l27 26q6 0 11 -1t12 -1q41 0 71.5 8 t53.5 8q29 0 42 -23.5t13 -96.5q12 -29 12 -58q0 -51 -21.5 -99t-31.5 -87q-4 0 -18.5 -6t-32 -15.5t-37 -18.5t-33.5 -15h-27q-25 0 -49 -2t-47 -11q-41 -10 -72.5 -21t-62.5 -34zM188 616q-10 0 -13 -2t-13 -12v-53q-10 -10 -20.5 -12t-20.5 -2q0 10 -7.5 27.5t-7.5 27.5 h-12q10 -41 16.5 -76t36.5 -76q10 61 25.5 104t15.5 74zM322 956l14 -41h-14v-26h14q16 59 21 83.5t5 45.5v20q-20 -21 -40 -82zM137 741q-20 -31 -25.5 -36t-15.5 -5l15 -82v11q0 12 1 26.5t11 30.5h14v55zM819 764h-14v-41q10 0 12 5t2 36zM537 1116v-41q10 10 10 17 q0 4 -3 9t-7 15zM211 274q10 10 16 27.5t27 26.5l-8 82h12l2 41l-27 2q-12 -59 -15 -85t-5 -51zM694 408q-10 0 -21 -20.5t-32 -20.5l27 -111q10 23 13 51.5t13 59.5v41z" />
<glyph unicode="d" horiz-adv-x="968" d="M635 49q-6 -2 -19 -14q-10 0 -20 7t-21 7q-4 -20 -7 -29.5t-8 -12.5t-14 -5t-24 -6q0 10 -2 13t-12 14h-12q-10 -20 -22.5 -30.5t-33.5 -10.5v26l-12 15q-23 -20 -27 -25.5t-14 -15.5h-14l-27 26q-14 -14 -33 -14q-18 0 -37.5 12t-37 29.5t-31.5 36t-23 30.5 q-41 20 -57 38t-37 59q-20 0 -20 34q0 18 3 44t3 51q0 20 -5 36.5t-22 22.5q0 41 -3 57.5t-23 36.5q0 29 3 54.5t3 52.5t-6 55h12q6 51 9 79t5 40t5 14t7 2l-12 15v108h27l16 40t12.5 26.5t14.5 22.5t24 32q16 8 39 18.5t47.5 19.5t49 16t47.5 7q18 0 34 -6q0 10 8.5 19.5 t18.5 19.5q41 0 41 -26q10 10 26.5 18t26.5 8q25 -31 47.5 -34t42 -4t35 -12t25.5 -56h12v26h14q0 111 -7 229.5t-7 229.5q41 10 80 20.5t70 20.5q20 -31 39.5 -52.5t39.5 -41.5q0 -31 -6 -61.5t-6 -61.5q23 -37 30 -102.5t7 -141.5q0 -92 -5 -180t-5 -143q0 -31 7 -60.5 t7 -60.5q-4 -35 -4 -68v-67q0 -51 1 -103.5t1 -103.5q0 -86 -7 -168t-32 -154q-31 10 -44 30.5t-23 51.5q0 -10 -7.5 -13t-7.5 -13h-67q-10 -20 -13.5 -33t-13.5 -23h-27q0 23 -7 42.5t-7 39.5v10q-2 -8 -8 -10zM616 319q0 -10 7 -10q8 0 8 10q2 2 2 7v2l-4 6q-4 12 -4 6 q0 2 6 6l-15 27q4 2 7.5 2t7.5 2v92h12v27q12 18 12 73q0 31 -3 67t-7 72.5t-8 72.5t-6 65q-14 -8 -29 -8q-12 0 -12 22h-15v10q0 12 -2 26.5t-10 31.5h-14v-27l-14 12v-39h-39q6 6 6 11q0 4 -3 6t-3 10h-15q0 10 -2 20.5t-12 20.5q-10 0 -11 2t-1 25q-20 -10 -28.5 -12.5 t-39.5 -2.5l-14 -26h-13v-27h-14q0 -20 -7 -47t-7 -47q-10 -10 -15 -10q-2 0 -12 10q10 -31 12 -54.5t2 -54.5q0 -20 -7 -42.5t-7 -51.5q6 -35 6 -67q0 -39 -5 -81t-13 -83q10 -29 19.5 -59.5t19.5 -61.5q10 0 14 -8t14 -19l27 -26q41 -10 80 -11q31 0 62.5 5.5t60.5 17.5 l26 27l-14 28h-12q10 10 13 21.5t13 31.5zM778 1427q-10 -10 -28.5 -13t-38.5 -13v-150q20 41 35.5 80t46.5 70q0 10 -7.5 13t-7.5 13zM670 440q-6 -18 -6 -41q0 -20 3 -42.5t3 -51.5q23 61 47 105.5t35 85.5q-10 -10 -13.5 -12.5t-13.5 -2.5q-10 -20 -13 -38.5t-14 -28.5 q0 -10 -9 -11.5t-19 -1.5v39zM158 522q-16 -25 -24.5 -40t-14.5 -27.5t-12.5 -27.5t-16.5 -40h12v14h15q10 20 13 40t13 40q4 0 7 2q8 2 8 13v26zM211 981q-31 -41 -49.5 -67.5t-18.5 -67.5q10 23 32 50.5t22 57.5h14v27zM657 143v-53q20 31 31.5 60.5t22.5 60.5l-13 14 q0 -59 -41 -82zM143 834q-16 -29 -21 -44.5t-5 -33.5v-31q20 20 23 54.5t3 54.5zM698 616q-8 -14 -13 -21t-7 -9q-4 -4 -5 -6t-3 -5q0 -12 14 -12v27h14l13 53q-6 -6 -11 -18q-2 -4 -2 -9v0zM238 537v-56h14q0 10 -2 21.5t-12 34.5zM737 698l-12 13v-39q10 0 11 1.5t1 24.5z M819 549v-53q10 25 10 26q0 4 -3 10.5t-7 16.5zM268 872l11 -26v41q-4 -6 -9 -10zM360 1036q-10 -10 -12 -15t-2 -15q0 4 6 10q8 8 8 20z" />
<glyph unicode="e" horiz-adv-x="1007" d="M469 -84q-23 10 -27 17.5t-14 35.5q-25 6 -41 9.5t-27.5 9.5t-20.5 16t-20 33h-67q-10 6 -12 20q-2 2 -2 9l-39 18q-8 4 -15.5 9t-13.5 11q-10 18 -11 33t-1 31v18q-20 10 -32.5 18.5t-23.5 8.5q-10 113 -21 202t-32 191q10 31 15.5 48.5t9.5 29.5t7 24.5t9 32.5l-14 13 v41h14q10 82 33.5 139t75.5 117q31 8 60.5 23.5t60 29.5t60.5 24.5t60 10.5q18 0 41 -6q2 2 8 2q14 0 25.5 -16.5t23 -37t23.5 -40t29 -27.5q8 0 25.5 13t38 28.5t39 29t30.5 13.5q4 0 5 -1t3 -1v-129q2 -2 6 -2q12 0 18.5 15t11.5 33.5t11 34t19 15.5q-2 0 10 -4q2 8 8 8 q8 0 19.5 -18.5t24.5 -41t26.5 -42t27.5 -21.5q0 -4 1 -6t1 -4t3 -2q2 0 -0.5 10t-2.5 16q0 8 3 9l10 -11q18 -66 26.5 -121t8.5 -110q0 -33 -2.5 -65.5t-6.5 -67.5q-10 -10 -13 -26.5t-13 -26.5q-10 0 -15.5 -3.5t-25.5 -25.5q-31 0 -60.5 -8t-60.5 -19h-150 q-37 10 -63.5 14.5t-48.5 4.5q-29 0 -57.5 -7.5t-73.5 -23.5q0 -61 15 -123.5t26 -134.5l41 -68h82q51 51 91 104.5t70 125.5h203l-14 -230q-20 -31 -62.5 -57.5t-72.5 -36.5q0 -10 -15.5 -22.5t-34 -23.5t-36 -20.5t-23.5 -15.5q-51 0 -92 -21.5t-82 -31.5zM401 686 q41 0 81 2t81 12q20 0 40 8.5t40 18.5q-10 39 -23.5 83t-35 82t-53 66.5t-76.5 38.5q-10 -20 -20.5 -33.5t-20.5 -33.5h-13l-41 -109q0 -31 1 -62.5t12 -72.5h28zM772 852q31 16 55.5 45t24.5 82v16h-41q-6 -4 -11 -15t-9.5 -22.5t-9.5 -20.5t-11 -9v-13l-41 -92 q10 8 21.5 14.5t21.5 14.5zM756 760h-2q-6 0 -24.5 -12.5t-40 -27.5t-42 -29.5t-29.5 -16.5l95 8zM227 522q-16 -25 -24 -40t-14.5 -27.5t-12.5 -27.5l-16 -40h12v14h14q10 20 13.5 40t13.5 40q4 0 6 2q8 2 8 13v26zM281 981q-31 -41 -49.5 -67.5t-18.5 -67.5 q10 23 31.5 50.5t21.5 57.5h15v27zM727 143v-53q20 31 31.5 60.5t21.5 60.5l-12 14q0 -59 -41 -82zM213 834q-16 -29 -21.5 -44.5t-5.5 -33.5v-31q20 20 23.5 54.5t3.5 54.5zM307 537v-56h15q0 10 -2.5 21.5t-12.5 34.5zM342 854q2 -2 3 -4t3 -4v18q-2 -2 -6 -10z" />
<glyph unicode="f" horiz-adv-x="661" d="M575 1106q8 0 101 -41q0 -12 -25 -27q-10 -8 -18 -8q2 -6 2 -26q10 -10 20.5 -13.5t20.5 -13.5v-27q-10 -10 -28.5 -14t-39.5 -14q-23 45 -33 47l-12 -13q18 -27 21 -24q4 4 4 -37q-61 -10 -60 -18q2 -8 -69 -9q-2 6 -15 11q-4 -66 -6 -117q-6 -68 -6 -119 q10 -31 11 -61.5t1 -59.5q0 -80 7.5 -175t7.5 -187q0 -59 -5 -115.5t-22 -103.5q-20 0 -32.5 7t-19.5 17t-13.5 21.5t-16.5 21.5l-8 -8q-6 -10 -6 -18h-68q-10 -10 -13 -20.5t-13 -20.5h-27q-10 10 -13 28.5t-14 38.5q20 31 40 68t40 67l-12 13q-20 -41 -36.5 -60.5 t-57.5 -19.5q-10 59 -19.5 120.5t-9.5 122.5q10 4 13.5 14.5t3.5 22.5q0 16 -5.5 34t-11.5 24q8 8 14.5 31.5t10.5 53t5 64.5t1 68q0 41 -1 72.5t-1 48.5q10 20 18 41.5t8 52.5v55q-4 0 -6 2q-8 -2 -22.5 -3t-34.5 -5q-35 -4 -56.5 -10t-29.5 -11q-10 51 -20.5 94.5 t-20.5 84.5q16 10 18 -15q6 -25 7 -8q2 18 4 34.5t12 27.5q14 0 37 -7q23 -6 8 -14q-14 -8 31 -14q31 -4 49 -6l2 8q-16 18 -14 24.5t20 8.5l2 10q0 51 -6 101t-6 102l33 20q25 -4 21.5 10.5t-3.5 26.5q0 20 8 36.5t21 28.5q35 25 73.5 41.5t92.5 16.5q12 0 24 -1t27 -3h53 h4q12 2 68 0q57 0 59 -2q2 -4 12 0q6 -37 3 -51.5t-11 -22.5l15 -14v-19q-8 0 0 -8q10 -8 5 -7t-18 -20l4 -12l-4 -14q-16 20 -10 -35q-8 12 -18 8v-6h-68q-51 0 -80 -19.5t-29 -60.5v-96l2 -23q61 4 129 27zM242 1102h14q20 31 33.5 61.5t34.5 61.5l-15 12 q-10 -10 -28.5 -11t-38.5 -1v-123zM297 399q-6 0 -8 -2q-4 -2 -10.5 -4t-10.5 -6q0 -10 -6 -27.5t-6 -27.5q-10 0 -20.5 -6.5t-20.5 -6.5v54h-14q0 -41 2 -73t12 -62q29 49 50.5 88.5t31.5 72.5zM297 819q-23 -20 -34 -37.5t-21 -17.5v-80h-27v-27h27q14 39 22 61.5t13.5 38 t9.5 29t10 33.5zM498 1061q31 -31 36 -37t5 -16h82q-20 10 -34 13t-34 13v15zM256 535l-41 -41l-14 -68q10 10 19 27.5t9 27.5h27v54zM82 991q20 -23 38.5 -29t29.5 -26h24l-12 22v13q-2 2 -8 2q-16 6 -31.5 9t-40.5 9zM283 590h-15v-29q10 0 12.5 3t2.5 26zM418 1116 l-15 41v-14q0 -6 3 -8q2 -13 12 -19zM541 1436q-8 0 -4 -1t18 -3q-4 4 -14 4zM375 434q0 -8 -6 -16q6 6 6 10q2 2 2 14z" />
<glyph unicode="g" horiz-adv-x="997" d="M696 -354q-35 -4 -54 -8.5t-40.5 -8.5t-53.5 -7t-93 -3q0 8 -19 8q-18 0 -49 -5t-59 -5q-23 0 -43.5 6t-30.5 23q-6 -2 -11 -3t-12 -1q-33 0 -61.5 30.5t-63.5 94.5l-14 40q29 20 38 28.5t9 10.5t-7 3t-16.5 4.5t-16.5 13.5t-7 35l82 -27q0 -2 2 -2q4 0 20.5 15.5 t26.5 15.5q2 -2 4 -2h121v-15l12 -12l15 -41l-15 14q-10 -10 -18 -15t-8 -26h26v-40q10 10 20.5 18t20.5 8v27q20 -10 40 -24.5t40 -14.5q35 10 57.5 17t39 16.5t31 26t34.5 46.5q0 59 7 110.5t7 131.5q-18 -20 -40.5 -39.5t-46 -36t-44 -27t-32.5 -10.5q-10 0 -13 7 q0 -12 -10 -13q-10 0 -22.5 6.5t-20.5 6.5q-31 31 -56.5 33.5t-47 3.5t-39 12.5t-31.5 56.5h-12v-27q-51 10 -83 34t-53 73q-10 0 -16 15.5t-10 41t-5 58t-1 67.5q0 72 3 136.5t3 84.5q4 14 6 17l4 14q4 10 7 24.5t9 39.5q-10 0 -26.5 6t-26.5 6q10 20 13.5 31.5t13.5 21.5 q4 35 26.5 80t54.5 90t67.5 82t66.5 57q20 0 31.5 -6t21.5 -6q4 27 8 34t15 7q4 0 12 -1t18 -1q2 -2 3.5 -4t3.5 -4q8 -8 8 -19h26q10 31 16.5 37t37.5 17v-27l14 -12q20 10 24.5 14t14.5 25h26q0 -20 3.5 -23.5t23.5 -3.5q20 20 53 20q39 0 73 -25.5t50 -47.5q4 -2 17 -2 q23 0 42 11t33 11q18 0 27 -20q16 0 16 -39q0 -41 -10 -102.5t-10 -114.5q0 -31 7 -53.5t26 -26.5q0 -29 1 -46.5t11 -47.5v-148q-10 0 -11 -1t-1 -5v-6q-6 -45 -9.5 -69.5t-5.5 -37t-5 -17.5t-9 -11h14l-14 -107h-12q0 -10 -7.5 -21.5t-7.5 -31.5l41 12v-98q0 -57 -2 -89 t-12 -67q-10 0 -24.5 -17t-29 -39t-28.5 -41t-24 -24q29 0 49 6.5t32 6.5t13 -13q-6 -6 -28.5 -29.5t-51.5 -51t-59 -51t-50 -29.5zM469 170q8 8 17.5 10t50.5 2v27h26v14h12q10 31 13.5 54.5t13.5 52.5h14v94q0 20 6.5 41.5t6.5 52.5q-4 10 -4 20.5v20.5q0 45 9 92t9 94 q-10 31 -18.5 62t-8.5 59q-20 0 -25 7.5t-16 7.5v41q-41 14 -79 14q-31 0 -59.5 -8t-61.5 -21q0 -59 -16.5 -120.5t-36.5 -120.5q0 -31 6 -54.5t6 -52.5h14q-29 -55 -36 -99t-7 -91q0 -23 1 -44.5t1 -48.5h15q10 -20 11 -34.5t1 -32.5h26v14h15v27q10 10 20 10q4 0 21 -10 v-14h12q0 -10 2 -21.5t12 -32.5q10 0 13.5 -1t13.5 -11zM643 -328h41q0 4 11.5 15.5t24.5 25t24.5 25.5t11.5 20q0 4 -6 9q0 -10 -30 -19.5t-50 -19.5l-41 -41zM160 209q10 10 20 13t21 14q0 23 1 48t11 46q-20 0 -26.5 -1t-26.5 -12v-108zM213 733h14q16 29 29.5 53.5 t30.5 24.5q8 0 8 -10q10 20 13 31.5t14 21.5h-15l-12 53q-10 -10 -12 -17t-2 -36q-20 -31 -31.5 -48.5t-18 -28.5t-9.5 -20.5t-9 -23.5zM817 49q20 10 26.5 14.5t26.5 24.5q6 33 7 47q0 14 -5 15q-2 0 -2 -7h-12q-10 -18 -20.5 -41.5t-20.5 -52.5zM784 209q25 31 33 67 q-20 -20 -43.5 -48.5t-23.5 -57.5q10 10 19 20.5t15 18.5zM791 598q31 37 42 52.5t21 35.5l16 33h-12v-12h-14l-39 -82zM805 291q14 29 20 43t6 31v32q-20 -20 -23 -53t-3 -53zM643 236h14q10 27 11 26q0 4 -3 6t-8 8q0 -10 -7 -20t-7 -20zM696 586l15 53h-15v-53zM723 143 l27 27h-27v-27zM254 653h14v27zM563 102q10 10 11 13.5t1 13.5q-2 -2 -3 -4t-3 -4q-6 -7 -6 -19zM817 492l12 12q2 2 2 10q-2 -2 -3 -4t-5 -6q-6 -4 -6 -12z" />
<glyph unicode="h" horiz-adv-x="999" d="M266 1513q20 -20 41 -46.5t41 -47.5q0 -31 -7 -61.5t-7 -61.5q23 -31 35 -86t12 -120q0 -45 -6 -91q10 14 21.5 26.5t21.5 25.5v-9q10 4 17 8.5t16 8.5v-15q8 6 17 17.5t20.5 23t22.5 20.5t24 9q10 0 12 -2v-39q29 10 59.5 42t61.5 52v-55q20 0 30.5 -14.5t10.5 -24.5 q12 12 12 29v10q16 4 26.5 7t20.5 3t21.5 -3t27.5 -7v-12q10 0 13.5 -2t13.5 -13v-12h12v-14q23 -39 55 -53q16 4 17 4q16 0 25.5 -16.5t9.5 -32.5q0 -37 -25 -37v-27h27q0 -6 2 -8q2 -12 12 -19h12q-10 -23 -18 -35t-8 -32t-3.5 -53t-8.5 -72t-8 -80t-3 -76q0 -23 2 -42 t8 -29q-4 -23 -6 -50.5t-2 -56.5q0 -72 8.5 -144.5t8.5 -144.5q0 -63 -9 -104q-12 0 -20 -8q-2 -2 -4 -3t-4 -3l-242 26q0 80 4 170t4 182q0 74 -5 147t-17 138v135q-29 10 -29 33q0 20 14.5 39.5t14.5 34.5q-8 8 -14.5 11t-28.5 3h-39q-10 37 -34 53.5t-50 16.5 q-31 0 -60 -23q-16 -12 -24 -33q-29 -41 -29 -127l-14 -14q0 -31 2 -61.5t12 -59.5q-6 -55 -6 -116q0 -10 1 -22.5t1 -23.5l4 -170v-47q0 -72 -6 -141.5t-23 -128.5q-20 0 -31.5 7t-18.5 18.5t-13 26t-16 28.5q0 -10 -2.5 -18.5t-12.5 -8.5q-20 -10 -34.5 -11t-32.5 -1 q-10 -10 -13.5 -20.5t-13.5 -20.5h-27q-10 10 -13 28.5t-13 39.5q20 41 39.5 80.5t40.5 80.5l-13 15q-20 -41 -37.5 -69t-58.5 -28q-10 61 -18.5 136t-8.5 135q12 8 13 29q0 20 -6.5 42.5t-6.5 36.5q8 12 14.5 39t9.5 60.5t4 71.5t1 73q0 47 -1 83t-1 52q10 31 14.5 52.5 t14.5 41.5q0 135 -9.5 264.5t-19.5 264.5q51 0 93 8t83 18zM817 207v14q20 10 31.5 21.5t21.5 31.5h15v150h26q-10 10 -12 20.5t-2 20.5q-31 -41 -36 -82t-5 -82q-29 -10 -41 -42t-12 -52h14zM240 1405q-10 0 -28.5 -7t-39.5 -7v-162q20 41 35.5 87t46.5 75q0 4 -2 6 q-2 8 -12 8zM225 473q-6 0 -8 -2q-10 -4 -18 -12q0 -20 -6.5 -33.5t-6.5 -34.5h-41v53h-26q10 -51 13 -85.5t13 -75.5q31 72 50.5 115.5t29.5 74.5zM803 18v23q0 16 2 29.5t12 42.5q-31 -10 -46 -23.5t-36 -44.5q10 0 13.5 -8t13.5 -19h41zM213 932q-10 -10 -20.5 -26.5 t-20.5 -26.5v-82q-10 -10 -13 -12.5t-14 -2.5v-26h13q20 45 31.5 70.5t16.5 43t6 31t1 31.5zM186 621q-23 -20 -26.5 -25.5t-14.5 -15.5l-14 -80q10 20 18.5 33.5t8.5 33.5h28v54zM682 991q10 10 19.5 12.5t19.5 2.5q0 10 2 26.5t12 26.5q-10 0 -17 -8.5t-36 -59.5zM213 688 h-14v-41q10 0 12 5t2 36zM891 514q6 20 6 31h-12v-64q2 8 3 16.5t3 16.5zM817 938q10 0 13.5 6t13.5 6v27q-10 -10 -13.5 -19.5t-13.5 -19.5zM870 113q10 10 11 12q0 4 -3.5 6t-7.5 8v-26z" />
<glyph unicode="i" horiz-adv-x="446" d="M174 -39q-20 23 -40.5 42.5t-41.5 39.5q0 20 7 41.5t7 52.5q-20 25 -27 65t-7 87q0 74 10 149.5t10 118.5q0 31 -6 54.5t-6 54.5q4 55 3 118.5t2 129t13.5 130t34.5 121.5q31 0 45.5 -23.5t36.5 -43.5v26h80q0 10 8 20.5t19 20.5h28q0 -20 6 -33.5t6 -33.5 q-20 -20 -39.5 -56t-39.5 -67h12q20 31 36.5 49t57.5 18q8 -35 14.5 -74.5t6.5 -78.5q0 -31 -7 -62q-6 0 -6 -16q0 -14 3 -32.5t3 -33.5q-14 -10 -22 -43.5t-12 -75.5t-5.5 -83t-1.5 -66v-14q-10 -23 -18 -42.5t-8 -39.5q-6 -61 -6 -125q0 -66 3 -131.5t3 -134.5 q-41 0 -81 -9.5t-81 -19.5zM317 1489q20 -10 27.5 -7t28.5 -5q0 -23 -2 -34t-13 -22q23 -49 23 -102q0 -43 -8 -74q-41 0 -71 2t-52 13v-15h-68q-10 -10 -18 -13t-8 -13h-41q0 10 -6.5 20t-6.5 21q8 8 9 10l-2 2l-5 2q0 2 11 12l14 41q-16 -16 -15 -24.5t-10 -8.5 q-8 0 -28 6q-8 23 -14.5 43.5t-6.5 42.5q0 16 6 35q12 8 13 19q0 10 -6.5 19t-6.5 18h5q12 0 19 -17.5t11 -40.5q4 -27 6 -57v6q10 10 18.5 20.5t8.5 20.5q2 10 3 16.5t1 10.5q0 12 -10 12h-4q-6 0 -11.5 6t-5.5 35h215zM242 760q10 10 13 11t13 1q0 10 8.5 27.5t18.5 27.5 h27v-41h28v15q0 29 -4 54.5t-24 51.5q-20 -51 -45 -83.5t-35 -63.5zM186 57h68l14 121q-20 -31 -35.5 -59.5t-46.5 -48.5v-13zM227 408q20 10 32.5 27.5t23.5 27.5l12 53q0 10 2 10l2 -2q4 -4 6 -5t4 -3v27h-14q-20 -31 -31.5 -48.5t-17.5 -29.5t-9.5 -24.5t-9.5 -32.5z M238 1380q-10 -10 -21.5 -19t-34.5 -20v-41h-12l-14 -14h26q14 20 22.5 32.5t13.5 22t9.5 17.5t10.5 22zM268 651q31 20 37 23.5t17 3.5l14 67q-10 -10 -18.5 -26.5t-8.5 -26.5h-26zM332 1327q-31 -20 -37 -23.5t-16 -3.5v-36q0 6 6 16q6 8 6 20h26zM242 598h26v27 q-10 0 -13 -3.5t-13 -23.5zM311 1462q-6 -4 -6 -14q10 10 10 14q2 2 2 8l-4 -4z" />
<glyph unicode="j" horiz-adv-x="552" d="M223 227l-14 13q0 27 2 84t2 118q0 57 -3 105.5t-13 68.5q0 8 3 28t3 38t-6 29q0 68 1 137.5t11 130.5q41 0 56.5 -22.5t25.5 -71.5l12 12q-20 41 -53 94t-53 94q0 10 8 15.5t18 9.5t18.5 7t8.5 9h26q10 -10 12.5 -20t2.5 -21q20 0 37.5 -7t27.5 -7v-27q20 31 33.5 56.5 t34.5 25.5q18 -53 23.5 -110.5t5.5 -118.5q0 -41 -1 -84t-1 -90h14q4 -23 6 -47.5t2 -48.5q0 -66 -8 -133.5t-8 -133.5q0 -23 2 -47t6 -47q-10 -27 -10 -67q0 -33 3 -71t8 -74t8 -65.5t3 -43.5q0 -20 8.5 -39t18.5 -29q-10 -10 -13.5 -11t-13.5 -1v-15h-26v-26 q12 0 18 -10.5t6 -22.5q0 -16 -10 -32.5t-29 -16.5q-10 0 -12 2q-10 -10 -26.5 -20.5t-26.5 -20.5v-12h-15v-27h-12v-14q-31 -10 -47 -10q-18 0 -47 10q0 10 -2 20.5t-12 20.5q0 -10 -8.5 -25.5t-18.5 -15.5q-10 -10 -11 -20.5t-1 -20.5q-20 10 -49 41t-60 41v-41 q-2 -2 -12 -2q-18 0 -22.5 18.5t-30.5 36.5l26 68q-29 0 -29 41q0 31 15 79q55 -12 88 -12q35 0 50 9.5t24 17.5q0 10 -12.5 30.5t-12.5 36.5q0 18 25 25v135q10 20 13 47t13 47zM236 1233q-10 10 -21.5 13t-32.5 14q0 10 7.5 26.5t7.5 26.5q-16 23 -17 61q0 23 5 50.5 t12 62.5q29 0 57.5 -1t48.5 -11v12h80q2 2 4 3t4 3q8 8 21 8h26q0 -10 6.5 -13t6.5 -13q-10 -10 -11 -15q0 -4 3 -6t3 -6q0 -6 -8 -14l-14 -39q10 10 12 17t4 12.5t9.5 7.5t27.5 2q8 -23 14.5 -47.5t6.5 -49.5q0 -23 -6 -37q-8 0 -9 -12q0 -2 1 -3t1 -5q4 -12 7 -20 q-12 -4 -11 -5q-8 0 -13 12.5t-8 29t-5 34t-4 27.5v10q-10 -10 -18.5 -20.5t-8.5 -20.5q-2 -6 -2 -18q0 -16 5 -21.5t10 -7.5t10.5 -5t5.5 -18q0 -18 -2 -24q-27 0 -67 3t-81 3q-20 0 -36.5 -1t-30.5 -5zM330 496q0 -31 10 -57.5t31 -37.5q0 -41 9 -78.5t32 -68.5q0 10 1 13 t11 14h-12v147h-29q-10 20 -14 30.5t-25 10.5v27h-14zM301 651l-4 8q-2 2 -6 11q-10 -10 -18.5 -20.5t-8.5 -20.5q20 -20 34.5 -31.5t45.5 -22.5q-10 31 -12 41.5t-2 38.5l-13 15v-33q2 -6 7 -14l-21 20q-2 2 -2 8v0zM291 723q-10 20 -13.5 39.5t-13.5 40.5q-10 -20 -12 -40 t-2 -40h41zM317 1354q10 10 21.5 18t32.5 8v41h12l14 13h-26q-16 -20 -25.5 -31.5t-14.5 -19t-7.5 -13.5t-6.5 -16zM223 1407l37 12q2 2 16 2l15 39q-10 -10 -18.5 -13t-8.5 -13h-28zM223 -242q16 -33 20.5 -48t8.5 -15l2 2l10 6q-10 10 -12 21.5t-2 33.5h-27zM412 240 q-10 -10 -12.5 -27.5t-2.5 -38.5h15v66zM344 -188q0 -12 6 -19q2 -2 3 -4t3 -4v22q-6 -6 -6 -2zM383 575q0 -12 6 -18q2 -4 4 -5t4 -3q0 10 -2 13t-12 13zM250 1260v14q-10 0 -10 -2t10 -12z" />
<glyph unicode="k" horiz-adv-x="1040" d="M199 -41q-20 20 -40 45t-40 35v123q-23 39 -31 104.5t-8 141.5q0 86 5 165.5t5 128.5q-10 41 -11 73t-1 63q0 82 -6 173t-6 183q0 78 8 148.5t30 130.5q31 0 45.5 -18.5t36.5 -49.5v27h80q10 10 13.5 27.5t13.5 27.5h29q10 -23 13 -42.5t13 -39.5q-20 -31 -40.5 -70 t-41.5 -80l15 -26q20 51 38.5 79.5t69.5 28.5q0 -72 6 -140.5t6 -129.5q-12 -10 -12 -29q0 -20 6 -42.5t6 -37.5q-14 -14 -20 -68t-6 -118v-84q70 113 148.5 233.5t189.5 213.5q31 -10 30.5 -23.5t10.5 -44.5q0 10 8 13t18 14h82q10 10 19.5 20t19.5 21h41 q-10 -10 -13 -26.5t-14 -27.5q-41 -31 -80.5 -61.5t-80.5 -61.5v-12q43 27 71.5 48.5t69.5 21.5q4 0 9 -1t11 -1q-31 -51 -62.5 -101.5t-72.5 -101.5q-20 -10 -31.5 -41t-21.5 -41t-35.5 -30.5t-46.5 -51.5q14 -31 40 -73t54.5 -82.5t54 -72.5t40.5 -42l22 -45 q12 -27 33 -35q31 -51 60.5 -108.5t60.5 -108.5q-41 0 -74 20.5t-74 61.5v-15q41 -31 74 -60.5t74 -59.5q0 -10 7 -27.5t7 -28.5h-27l-41 41h-82q0 6 -6 13q-2 2 -6 2q0 -12 -13 -19.5t-32.5 -13.5t-41 -11.5t-36.5 -11.5q-51 51 -81.5 110.5t-54 122t-47.5 124t-60 116.5 l-80 -79q-20 -20 -33.5 -30.5t-34.5 -10.5q10 -82 13.5 -169t13.5 -169q-51 0 -93 -8.5t-83 -18.5zM213 68q20 0 38.5 6t29.5 6l12 149q-29 -31 -46.5 -74.5t-47.5 -74.5q6 0 12 -6q2 -4 2 -6v0zM240 973q2 2 4 3t4 3q4 2 9 4t9 2q0 23 2 35t13 33q10 0 20 7t21 7v-53h12 q0 41 -1 73.5t-11 73.5q-31 -59 -56.5 -108t-25.5 -80zM240 526q20 10 26 26.5t27 27.5v82h29v40h-29q-14 -47 -22.5 -72.5t-12.5 -42t-8 -29t-10 -32.5zM563 743h41q10 20 21.5 31.5t33.5 22.5q10 0 19.5 7t19.5 7q-10 -10 -13 -20.5t-13 -20.5h14l39 57q18 29 29 52 q-61 -51 -110.5 -83.5t-80.5 -52.5zM348 418v-12q20 10 33.5 18t34.5 8l41 68h12l-12 12q-37 -31 -56.5 -46t-33.5 -30zM266 823q31 31 38 36t18 5l12 82q-10 -10 -18.5 -28.5t-8.5 -38.5h-26zM618 676l27 39q-10 -10 -20.5 -13.5t-20.5 -13.5zM254 770h12v27 q-10 0 -11 -3.5t-1 -23.5zM551 635q0 12 12 12v15l-26 -15zM158 918v40q-10 -10 -11 -14q1 -6 11 -26zM604 594l14 -14h13l-13 14h-14zM604 526l27 -26l-13 26h-14zM610 383l8 2l-10 2z" />
<glyph unicode="l" horiz-adv-x="450" d="M264 1513q23 -31 42.5 -52t39.5 -42q0 -31 -7 -61.5t-7 -61.5q29 -33 39 -96t10 -137q0 -84 -8 -169t-13 -138q10 -31 18.5 -60.5t8.5 -60.5q-2 -23 -3 -45.5t-1 -44.5q0 -76 5 -155t5 -157q0 -66 -6 -129t-27 -118q-20 0 -32.5 7t-21.5 18.5t-18 25.5t-24 31v-29 q-20 0 -39.5 -6t-40.5 -6q0 -10 -8 -20.5t-18 -20.5h-29q0 10 -6 28.5t-6 38.5q20 41 33.5 81t33.5 81v14q-20 -51 -38.5 -72.5t-69.5 -21.5q-10 59 -18.5 134t-8.5 137q14 6 14 32q0 18 -5 37t-9 25q16 27 22.5 96.5t6.5 140.5q0 45 -1 83t-1 59q10 20 20 41.5t21 52.5 q0 123 -13.5 250t-13.5 250l82 20q20 4 42.5 10t49.5 10zM225 500q-10 -10 -14 -13.5t-14 -13.5q0 -10 -8.5 -27.5t-18.5 -27.5q0 -10 -8 -11t-19 -1q0 10 -2 26.5t-12 26.5h-12q0 -41 3 -80t23 -70q20 61 46 105.5t36 85.5zM238 1405q-10 -10 -29 -12t-39 -2v-162 q20 41 35.5 87t46.5 75q-14 0 -14 14zM211 946q-10 -23 -21.5 -40t-31.5 -27v-82h-15v-27h15q14 41 22 64.5t12.5 40t8.5 31.5t10 40zM184 635q-10 -10 -15 -15.5t-10 -9.5t-11.5 -7t-18.5 -9v-82q10 23 14 35t15 33h12zM197 702v-40l14 40h-14z" />
<glyph unicode="m" horiz-adv-x="1591" d="M254 -31q-41 10 -74 30.5t-74 51.5q0 135 -2 265t-12 262q-10 10 -13 12t-13 2q10 133 8 268t18 258q51 10 83 12.5t67 2.5h53q39 -20 82 -41v-80q10 0 19.5 6t19.5 6q0 4 2 6q2 8 12 8q20 0 33.5 23.5t34.5 44.5q31 0 69.5 6t79.5 6v-26h53q0 10 7.5 13t7.5 13l26 -12 q8 -6 35 -19.5t58.5 -28t59.5 -24.5t36 -10q41 20 81 47t81 47q41 0 85 3t87 3q45 0 86 -6v-39q20 -10 41.5 -14t52.5 -14q0 -29 10 -43.5t31 -24.5q10 -31 15 -48t9 -34.5t7.5 -41t9.5 -64.5q-8 -51 -17.5 -106.5t-9.5 -110.5q0 -51 12 -95q4 0 7 -2q8 -2 8 -10 q-10 -10 -14.5 -28.5t-14.5 -39.5q0 -66 9.5 -129t9.5 -122q0 -16 -1.5 -31t-3.5 -29q-10 -41 -20 -72.5t-21 -62.5q-31 0 -52 3t-42 24q-66 6 -99.5 11t-49 20.5t-18.5 45t-9 84.5q10 66 22.5 153t12.5 167q0 29 -2 54.5t-6 45.5q-20 10 -26.5 52t-6.5 94q0 53 3 102t3 76 q-20 0 -25.5 7t-15.5 7q-10 10 -11 20.5t-1 20.5q-51 -10 -101.5 -27.5t-101.5 -27.5v-514q12 -41 23.5 -102.5t11.5 -122.5q0 -51 -10.5 -94.5t-38.5 -71.5q-59 10 -128 7t-128 7q-10 41 -12.5 72.5t-2.5 62.5v445h27v28l-12 12v177q-8 -8 -12 -27q-2 -2 -3 -14l-4 32 q-4 27 -22 35v41q-20 10 -31.5 12.5t-21.5 2.5v26q-12 10 -36 16.5t-50 6.5q-33 0 -64 -11v-26h-14q-14 -35 -20.5 -85t-9.5 -103.5t-4 -103.5t-5 -87q4 -10 5 -52t1 -91.5t1 -94.5t5 -59q0 -20 1 -44t1 -50q0 -43 -5 -84t-24 -66h-108zM1339 537v-27q-23 -10 -34 -21.5 t-21 -31.5h-12v-150h-15q0 -10 7.5 -19t7.5 -20q39 76 39 174q23 0 32 30t9 50zM1473 768q-4 0 -20.5 -9t-35 -19.5t-37 -19.5t-28.5 -9v-23q0 -16 -2 -25.5t-11 -31.5q20 4 31.5 7t21 7t17.5 13.5t23 25.5q-2 0 -2 4q0 6 7 18.5t14 24.5t11 19zM362 700v23q0 23 -6 57.5 t-20 40.5q0 -20 -8.5 -31.5t-18.5 -21.5v-68h53zM174 686q20 10 26.5 15.5t26.5 25.5v53h-14q-10 -20 -19.5 -41.5t-19.5 -52.5zM201 119v26h-41v-26h41zM207 496q6 2 6 14h-12v-23l4 5zM201 606h12q0 16 2 19v2zM319 453q-10 -20 -20 -37t-20 -17l-15 -82q0 -10 -2 -12 t-12 -2v-27h14l31 64q18 35 21 56.5t3 56.5zM731 561q-10 -10 -20.5 -13t-20.5 -13q0 -31 -2 -62t-12 -61q16 -10 22 -11q8 0 33 25v135zM1292 725l56 55v74q-4 -20 -11 -27q-4 -8 -9 -15t-9 -17h-12zM1292 944h-12q-8 -8 -12 -29q-2 -6 -2 -34q6 23 26 22v41zM1266 672h26 v26q-10 0 -13 -3t-13 -23zM1360 930h-12v-12h12v12zM932 133q-31 -10 -39 -12t-29 -2l-26 -68q10 10 26.5 21.5t26.5 33.5h14zM731 879q4 -20 7 -34t7.5 -30t10.5 -43l16 -72h12v33l-2 -2l-10 10v82q-10 10 -20.5 28t-20.5 28zM758 578l14 -54h12q0 -20 2 -38.5t13 -28.5v80 q-10 0 -15.5 5t-25.5 36zM731 633l12 -27v27h-12z" />
<glyph unicode="n" horiz-adv-x="1028" d="M309 -68q-10 10 -13 11.5t-13 1.5v26q-8 4 -19 4q-12 0 -25.5 -4t-29.5 -4q-4 0 -21 4q-10 16 -38 17q-14 0 -30 -2t-28 -2q-27 0 -26 16q-2 10 -3.5 20.5t-1.5 18.5q0 59 45 59q6 0 12.5 -1t14.5 -3v12h-12v15h-15q0 51 2.5 86t12.5 76q0 10 -15.5 13t-25.5 13 q0 31 9 44.5t32 23.5v26q0 23 1 44.5t11 37.5q-10 0 -20.5 7.5t-20.5 7.5q0 10 2 28.5t12 38.5h15q0 20 6 31q4 8 6 10h-53q-6 43 -6 78q0 8 1 14.5t1 12.5l6 108q2 16 2 30.5v31.5q0 78 -18 143q10 10 10 21q0 4 -10 20q10 10 13 26.5t13 26.5q31 0 62.5 2t72.5 13 q6 -20 13.5 -31.5t13.5 -21t10 -18.5t4 -24q10 0 20.5 8.5t20.5 18.5l27 -41q20 10 47 20.5t47 20.5v-14q8 6 17.5 17t20.5 22.5t22.5 20.5t23.5 9q10 0 12 -2v-39q29 10 59.5 42t61.5 53v-56q20 0 30.5 -14t10.5 -25q12 12 12 29v10q16 4 26.5 7t21.5 3q10 0 21 -3t28 -7 v-12q10 0 13 -2t13 -12v-13h13v-14q23 -39 55 -53l16 4q16 0 25.5 -16.5t9.5 -32.5q0 -37 -24 -37v-27h26q0 -6 2 -8q2 -12 12 -18h13q-10 -23 -18.5 -35.5t-8.5 -32.5t-3 -53t-8 -72t-8 -80t-3 -76q0 -23 2 -42t8 -29q-4 -23 -6 -50.5t-2 -56.5q0 -72 8 -144.5t8 -144.5 q0 -63 -8 -104q-12 0 -21 -8q-2 -2 -4 -3t-4 -3l-241 26q0 80 4 170t4 183q0 74 -5.5 146.5t-17.5 137.5v135q-29 10 -29 33q0 20 14.5 40t14.5 34q-8 8 -14 11t-29 3h-39q-10 37 -33.5 53.5t-50.5 16.5q-33 0 -59.5 -21.5t-30.5 -62.5q-35 -6 -51 -9t-23 -10l-8 -8 q10 0 21.5 -6t31.5 -6q6 -29 8.5 -55.5t2.5 -55.5q0 -63 -9.5 -122.5t-13.5 -118.5q0 -61 7.5 -130t7.5 -136q0 -45 -6.5 -87.5t-22.5 -78.5q14 -27 14 -50q0 -33 -41 -45zM797 215v14q20 10 31.5 21.5t21.5 32.5h14v149h27q-10 10 -12 20.5t-2 20.5q-31 -41 -36 -82t-5 -82 q-29 -10 -41.5 -41.5t-12.5 -52.5h15zM782 27v22q0 16 2 29.5t13 42.5q-31 -10 -46.5 -23.5t-35.5 -44.5q10 0 13 -8t13 -18h41zM283 188q10 0 13 8.5t13 59.5h-26v-68zM662 999q10 10 19 12.5t19 2.5q0 10 2.5 26.5t12.5 26.5q-10 0 -17 -8.5t-36 -59.5zM295 743 q0 10 2 19.5t12 19.5q-20 0 -25 -9t-16 -30h27zM268 891q20 0 25.5 3t15.5 24q-20 -10 -25.5 -13.5t-15.5 -13.5zM870 522q6 20 7 31h-13v-66q2 10 3 18.5t3 16.5zM797 946q10 0 13 6t13 6v27q-10 -10 -13 -19.5t-13 -19.5zM242 688q10 10 13 18.5t13 8.5q0 6 -6 12 q-2 2 -6 2q0 -10 -7 -20.5t-7 -20.5zM850 121q10 10 10 12q0 4 -3 6t-7 8v-26z" />
<glyph unicode="o" horiz-adv-x="976" d="M428 -31q-31 31 -55.5 34t-44 6t-34.5 17.5t-26 63.5h-14v-27q-59 0 -91 29t-42 80q-14 0 -23.5 21.5t-15.5 57.5t-8 80t-2 89q0 59 2 109.5t6 70.5q2 4 4 10t4 13l4 18q2 2 2 21v32q-10 10 -20.5 18.5t-20.5 8.5q0 20 8.5 33.5t18.5 33.5q0 35 20.5 84.5t50 97.5 t64.5 87t66 53q20 0 32.5 -6t22.5 -6q0 25 2 34t8 11t16.5 2t26.5 6v-27h27q10 29 21.5 36t31.5 18v-41h27q20 10 23 15t3 26h27q10 -20 13 -25.5t13 -15.5q20 20 43 20q20 0 41 -13.5t38.5 -31.5t31.5 -37.5t23 -32.5q41 -20 61.5 -42.5t30.5 -63.5q18 0 24 -13.5t6 -35.5 q0 -16 -1 -32.5t-1 -33.5q0 -29 7.5 -52.5t31.5 -33.5q0 -31 2 -52t13 -42v-162l-15 -12q-4 -51 -6 -79t-5 -42t-6 -18t-9 -9h14v-120h-14q-16 -25 -25.5 -40.5t-16.5 -27.5t-15.5 -27.5t-22.5 -40.5q-23 -4 -47.5 -13t-51 -19.5t-52 -18.5t-48.5 -8q-18 0 -31 6 q-10 -10 -24 -20t-14 -21q-20 0 -31.5 9.5t-22.5 19.5q0 -10 -22.5 -19.5t-32.5 -9.5zM455 131q4 4 8 5t8 3l14 4q2 2 19 2h33v27h26v27h12q0 29 9.5 53t19.5 53h12q0 31 -6 54.5t-6 54.5q0 20 8.5 45.5t18.5 46.5q-12 39 -13 82q0 41 6.5 80t6.5 80q-10 41 -20.5 72.5 t-20.5 62.5l-27 26v41q-43 12 -76 13q-59 0 -125 -41q0 -59 -16 -127t-39 -127q10 -31 12.5 -54.5t2.5 -52.5q10 0 12 -2t2 -12q-23 -43 -29 -79t-6 -73q0 -35 3 -71.5t3 -85.5h15q0 -10 7 -27.5t7 -38.5h26v12h13v41h41v-26h12q0 -10 2 -20.5t12 -20.5t11.5 -13.5 t1.5 -13.5zM227 735q10 20 13.5 40t13.5 40h27q10 20 13 31.5t13 21.5h-12q0 20 -7 33.5t-7 34.5q-10 -16 -11.5 -22.5t-1.5 -22.5v-23q-20 -31 -31.5 -47t-17.5 -28.5t-9 -24.5t-9 -33h26zM160 172q10 10 20 18.5t21 8.5q0 29 2 51t12 43q-14 8 -25 8q-8 0 -13 -5l-17 -17 v-107zM778 600q20 25 31.5 39t19 27.5t13.5 29t16 39.5h-14v-14h-27q0 -20 -6 -39.5t-6 -40.5h-14zM758 152q25 23 36 46t11 68q-10 -31 -33.5 -62.5t-34.5 -72.5q4 2 6 5t7 7zM811 305q6 23 8 33t12 35q-14 -10 -20 -35t-6 -47v-23q2 21 6 37zM268 653v29q-10 0 -13 -3 t-13 -26h26zM657 211v41q-10 -10 -12 -21.5t-2 -31.5zM696 641h-12v-53zM563 63q10 10 11 13.5t1 13.5q-2 -2 -3 -4t-3 -4q-6 -7 -6 -19zM805 494q10 0 11 2t1 18q-2 -2 -2 -4l-4 -8l-4 -4zM723 117l14 14h-14v-14z" />
<glyph unicode="p" horiz-adv-x="960" d="M338 1047q8 8 20 8q10 0 20.5 -7.5t20.5 -7.5q6 25 9.5 35t8.5 12.5t12 2.5t24 6v-27h26q10 29 17.5 36t35.5 17v-41h15q20 10 23 15.5t3 25.5h27q10 -20 13 -23t14 -3q12 12 28 12q18 0 38 -14.5t37.5 -34t28.5 -40t15 -32.5q41 -20 57.5 -36.5t36.5 -57.5q23 0 23 -49 q0 -12 -1 -27.5t-1 -30.5q0 -29 6 -50t27 -29q0 -31 2 -52.5t12 -42.5v-147q0 -10 -8 -12q-2 -2 -6 -2q-6 -68 -9.5 -91.5t-3.5 -33.5v-9l13 -14l-13 -106h-14q-10 -25 -16.5 -40.5t-12.5 -27.5t-14 -23.5t-23 -29.5q-31 -16 -77.5 -36t-87.5 -20q-35 0 -50 15 q-10 -20 -18 -31.5t-8 -21.5q-20 0 -32.5 8t-23.5 18q0 -10 -14 -18t-24 -8q-31 31 -55.5 33.5t-45 3.5t-36 12.5t-25.5 56.5h-13v-12q0 -123 6.5 -241t6.5 -228q-41 -10 -80 -19.5t-80 -9.5q-20 23 -33.5 42.5t-34.5 39.5q0 41 1 70.5t12 50.5q-29 35 -39 100.5t-10 138.5 q0 90 9 180.5t13 143.5q-10 29 -11 60.5t-1 72.5q2 29 2 55.5v55.5v49l-4 168v47q0 72 6 139.5t22 130.5q31 0 45.5 -25.5t34.5 -56.5v29q14 0 26.5 3t27.5 3q14 0 26 -6q0 20 7.5 31.5t7.5 21.5h40v-18q0 -16 1.5 -30.5t11.5 -33.5zM520 143q8 8 17.5 10.5t50.5 2.5v14 q0 4 2 4h4l6 -4v27h14q10 29 18.5 51t8.5 43q0 12 12 12q0 20 -1 47t-11 47q10 20 13 47t14 48q-12 39 -13 77q0 37 6.5 73t6.5 77q-10 31 -13.5 61.5t-13.5 59.5q-10 10 -18.5 13t-8.5 13v41q-23 6 -40 10.5t-33 4.5q-29 0 -55.5 -11.5t-59.5 -29.5q0 -59 -15.5 -121 t-25.5 -121q0 -31 2 -54.5t12 -52.5q-18 -47 -24 -84.5t-6 -78.5q0 -29 2 -62t2 -71h12q10 -10 12 -26.5t2 -27.5l27 -12v27h14v26h27q0 -14 12 -14l15 -12v-41q10 0 13 -1.5t13 -11.5zM199 -328q10 10 26.5 18.5t26.5 8.5l12 147q-12 -12 -22 -32l-17 -39q-8 -20 -17 -41 t-24 -35q0 -6 2 -8q3 -13 13 -19zM305 733l14 12q-10 10 -12 21.5t-2 34.5q-16 -35 -28.5 -64.5t-22.5 -52.5q-8 -20 -15.5 -39.5t-13.5 -40.5q2 2 4 3t4 3t19 2q0 20 6 40t6 40h41v41zM225 143q10 20 21.5 38t32.5 28v82h14v39h-14q-16 -45 -25.5 -71t-13.5 -43t-7.5 -32.5 t-7.5 -40.5zM252 465q31 20 37 23.5t16 3.5v75q-2 -4 -3 -10t-5 -12q-4 -8 -9 -15.5t-9 -11.5h-15zM801 571q20 25 32.5 40.5t18.5 27.5t9 27.5t7 40.5h-12v-15h-14q0 -20 -6.5 -39.5t-6.5 -40.5h-14zM748 115q41 41 61 67.5t20 67.5q-10 -20 -32.5 -49t-22.5 -58h-12z M305 948v53q-10 -31 -21.5 -59.5t-31.5 -48.5l12 -12q10 20 20.5 38.5t20.5 28.5zM836 295q4 12 5 22.5t1 20.5v33q-10 -23 -13 -54v-47q3 19 7 25zM225 397h27v27q-10 0 -13.5 -3.5t-13.5 -23.5zM721 571l14 41h-14v-41zM688 207q2 2 6 2v37l-6 -19q-6 -10 -6 -28q0 4 6 8z M600 76q20 10 23.5 13t3.5 13zM829 465q10 10 11 14q2 2 2 19q-4 -10 -8.5 -17.5t-4.5 -15.5zM145 584v-4q2 2 0 4v0z" />
<glyph unicode="q" horiz-adv-x="966" d="M604 57h-41q0 -29 -5 -36t-19 -7q-4 0 -11.5 1t-17.5 1v27h-27q-10 -29 -14 -36t-25 -17v26l-28 15q-10 -10 -13.5 -15.5t-13.5 -25.5h-27q0 10 -1 13t-11 13q-14 -14 -37 -14q-20 0 -39.5 13.5t-36 32t-29.5 35.5t-20 28q-41 20 -57 41.5t-37 52.5q-23 8 -22 55 q0 12 1 25.5t1 27.5q0 29 -6.5 53.5t-26.5 39.5q0 31 -2 47t-12 47v147q10 0 12 1t2 11q6 45 9 70t6 37t5 17t7 12h-13v106h13q14 25 23 40t16.5 28.5t16.5 28t23 38.5q16 2 36 11.5t41.5 18.5t43 16.5t41.5 7.5q23 0 41 -13q10 10 19.5 21.5t19.5 31.5l41 -40q0 20 21.5 24 t31.5 16q25 -31 47.5 -34.5t41 -7t34 -16.5t25.5 -62v94q41 10 81 13t81 13q20 -20 39.5 -41.5t39.5 -52.5q0 -31 -6 -60.5t-6 -60.5q23 -37 30 -101t7 -136q0 -88 -5 -173t-5 -140v-134q0 -82 5 -176t5 -186q0 -78 -7 -150.5t-30 -132.5q-31 0 -46 26t-36 56v-26 q-20 -10 -32.5 -12.5t-32.5 -2.5q-10 -10 -14.5 -20t-14.5 -21h-27q-10 23 -13 35t-13 33q20 41 39.5 81t42.5 81l-15 12q-20 -41 -36.5 -66.5t-57.5 -25.5q-10 70 -11 139.5t-1 140.5q12 0 12 25v16zM457 969q-16 -6 -22.5 -9.5t-26.5 -3.5h-31v-28h-15v-27l-12 14 q-10 -31 -13 -58.5t-13 -47.5h-15q0 -31 7.5 -54.5t7.5 -54.5q-10 -20 -14.5 -41.5t-14.5 -52.5q8 -16 10 -34.5t2 -36.5q0 -37 -6 -76t-6 -80l18 -60q10 -37 11 -47l18 -20q8 -8 20 -8v-39q35 -14 70 -15q25 0 49.5 7.5t55.5 19.5q10 61 21 128t34 128q-10 20 -12 47t-2 47 h-15q18 51 23.5 97.5t5.5 93.5v104h-14q0 20 -7.5 32.5t-7.5 33.5h-12v-13h-14l-13 -26q0 -6 -4 -6t-9 3t-13 3v12h-15q0 10 -1 21.5t-11 33.5q-10 0 -12 1.5t-2 11.5zM739 96q-14 0 -14 -12q-10 -20 -13 -33.5t-14 -34.5h-26v54h-27q0 -41 3 -80t24 -80q20 72 43.5 114.5 t23.5 71.5zM778 1022q-20 0 -32.5 -6t-32.5 -6l-15 -148q31 29 45.5 73t34.5 75v12zM739 567q-10 -20 -20 -38.5t-21 -28.5l-14 -80h-12v-41h12q20 45 31.5 70.5t16.5 43t6 33.5t1 41zM215 983q-41 -31 -60.5 -57.5t-19.5 -77.5q20 31 39 55.5t29 65.5h12v14zM713 244 q-23 -20 -29 -24.5t-27 -14.5v-82q10 23 13.5 35t13.5 32h14zM618 326h-14q0 -10 -6 -21.5t-6 -32.5h12q0 -10 2 -27.5t12 -27.5v109zM162 526q-16 -25 -24.5 -40t-14.5 -27l-12 -23q-4 -8 -8.5 -15t-8.5 -15q0 -14 15 -15v29h12q10 10 13 34.5t13 45.5h15v26zM242 541 l-13 -56h27q0 20 -7 33t-7 23zM147 836q-16 -31 -21 -44.5t-5 -27.5v-23q10 10 13 42.5t13 52.5zM283 901h-15v-39q10 10 12.5 19.5t2.5 19.5zM135 633q-10 0 -12 -3t-2 -24q10 10 12 13.5t2 13.5zM739 311h-14v-26zM336 1010q10 0 12 8q4 8 8 12z" />
<glyph unicode="r" horiz-adv-x="706" d="M391 1010q10 20 24.5 31.5t31 18.5t33 13t32.5 17q31 31 55.5 49t65.5 18l53 -53v-230h-80q-51 0 -91 -11t-71 -42t-42 -63.5t-11 -83.5l-14 26q-4 -35 -7 -70.5t-3 -68.5q0 -51 10 -88q-10 -20 -19.5 -33.5t-19.5 -33.5q0 -100 13.5 -201t13.5 -201q-41 0 -87.5 -7 t-87.5 -7q-20 10 -40.5 28.5t-40.5 38.5q0 20 7 42t7 53q-29 29 -39 81t-10 111q0 66 8 126t14 97q-10 29 -13 52.5t-13 54.5q2 14 2 28.5v30.5q0 51 -3 106.5t-3 112.5t6 112.5t24 104.5q20 0 31.5 -4t19 -12t13.5 -17.5t16 -19.5l14 14h80q0 10 7.5 19.5t7.5 19.5h39 q0 -10 7 -26.5t7 -26.5q-20 -29 -38.5 -59.5t-29.5 -61.5v-12q16 35 30.5 52.5t43.5 17.5q8 0 15.5 -1t17.5 -3zM217 70q10 0 27.5 7t40.5 7v106q-23 -20 -37.5 -53t-44.5 -53q0 -10 2 -12t12 -2zM229 768q10 10 13.5 11t13.5 1q10 23 14 34t15 22q2 2 4 3t4 3l8 4q2 2 10 2 v-10q0 -8 1 -14.5t12 -14.5h14q0 29 -3 57.5t-24 48.5q-20 -51 -46 -83.5t-36 -63.5zM244 420q10 10 21 26.5t32 26.5v68h14v26h-14q-16 -35 -25.5 -54t-13.5 -33.5t-7 -27t-7 -32.5zM270 659q20 23 26.5 26t27.5 3v66q-10 -10 -13.5 -21.5t-13.5 -32.5h-12zM244 606h12 l14 27l-10 8q-4 0 -16 -35z" />
<glyph unicode="s" horiz-adv-x="921" d="M344 -92q-29 10 -67.5 42t-79.5 52q-53 59 -96.5 129t-43.5 156q0 23 6 51q14 0 36 10t44.5 24.5t44 28t35.5 17.5q20 -31 46 -41t36 -39q0 -20 1 -49t11 -60q10 -10 18.5 -19t8.5 -20q20 0 41 -2t41 -12q10 -10 34.5 -11t45.5 -1q14 4 23.5 18.5t12.5 31.5t4 35.5 t1 35.5q-31 10 -38 23.5t-17 41.5q-70 61 -153 106.5t-155 96.5q-20 0 -33.5 -2t-33.5 -12q0 20 -2 31.5t-13 21.5q0 6 -6 12q-2 2 -6 2q0 20 6 40t6 40q-10 0 -19 7t-20 7q0 20 1.5 31.5t11.5 22.5l-27 26q0 10 7 28.5t7 39.5l27 -14v79l12 -12q18 66 60.5 112t98.5 74.5 t120.5 42t128.5 13.5h37q20 -10 34.5 -20.5t45.5 -20.5l-15 -27q23 -10 41.5 -11t34.5 -1h19l41 -68h12q10 -10 20.5 -26.5t20.5 -26.5q25 -20 38 -52t13 -69q0 -51 -25 -94q-59 10 -113.5 14t-113.5 25l12 41h-26q0 10 -6.5 26.5t-6.5 26.5h-14v27q-8 0 -13 3t-24 19 l-30 33q-41 0 -73 -4t-57.5 -18.5t-43 -41t-27.5 -71.5l94 -12q51 -72 133 -116t162 -73q41 -31 73.5 -60.5t73.5 -60.5q25 -37 38.5 -67.5t13.5 -65.5q0 -45 -25 -108q-20 -41 -49 -82t-57 -107q-31 -10 -58.5 -31.5t-50.5 -62.5q-20 -10 -39.5 -19.5t-40.5 -19.5 q-51 0 -107.5 -2t-107.5 -12zM717 891q-31 -10 -62.5 -12t-72.5 -2l53 -41l29 14q12 8 20 9t45 18q-12 0 -12 14zM211 70l12 53h-39q-6 -12 -6 -23q0 -10 3 -16t3 -14h27zM139 682q10 0 21 6q4 2 9 4t15 4h-45v-14zM778 287q-2 -2 -2 -8l-20 -21q4 8 6 14v33l-12 -14 q0 -29 -2.5 -39t-12.5 -41q31 10 45.5 21.5t34.5 31.5q0 10 -8 20.5t-19 20.5q-4 -8 -6 -10zM829 358q0 20 -2 40t-12 40q-10 -20 -13 -39.5t-14 -40.5h41zM221 780q20 25 31.5 39.5t19 27.5t13.5 28.5t16 39.5h-14v-14l-43 23q-6 -49 -1 -65.5t5 -37.5h-15zM139 821h-12 v-53zM645 188q20 25 32.5 40.5t18.5 27.5t9.5 27.5t7.5 40.5h-13v-15h-14q0 -20 -6 -39.5t-6 -40.5h-15zM565 188l15 41h-15v-41zM674 82q10 10 10 14q2 2 2 19q-4 -10 -8 -17.5t-4 -15.5zM510 565h12l15 27q-10 8 -11 8q-4 0 -16 -35zM227 369q-31 -10 -39 -12.5t-28 -2.5 l-27 -67q10 10 26.5 21t26.5 34h15zM739 942q4 -20 7.5 -33.5t7.5 -30t10 -43t16 -71.5h13v33l-2 -2l-11 10v82q-10 10 -20.5 27.5t-20.5 27.5zM621 524l14 -53h12q0 -20 2 -38.5t13 -29.5v80q-10 0 -15.5 5t-25.5 36zM594 580l12 -27v27h-12z" />
<glyph unicode="t" horiz-adv-x="659" d="M170 901q0 -10 -8 -11t-19 -1q-20 10 -46.5 19.5t-47.5 19.5q-10 41 -18 88t-8 88q29 8 58.5 13t57.5 5q27 0 45 -6q0 92 3 178t24 158q29 0 37 -23.5t28 -44.5v27h68q0 10 7 26.5t7 26.5h27q10 -20 11 -39.5t1 -40.5q-10 -41 -26.5 -79.5t-26.5 -79.5q20 41 35.5 66.5 t44.5 25.5q10 -49 14 -106.5t15 -106.5q23 8 51 10t59 2h37q-16 -16 -20.5 -24.5t-6.5 -8.5v7l-41 -41q-6 -4 -5 -5.5t8.5 -1.5t17.5 -1t20 -5q0 4 4.5 15.5t10.5 22.5t13 20.5t11 9.5q6 -20 9.5 -49t3.5 -58t-3.5 -51t-9.5 -31h-120q-10 10 -21.5 13.5t-32.5 13.5 q-6 -29 -10 -91.5t-4 -127.5v-156q0 -31 7 -54.5t7 -53.5v-121q29 -10 29 -33q0 -20 -14.5 -39.5t-14.5 -34.5q8 -8 23.5 -17t56.5 -9q33 0 94 12q6 -37 6 -59q0 -23 -4 -33t-12 -16l-16 -13l26 -65q-16 -10 -24 -29.5t-25 -19.5q-10 0 -18 8v26q-29 -10 -52.5 -39.5 t-54.5 -39.5v53q-20 0 -25 8t-16 18q0 -10 -6 -20t-6 -21q-16 0 -25.5 -2t-19.5 -2q-23 0 -49 19v14h-15v12l-12 15v12q-10 10 -21.5 20.5t-31.5 20.5q-4 -4 -14 -4q-14 0 -20.5 17.5t-6.5 35.5q0 12 3 21.5t11 9.5q12 0 13 14h-41v27h-13q0 20 8.5 32.5t18.5 34.5 q0 20 2 55t5 76t6 81t3 71q0 33 -2 39q6 43 6 86q0 53 -6 108.5t-14 112.5zM238 580q20 41 23 80.5t3 80.5q31 0 42 30t11 50h-12v-12q-23 -10 -34 -22.5t-21 -32.5h-12v-133h-15q0 -10 2.5 -20.5t12.5 -20.5zM397 1049q0 31 -6 52t-6 42q-10 -20 -20.5 -40t-20.5 -40z M317 956q0 10 2.5 19.5t12.5 19.5h-15v-20q0 -16 -2 -26.5t-10 -33.5q29 10 37 21.5t29 32.5q0 10 -1 18t-12 8h-14v-26q-4 0 -9 -2t-9 -4l-4 -5zM424 96q-10 -10 -16.5 -11t-14.5 -1h-8v-53zM291 137h-15v-26q8 8 13 18q0 2 1 3t1 5v0zM236 539q-2 -16 -13 -39l15 12v49z M250 901q-10 0 -10 -4q0 -6 10 -23v27z" />
<glyph unicode="u" horiz-adv-x="1019" d="M727 1153q0 -14 12 -14q0 -10 7.5 -13.5t7.5 -13.5l16 -4q12 0 23.5 4t23.5 4l17 -4q4 -10 13 -12t21 -2q14 0 30.5 2t29.5 2q27 0 26 -17q2 -12 3 -21t1 -20q0 -29 -8 -36q-8 -20 -41 -21q-12 0 -16 2l6 -4q2 -2 2 -6h14v-14h13q0 -51 -3 -85t-24 -75q10 0 20.5 -9.5 t20.5 -19.5q0 -20 -3 -32.5t-24 -32.5q-10 -31 -14 -54.5t-14 -54.5q10 0 20.5 -1t20.5 -11v-53l-13 -15q-8 -8 -14 -18t-6 -17q0 -6 6 -6q10 0 20.5 2t20.5 13q2 -14 2 -27.5v-28.5q0 -53 -4 -111.5t-4 -113.5q0 -41 4 -79t14 -70q-6 -6 -6 -15q0 -6 3 -11t3 -13 q0 -10 -6 -20.5t-6 -20.5q-41 0 -72.5 -7.5t-62.5 -7.5q-4 14 -11.5 23.5t-15.5 17.5l-14 17q-6 8 -12 24q-10 0 -19 -8q-2 -2 -4 -3t-4 -3l-41 27q-20 -10 -39.5 -19.5t-40.5 -19.5v12q-16 -4 -28 -16l-25 -25q-18 -18 -35 -18q-10 0 -18 6v26q-31 -10 -61.5 -41.5 t-59.5 -52.5v53q-23 10 -27 20.5t-14 20.5q0 -10 -2 -20t-12 -21q-18 -8 -39 -8q-20 0 -54 23v14h-14v12q-10 0 -12 2t-2 13v12q-20 10 -31.5 20.5t-21.5 20.5q-16 -4 -17 -4q-20 0 -31.5 21.5t-11.5 39.5q0 23 14 23h7q10 10 11 13t1 13h-41v27h-27q10 20 20.5 38.5 t20.5 29.5q0 25 2 64.5t5 82.5t6.5 86t3.5 74v22.5t-2 18.5q2 16 2 31.5v31.5q0 74 -6.5 148.5t-6.5 148.5q0 35 2 69t9 68q2 2 4 3t4 4l8 4q2 2 10 2l228 -13q0 -88 -5.5 -182t-5.5 -188q0 -70 5.5 -135.5t19.5 -124.5q10 -41 11 -73t1 -63q23 -12 23 -32t-14.5 -44 t-20.5 -44q6 -6 12 -9.5t29 -3.5h39q10 -37 31.5 -54t48.5 -17q31 0 58.5 22.5t35.5 61.5q59 10 71.5 14t22.5 14q-20 0 -31.5 8.5t-21.5 18.5q-10 27 -14.5 53.5t-4.5 54.5q0 59 9.5 120t9.5 120q0 53 -7.5 123t-7.5 137q0 43 5.5 83t21.5 73q-10 20 -10 39q0 41 51 55z M231 885v-27q-23 -10 -34 -21.5t-21 -31.5h-12v-150h-14q0 -10 7 -19t7 -20q39 76 39 175q29 0 36 12t7 28q0 10 -1 20.5t-1 18.5zM297 1073q-10 0 -21.5 -7t-31.5 -7v-23q0 -16 -2 -25.5t-11 -31.5q20 4 31.5 7t21 7t17.5 13.5t23 25.5q-10 10 -18.5 20.5t-8.5 20.5z M365 92q-10 0 -13.5 -1t-13.5 -11t-12 -26.5t-2 -26.5zM754 911q-10 -10 -14.5 -19t-12.5 -48h12q0 10 2.5 28.5t12.5 38.5zM739 348q0 -10 -6 -20.5t-6 -20.5q10 10 13 15.5t14 25.5h-15zM774 387q-12 -4 -20 -12q10 0 12 -8q2 -2 2 -7q8 8 12 21l6 12zM217 147v-28 q2 2 3 4t3 4q8 8 8 20h-14zM754 201q-10 0 -13.5 -3t-13.5 -24z" />
<glyph unicode="v" horiz-adv-x="925" d="M174 1126q10 -6 30.5 -9t43 -7t43 -9t31.5 -16q0 -16 -9.5 -44.5t-9.5 -53.5q0 -14 6 -22q31 -31 47.5 -84.5t26.5 -112.5t16.5 -114.5t16.5 -90.5q10 -20 20 -47t21 -47v-18q0 -16 1 -30.5t11 -33.5q10 41 20.5 73t20.5 62q0 20 1 47t11 47q14 55 23.5 119t23 129.5 t34 126t54.5 109.5q31 0 39.5 -16.5t28.5 -39.5q0 4 2 7q2 8 10 8t18.5 3t22.5 3q14 0 27 -6q10 10 13 20.5t13 20.5h41v-56q-31 -29 -52 -59.5t-42 -60.5v-13q29 41 48.5 60.5t58.5 19.5q0 -51 -3 -105.5t-24 -94.5q-6 -10 -9 -29t-3 -37v-14q-16 -16 -30.5 -54.5 t-28 -82.5t-22.5 -84.5t-13 -61.5q-10 -20 -20.5 -33.5t-20.5 -34.5q-20 -100 -33.5 -191t-34.5 -183q-41 -10 -87 -18.5t-87 -8.5q-10 20 -21.5 33.5t-31.5 34.5h-41q0 -10 -1 -20.5t-12 -20.5h-26q-10 10 -18.5 26.5t-8.5 26.5q10 31 19.5 60.5t19.5 60.5l-12 14 q-10 -41 -25.5 -61.5t-56.5 -20.5q-20 51 -37.5 106.5t-28.5 96.5q2 2 2 10q0 14 -11 37t-17 33q8 8 8 39q0 29 -7 65.5t-15.5 71.5t-16.5 63.5t-10 40.5q0 23 6 40.5t6 27.5q-10 51 -22.5 93t-24.5 81t-23.5 78t-21.5 84q10 4 18.5 8t16.5 8l30 23q16 12 32 20t36 8z M684 711q10 10 20.5 11t20.5 1q0 20 8 31.5t19 21.5q8 0 13 3t11 3q8 0 15 -6q-10 -10 -11.5 -13t-1.5 -13h13q6 18 11 32.5t5 30.5q0 23 -16 45q-29 -51 -58 -84.5t-49 -62.5zM319 367l-4 -5q-2 -2 -6 -2q0 -20 -7 -31.5t-7 -21.5h-27q-10 10 -12 20.5t-2 20.5h-12 q0 -41 9 -65.5t32 -55.5q8 49 24 84q4 14 8 29t4 27zM616 375q20 10 34 26.5t34 26.5l14 53h13l14 27h-27q-31 -47 -43 -63.5t-22 -36.5zM268 938q-10 -20 -15 -31.5t-26 -21.5l15 -54q0 -10 -2 -12t-13 -2v-12h27q10 45 12 62.5t2 37.5v33zM551 80v-41q8 0 18 6l9 8l38 107 q-20 -20 -37.5 -40t-27.5 -40zM242 764q-10 -10 -20.5 -25.5t-20.5 -15.5l14 -94q10 20 13 45.5t14 36.5v53zM268 481q-20 -20 -26 -24t-27 -15l27 -55v55h26v39zM698 602q29 31 37 36t29 5l14 53q-10 -10 -20 -21t-21 -32l-12 12zM670 563h14v27zM268 522h-14l14 -26v26z M604 684q10 10 11 13t1 14q-10 -10 -11 -13.5t-1 -13.5zM389 416q0 -23 6 -27t6 -14v6q0 6 -2 11.5t-10 23.5z" />
<glyph unicode="w" horiz-adv-x="1536" d="M774 1165q10 -10 26.5 -21t26.5 -32h27l14 -12q0 -31 7.5 -52.5t7.5 -41.5q33 -31 54 -85.5t34.5 -112.5t24 -114.5t20.5 -91.5q10 -29 18 -50.5t8 -43.5q10 -20 13.5 -39.5t13.5 -40.5q10 31 20.5 67.5t20.5 67.5q0 20 1 42t11 50q14 57 24.5 119t24 123t33 119.5 t53.5 109.5q31 0 39.5 -16t28.5 -37v27h80q0 10 8 19t19 20h26q0 -20 7.5 -32.5t7.5 -33.5q-31 -23 -54.5 -50.5t-54.5 -57.5l14 -13q20 29 43 47.5t64 18.5q0 -49 -8.5 -99.5t-18.5 -101.5q-16 -10 -16 -35q0 -10 2 -22t2 -23q-20 -10 -35.5 -48t-28 -82t-19.5 -84t-11 -54 q-20 -39 -41 -82q-29 -92 -38 -187.5t-30 -187.5q-41 0 -87 -8t-87 -18q-10 20 -26.5 38.5t-26.5 28.5h-41q0 -10 -1 -13t-11 -13h-27q-10 10 -18.5 21t-8.5 32q10 29 19.5 59.5t19.5 61.5h-12q-10 -31 -25.5 -49.5t-56.5 -18.5q-20 51 -37.5 101.5t-28.5 99.5q2 2 3 12 q0 16 -10.5 36.5t-18.5 33.5q10 10 10 45q0 25 -10 76q-10 -31 -12 -57.5t-2 -37.5q-10 -10 -20.5 -28.5t-20.5 -38.5q-20 -92 -32.5 -187.5t-33.5 -187.5q-41 -10 -81 -14t-81 -15q-10 23 -21.5 40.5t-31.5 27.5h-27q-10 -10 -13 -19.5t-13 -19.5h-27q0 20 -9 32.5 t-20 33.5q10 20 20.5 48.5t20.5 59.5l-12 12q0 -27 -9 -49t-38 -22l-20 4q-20 51 -39 101t-29 102q4 4 4 10q0 14 -11 33.5t-20 35.5q8 8 9 33q0 25 -5.5 60.5t-12.5 69.5t-12 63.5t-5 42.5v80q-20 92 -53 188t-56 188q41 0 80 8.5t70 18.5q20 -20 41.5 -38.5t50.5 -29.5 q0 -31 2 -52t12 -42q31 -31 49.5 -84t30.5 -113.5t21.5 -119t19.5 -99.5q10 -20 18.5 -41.5t8.5 -52.5q10 -20 13 -39.5t13 -40.5q10 41 20.5 77t20.5 59v106q14 49 23.5 106.5t20.5 115t28.5 114.5t48.5 106q-10 10 -13 26.5t-14 27.5q41 10 80 13t80 13zM346 387 q-10 0 -14 -6t-15 -6v-53h-38q0 10 -2.5 19t-12.5 19h-12q10 -29 21.5 -57.5t31.5 -48.5q10 41 25.5 77t15.5 56zM922 401q-12 0 -13 -14q0 -10 -7 -19.5t-7 -19.5q-6 -10 -18 -12q-2 -2 -9 -2q-10 10 -12 20.5t-2 20.5h-27q10 -31 21.5 -58.5t34.5 -48.5q10 41 24.5 77 t14.5 56zM547 106v-40h39l28 108q-23 -10 -35 -29t-32 -39zM1284 750q12 0 19 6l8 8q10 10 20 21.5t21 31.5h26v-41h13q0 20 3 41t3 37q0 18 -6 31q-29 -41 -58 -72.5t-49 -62.5zM199 1073q-10 -10 -27.5 -12t-28.5 -2l27 -107q10 20 15 53t26 54zM1217 416q20 10 32.5 24.5 t22.5 14.5l26 67h13v27h-13q-31 -47 -43 -63.5t-22 -36.5zM1151 119v-39h27l26 121q-20 -20 -31.5 -39.5t-21.5 -42.5zM614 401q20 10 32.5 20.5t33.5 20.5l14 66h13v14h-13q-20 -29 -31.5 -46t-18.5 -29.5t-13.5 -22t-16.5 -23.5zM827 737v-14q0 -10 -8 -21.5t-18 -31.5 l14 -27q0 -10 -8 -12t-19 -2l13 -13h14q10 35 16.5 52.5t6.5 29.5q0 8 -3.5 16.5t-7.5 22.5zM252 723q-10 -10 -13 -24.5t-14 -14.5l13 -68h-13v-26h13q10 53 12 74.5t2 33.5v25zM868 508q-20 -20 -26 -23.5t-27 -3.5l12 -53q10 10 12.5 20.5t2.5 20.5h26v39zM279 496 q-10 -20 -15.5 -23.5t-25.5 -3.5l14 -68q10 10 11 26.5t1 27.5h15v41zM1298 643q29 20 36 23.5t18 3.5l12 67q-10 -10 -13 -26.5t-14 -26.5h-12zM735 776l-14 15q-10 -20 -20.5 -31.5t-20.5 -22.5q10 0 20.5 1t20.5 12q0 10 2 13t12 13zM735 655v15h-14l-27 -41 q20 10 25.5 18t15.5 8zM1257 602h27v14q-10 0 -13.5 -2t-13.5 -12zM868 563h-14l14 -26v26zM291 537h-12v-15q10 0 11 2.5t1 12.5zM668 575h12v27zM600 696q8 8 12 19q2 2 2 8q-10 -10 -12 -13.5t-2 -13.5zM989 442q0 2 4 -18l2 -2q4 4 4 6q0 4 -10 14zM1204 735v-4q2 2 2 3 z" />
<glyph unicode="x" horiz-adv-x="1001" d="M840 1090q10 -20 26.5 -39t26.5 -29q-20 -31 -33.5 -52.5t-34.5 -41.5q4 -16 4 -23q0 -29 -17 -70.5t-42 -88t-53.5 -93.5t-50.5 -88q0 29 3 47.5t3 36.5q0 14 -6 37q-31 -51 -65 -84t-44 -63q10 10 13 12t14 2q10 20 18 31.5t8 21.5h41v-41h15l36 -76q10 -20 17.5 -30 t11.5 -15v-79q51 -92 114.5 -190.5t115.5 -199.5q-41 0 -81 -2t-81 -12q-31 23 -54.5 35t-52.5 33q-20 31 -25 52t-16 42q-41 31 -72.5 73t-60.5 101q-51 -92 -104.5 -184.5t-124.5 -163.5q-20 0 -28.5 4t-11.5 12t-5 17.5t-8 19.5q-2 -2 -4.5 -3t-4.5 -3q-10 -6 -18 -6h-68 q-10 -10 -26.5 -20.5t-26.5 -20.5h-27q0 20 6.5 33.5t6.5 33.5q31 20 68.5 48t78.5 59l-12 14q-41 -31 -67.5 -49t-67.5 -18q10 51 37.5 105t56.5 95q10 6 15 18.5t9.5 25t7.5 22.5t9 14q14 10 35.5 38t44 61.5t44 69.5t38.5 61q-10 20 -20.5 37.5t-20.5 27.5 q-25 55 -64 122t-75.5 133.5t-62.5 129t-26 113.5q29 -10 52.5 -23.5t54.5 -44.5v27h80v41l26 -15q10 -10 27.5 -21t28.5 -32q0 -31 -7.5 -60.5t-7.5 -60.5l15 -12q0 41 8 60.5t57 19.5q14 -23 26.5 -53.5t25 -62.5t22.5 -61.5t20 -49.5q14 25 36 64.5t44.5 83.5t44 86 t37.5 73q49 0 78 -6t70 -6zM786 1008h-81l-66 -121q41 31 73.5 59.5t73.5 48.5v13zM371 338q-10 -10 -20.5 -12t-20.5 -2q-10 -10 -20.5 -26.5t-20.5 -27.5h-39q0 10 6 20.5t6 20.5h-12q-41 -59 -41 -121q51 51 95 84t67 64zM786 43q10 0 26.5 6t27.5 6l-54 109 q-6 -10 -7 -24.5t-3 -30t-5 -29.5t-13 -25q10 0 14 -6t14 -6zM397 444q-41 -20 -50 -23t-17 -3l-41 -68q10 10 26.5 21.5t26.5 34.5h14zM356 848q31 20 37 23t17 3l26 68q-10 -10 -19 -22.5t-20 -32.5h-14zM424 485l-14 -26q10 0 13 1t13 11zM371 700v39q-10 -10 -11 -14 q1 -9 11 -25zM539 659q-8 -2 -9 -14v-12q8 8 13 20l6 13z" />
<glyph unicode="y" horiz-adv-x="952" d="M160 -266q-12 8 -20.5 16t-8.5 27q0 12 3 30.5t13 47.5q51 -12 86 -13q37 0 52.5 9.5t21.5 17.5q0 20 36 58t85 63q0 10 -8 19t-19 20h-39q-10 10 -14 26.5t-14 26.5l20 61q4 16 10.5 30.5t10.5 29.5l-13 14q-6 -20 -10 -34.5t-11 -25t-21.5 -15.5t-38.5 -5 q-20 49 -38 99.5t-28 101.5q8 2 8 12q0 12 -11 29.5t-11 26.5q6 8 6 28q0 25 -8.5 60.5t-19.5 72.5t-20 69t-12 50q10 10 11.5 28.5t1.5 39.5q-20 92 -53 181t-54 181q18 0 32.5 -7t27 -14.5t25 -14.5t24.5 -7q10 0 12 2q2 -2 12 -2q29 0 69 15.5t64 15.5q18 0 19 -19 q0 -23 -15.5 -55.5t-15.5 -48.5q37 -25 58.5 -76t35 -109.5t22.5 -114.5t19 -89q10 -20 20.5 -46t20.5 -48q0 -20 6.5 -40t6.5 -40q10 41 25.5 72.5t15.5 62.5q0 20 1 41.5t11 50.5q14 55 24.5 116.5t22.5 122t32.5 117t55.5 101.5q29 0 43 -16.5t25 -36.5q0 10 6 13t6 13 h67q10 10 19.5 20.5t19.5 20.5l29 -14v-39q-23 -31 -48.5 -61.5t-45.5 -59.5v-14q25 35 41 52t51 17h13.5t15.5 -2q-10 -41 -13.5 -94t-13.5 -94q-23 -10 -26 -40t-3 -40q-16 -10 -30.5 -48t-26.5 -82t-21.5 -84t-13.5 -54q-10 -20 -20 -33.5t-21 -34.5q-20 -92 -33.5 -181 t-33.5 -181q-20 0 -40 -6.5t-40 -6.5q14 -23 23.5 -44t9.5 -40q0 -16 -7 -24q4 -16 5 -17q0 -12 -4.5 -22t-4.5 -19q0 -6 4 -10h-26v-26h-27v-27q10 0 16.5 -10t6.5 -23q0 -14 -7.5 -26.5t-21.5 -12.5q-8 0 -20 6q-10 -23 -26.5 -34t-27.5 -21v-12h-14v-14q0 -8 -8 -11 q-2 -2 -6 -2v-14q-31 -10 -47 -10q-20 0 -46 10q0 10 -2 20.5t-12 20.5q0 -10 -8 -25.5t-18 -15.5q-10 -10 -12.5 -20.5t-2.5 -20.5q-20 10 -48 41t-58 41v-41q-2 -2 -11 -2q-12 0 -17 7t-9 16.5t-10.5 18.5t-20.5 13zM322 887h-13q-10 0 -24.5 -2t-30.5 -11l27 -108 q20 31 26 59.5t27 48.5q0 4 -6 11q-4 2 -6 2v0zM723 739q6 0 8 2q10 2 21 13q10 10 13 20t13 21q10 0 19.5 6t19.5 6q0 -10 -6 -20.5t-6 -20.5h12q8 23 14.5 40t6.5 36q0 14 -7 32q-41 -41 -69.5 -78t-38.5 -57zM348 406l-14 -15q0 -10 -1 -20.5t-11 -20.5q0 -10 -8.5 -11 t-18.5 -1q0 10 -7 19.5t-7 19.5h-13q0 -29 9.5 -57.5t29.5 -49.5q20 41 30.5 73t10.5 63zM643 418q20 10 33.5 20.5t34.5 20.5l12 53h14l15 27h-29q-20 -31 -30.5 -47.5t-18.5 -28.5l-15 -23q-8 -8 -16 -22zM575 123v-41q12 0 19 6l8 8l41 107q-20 -20 -39 -40t-29 -40z M268 727l-41 -41l15 -53q0 -10 -9 -12q-2 -2 -6 -3v-12h15q16 45 21 62.5t5 31.5v27zM723 633q31 20 39 23t29 3l14 68q-10 -20 -20.5 -31.5t-20.5 -21.5h-12zM295 512l-41 -41l14 -53v53h27v41zM334 -279q14 -35 20 -49t11 -14q2 0 10 8q-10 10 -11.5 21.5t-1.5 33.5h-28z M307 553h-12v-27q10 0 11 2t1 25zM455 -225q0 -12 6 -19l8 -8v27h-14zM631 700q8 8 10 19q2 2 2 8q-10 0 -11 -3.5t-1 -23.5zM696 592h15l12 14q-10 0 -13.5 -2t-13.5 -12z" />
<glyph unicode="z" horiz-adv-x="937" d="M66 172l55 12q-2 2 -4 3t-4 6q-6 6 -7 18q20 20 34 40.5t34 41.5l-14 12q-2 -2 -4 -2q0 6 13 32.5t29.5 56.5t33 53.5t20.5 23.5q2 0 2 -2q20 29 45 51.5t35 42.5t14 40t14 40q41 51 75 116.5t85 125.5q-49 0 -106.5 -8.5t-114.5 -8.5q-37 0 -72.5 6.5t-68.5 22.5 q-20 -14 -37 -14q-29 0 -29 41v14q8 0 19 6l8 8q6 14 6 33v27q0 8 1 16t5 16q18 6 31 7q14 0 24.5 -5.5t24.5 -13.5v53h14l15 15h12v12q31 0 60.5 -3t60.5 -24q10 10 18 20.5t8 20.5q31 0 39.5 -3t28.5 -23q20 0 39.5 -7.5t40.5 -7.5q10 10 12 13.5t2 13.5h53v-12 q10 0 19 -8q2 -2 4 -3.5t4 -3.5q0 10 7 20.5t7 20.5h121q20 -20 34.5 -25t45.5 -16q10 -10 13 -20t14 -21q-10 -29 -20.5 -50t-20.5 -42v-14h-27l27 -27q-10 0 -11.5 -2t-1.5 -12h13q-10 -29 -27.5 -68t-38.5 -79q-23 0 -32 -21.5t-9 -32.5q-20 -10 -45.5 -38.5t-49.5 -61.5 t-42 -61.5t-25 -38.5q-20 -20 -32.5 -31.5t-32.5 -22.5q-31 -51 -54.5 -99t-54.5 -89h27l-12 -27q12 -6 25.5 -8t23.5 -2q25 0 45 10q49 0 99 -2t102 -12q29 10 53 21.5t53 33.5q10 -23 20.5 -34t20.5 -21q-10 -31 -10 -33q0 -10 22 -33v-28q-14 -10 -18 -26.5t-8 -34 t-11.5 -33t-27.5 -25.5l-82 12q-25 0 -61.5 -9t-71.5 -9q-39 0 -53 18q-47 -6 -89 -20.5t-88 -14.5q-31 0 -53 9q-10 0 -56 -8.5t-118 -18.5v27h-53l26 26l41 27v14h-41q0 -10 -15 -33.5t-25 -33.5q-4 20 -6.5 47.5t-2.5 54.5q1 63 9 86zM575 709h27q10 10 20.5 19t20.5 20 h41q0 -10 -2 -13.5t-12 -13.5h14q39 39 39 82q-49 -31 -88.5 -52.5t-59.5 -41.5zM416 453q20 10 39.5 20t40.5 21l26 41h15l12 12h-12q-23 -16 -38.5 -26.5t-25.5 -17.5t-18.5 -13.5t-16.5 -14.5zM563 627q20 10 29.5 12t19.5 2h19l26 53q-10 -10 -21 -20t-34 -21h-12z M334 252l28 41q-49 -23 -67 -41h39zM295 950q10 -10 16 -14t37 -14l14 14q-23 0 -35 7t-32 7zM428 158q-8 8 -15 10t-12 10v-6q0 -10 8.5 -12t18.5 -2zM401 63v27q-2 0 -7 -3t-5 -9zM817 172h-26v-14zM469 682l27 27q-20 -10 -23.5 -13.5t-3.5 -13.5zM510 588h12l15 26z M711 856v-14l12 14h-12z" />
<glyph unicode="{" horiz-adv-x="790" d="M315 -330l-16 17q2 2 -12 12l-6 25q6 2 -5 22q-14 0 -28 6l-2 -2q-4 0 -4 12q0 6 1 14.5t1 18.5q-23 -2 -45 17q18 8 2 22v41v14q6 16 13 30.5t13 14.5q2 0 6 -4v27l-22 14q-2 2 -3 4t-3 5q-4 20 -4 18h-8q6 20 8 46t10 48q-4 16 0 40t10 48.5t8 47t-8 34.5q2 0 6 7 t6.5 25.5t1 48.5t-7.5 77q-2 8 -2 16v17q-8 14 -51 51q-35 0 -90 16l2 166q141 -2 139 62q-4 66 6 94q-8 18 -12 35v50t-2 46v41q0 76 6 141q6 0 7 4t6 10l-13 9q-4 2 -7 4t-7 4q-14 20 -16 71v71t16 67q16 6 16 30q0 10 6 15l17 2l4 10q-4 18 6 18q37 0 31 11l18 -45v10 q4 0 6 2h2t1 3t-6 10t-17 26l24 18l318 4q6 -6 12 -6t11.5 3t9.5 3q8 0 10 -6t12 -6q0 -23 1 -50.5t9 -49.5q-16 0 -26 -11.5t-27 -19.5q4 -16 8 -31.5t9 -25.5q4 -10 6 -19.5t2 -11.5l-2 2q-2 2 -6 14l-62 11q-16 20 -37.5 26t-44.5 6q-25 0 -47 -4t-16 -28 q-20 -16 -29 -48l6 -51q2 -10 2 -18v-17q0 -45 -18 -57q0 -92 1 -173t3 -163q2 -78 -10 -114q-10 -31 -15 -80q12 -23 17 -39q2 -6 6 -23q4 -18 7 -37.5t7 -42.5l-12 -30q20 -23 18 -55.5t-4 -65.5t-4 -61.5t-2 -45.5q20 -27 21 -57q0 -16 -4.5 -31.5t-8.5 -32.5h-10 l-31 -112q14 -63 29 -64q14 0 45 -2t49 -2q12 0 24.5 7.5t28.5 29.5l54 -53v-14l-13 -15q16 -10 34 -17t34 -7q-6 -29 -7 -66t-1 -67q-10 0 -12.5 -7.5t-10.5 -7.5q-4 0 -9 3t-11 3t-13 -6zM319 1321q0 4 -6 14q-6 6 -6 13l-10 -19zM352 612q-10 -10 -13 -11t-13 -1 q-10 -23 -13.5 -35t-13.5 -35h-29q0 10 -1 20.5t-11 20.5h-14q0 -41 3 -72.5t23 -62.5q23 51 47.5 98t34.5 78zM332 1155q-10 0 -28.5 -7t-39.5 -7v-150q20 41 35.5 80t46.5 70zM365 141q-10 -10 -22.5 -27.5t-33.5 -27.5v-80h-14v-29h14q14 41 22.5 63.5t13.5 38t9.5 29 t10.5 33.5zM307 750q-20 -23 -26.5 -27t-26.5 -14v-68q10 10 13 26.5t14 26.5h14zM324 926v-41l14 41h-14z" />
<glyph unicode="|" horiz-adv-x="417" d="M244 1538q20 -23 37.5 -50.5t35.5 -49.5q0 -33 -5 -56.5t-5 -56.5q27 -45 36 -121t9 -162q0 -78 -4 -151.5t-4 -118.5q0 -33 1 -66.5t9 -76.5q-2 -16 -2 -33.5v-34.5q0 -74 4 -154.5t4 -158.5q0 -70 -6 -135.5t-24 -122.5q-37 0 -46.5 19.5t-27.5 51.5q0 -12 -6 -15 t-6 -13h-74q0 -10 -5 -28.5t-5 -29.5h-37q0 23 -6 43.5t-6 42.5q16 33 33.5 74t25.5 82v14q-16 -53 -33.5 -76.5t-62.5 -23.5q-10 66 -17.5 136.5t-7.5 133.5q14 12 14 39q0 20 -5 40l-9 36q8 10 14.5 34.5t9.5 56.5t5 69t2 74q0 45 -1 81.5t-5 53.5q10 33 18 54.5t19 43.5 q0 129 -12.5 256t-12.5 256q35 10 79 21.5t79 21.5zM207 500q-6 -10 -9 -11.5t-8 -1.5h-8q-10 -23 -12 -36t-10 -35h-27q0 10 -1 21.5t-9 21.5h-12q0 -43 3 -76t19 -66q20 53 43 102.5t31 80.5zM219 1425q-10 0 -26.5 -8t-32.5 -8v-156q16 41 30.5 83t42.5 73zM197 954 q-10 -10 -21.5 -27.5t-28.5 -29.5v-82h-14v-31h14q12 43 19.5 66.5t11.5 39t8.5 28.5t10.5 36zM170 643q-16 -23 -22.5 -28t-24.5 -15v-70q8 10 11 27.5t13 28.5h13zM182 715v-43l15 43h-15z" />
<glyph unicode="}" horiz-adv-x="768" d="M166 -334q-6 6 -12 6t-11.5 -3t-9.5 -3q-8 0 -10 7.5t-12 7.5q0 31 -1 67.5t-8 65.5q16 0 34 7t34 17l-12 15v14l53 53q16 -23 28.5 -30t24.5 -7q18 0 49 2t45 2t29 64l-31 112h-10l-8 32t-4 32q0 31 20 57q0 16 -2 45t-4 62t-4 65.5t18 55.5l-12 30q4 23 7 42.5t8 37.5 q4 16 6 23q4 16 16 39q-4 49 -14 80q-12 37 -11 114q2 82 3.5 163t1.5 173q-18 12 -19 57v16.5t2 18.5l6 51q-8 31 -28 48q6 25 -16.5 28.5t-47.5 3.5q-23 0 -44 -6t-38 -26l-61 -11q-4 -12 -6 -14l-2 -2q0 2 2 11t6 20q4 10 8 25.5t8 31.5q-16 8 -26.5 19.5t-26.5 11.5 q8 23 9 50.5t1 49.5q10 0 12.5 6t10.5 6q4 0 9 -3t11 -3t13 6l317 -4l25 -18q-12 -18 -17.5 -25.5t-6.5 -10.5t1 -3h2q2 -2 6 -2v-10l19 45q-6 -10 30 -11q8 0 6 -18l5 -10l16 -2q6 -4 6 -15q0 -25 16 -30q16 -25 16.5 -67t-1.5 -71q0 -49 -15 -71q-4 -2 -7 -4t-7 -4l-12 -9 q4 -6 5 -10t7 -4q6 -66 6 -141v-41q-2 -23 -2 -46.5v-49.5q-4 -16 -12 -35q10 -29 6 -94q-2 -63 139 -62l2 -166q-55 -16 -90 -16q-43 -37 -51 -51v-16.5t-2 -16.5q-6 -47 -7 -77t1 -48.5t6 -25.5t6 -7q-10 -12 -8 -34.5t8 -47t10.5 -48t-0.5 -40.5q8 -23 10.5 -48.5 t8.5 -45.5h-8q0 2 -4 -18q-2 -2 -3.5 -4.5t-3.5 -4.5l-22 -14v-27q4 4 6 4q6 0 13.5 -14t13.5 -31v-14v-41q-16 -14 2 -22q-23 -18 -45 -17q0 -10 1 -18t1 -15q0 -12 -4 -12l-2 2q-16 -6 -29 -6q-10 -20 -4 -22l-6 -25q-16 -10 -13 -12l-16 -17zM487 1329l-10 19 q0 -6 -6 -13q-6 -10 -6 -14zM432 612q10 -31 35 -78t47 -98q20 31 23.5 62.5t3.5 72.5h-15q-10 -10 -11 -20t-1 -21h-29q-10 23 -13 35.5t-13 34.5q-10 0 -13.5 1t-13.5 11zM438 1141q31 -31 46.5 -70t35.5 -80v150q-20 0 -38.5 7t-28.5 7zM420 141q6 -20 10 -33.5t9 -29 t13.5 -38t22.5 -63.5h14v29h-14v80q-20 10 -32.5 27.5t-22.5 27.5zM489 694h15q10 -10 13 -26.5t13 -26.5v68q-20 10 -26 14t-27 27zM446 926l15 -41v41h-15z" />
<glyph unicode="~" horiz-adv-x="1064" d="M950 584l15 -21q12 -121 -21 -155q-23 -23 -59 -25q-68 -41 -131 -61q-51 0 -125 22q-63 20 -113 70q-154 47 -199 47q-29 0 -59.5 -3t-36.5 -28q-4 -12 -15 -26.5t-25.5 -28t-28 -27.5t-19.5 -26l-4 30l-41 101l14 24l-43 62q8 14 15.5 27.5t17.5 25.5q23 31 31 16 q14 20 31 8q72 88 108 84q27 14 49 15q76 -8 174 -49q45 -8 86 -29q6 -2 30 -12.5t52 -46.5q76 -33 82 -15q72 18 120 57t77 95zM291 682q20 -23 38.5 -29t28.5 -26h82v-15h29v15q-41 16 -64.5 24t-41 13.5t-32.5 8.5t-40 9zM682 432q31 -31 36 -37t5 -16h82 q-20 10 -33.5 13t-34.5 14v14zM401 592v-29h41q0 10 -5 14.5t-36 14.5z" />
<glyph unicode="&#xa1;" horiz-adv-x="743" d="M121 1227q-16 20 -26.5 19t-26.5 7q10 12 11 29.5t1 28.5q-10 35 -10 73q0 23 3 49.5t7 57.5q23 -10 44 -8t38 -21v17q16 0 23.5 9t23.5 9q4 4 10 4q4 0 7 -1t7 -1q8 0 13 6h20q4 -6 12.5 -8t17.5 -3t16 -4t7 -9q-18 -25 -30.5 -34t-12.5 -11t3 -2q4 0 11 1t19 1 q8 -31 9 -70t1 -70q-12 0 -12 -16q0 -6 4 -18q-4 4 -8 4q-6 0 -11 -11.5t-5 -19.5q0 -4 1 -5t1 -3q-23 0 -54.5 3t-62.5 3q-16 0 -28.5 -1t-22.5 -5zM625 1511q16 -20 26.5 -18t26.5 -8q-10 -10 -11 -27.5t-1 -30.5q8 -25 8 -75q0 -23 -2 -49.5t-6 -55.5q-12 6 -23.5 7 t-22 2t-19.5 5.5t-17 14.5v-14q-16 0 -23.5 -9.5t-23.5 -9.5q-6 -6 -15 -6q-4 0 -6 1t-6 1q-8 0 -10 -6h-21q-8 10 -30.5 12t-22.5 12q18 23 30.5 32t12.5 14h-4h-29q-8 31 -9 69.5t-1 71.5q10 0 10 14v6q0 10 -2 13q2 0 3 -1t3 -1q10 0 13.5 10t3.5 18v8q23 0 54.5 -4 t59.5 -4q38 0 54 8zM508 1483q-8 8 -19 8q-10 0 -10 -12l-4 -17q-2 -8 -10 -8l-10 -39h-13v-16h13q16 20 25 32.5t13.5 19.5t7.5 14.5zM152 1434q-14 8 -19 8q-12 0 -12 -17.5t-12 -17.5l-11 -41h-12v-14h12q16 20 25.5 31.5t13.5 19.5l6 14zM635 1331q-16 -10 -20.5 -12 t-18.5 -2v-41q6 10 8 18.5t10 8.5h11zM279 1331q-16 -10 -20.5 -12t-18.5 -2v-41q6 10 8 18.5t10 8.5h10zM311 1260q6 0 8 -7q-6 1 -8 7zM426 1485l8 -8z" />
<glyph unicode="&#xa2;" horiz-adv-x="935" d="M446 1372q20 -23 38 -50.5t36 -49.5q0 -33 -5 -56.5t-5 -56.5l12 -24q4 6 13 14h108l78 -43q27 -14 47 -28.5t36.5 -34t30 -46t25.5 -63.5h27q-10 -23 -18.5 -42.5t-8.5 -39.5q10 -25 10 -55q0 -35 -11 -70t-28 -63h-38q-10 25 -32 33t-46.5 9t-48 1t-37.5 10 q-4 35 -12.5 72.5t-24.5 68.5q-16 27 -37 49v-30q0 -78 -4 -152t-4 -119q0 -33 1 -66.5t9 -76.5q-2 -8 -2 -16.5v-18.5v-33q0 -37 1 -75.5t3 -79.5l2 -58q18 18 41 47q0 51 2 93.5t12 83.5l27 26q6 0 11 -1t12 -1q41 0 71.5 8t53.5 8q29 0 42 -23.5t13 -96.5q12 -29 12 -58 q0 -51 -21.5 -99t-31.5 -87q-4 0 -18.5 -6t-32 -15.5t-37 -18.5t-33.5 -15h-27q-25 0 -49 -2t-47 -11q-2 -16 -2 -33.5t-2 -33.5q-6 -66 -25 -123q-37 0 -46 19.5t-27 52.5q0 -12 -6.5 -15.5t-6.5 -13.5h-12q0 -10 -6 -29l-2 -6q-2 4 -2 10t-2 11q-6 20 -6 43q16 31 12 65 l-2 -2q-8 8 -14 12q-10 -6 -33 -6l-4 23h-2v12q-2 8 -2 14t-2 15l-7 -6q-4 -12 -4 -19v-4q-29 0 -38 10t-29 31h-53v27q-20 0 -37 -3.5t-27 -3.5q-12 0 -18 7l14 67q-86 14 -86 76q0 29 18 59q-16 86 -30.5 162t-14.5 156q0 18 1 36.5t3 39.5h-12q10 29 19.5 51t19.5 43 q0 4 -6 10q-2 2 -6 2v55h12q6 25 20.5 56.5t36 59.5t49 48.5t58.5 24.5q0 10 6 27.5t6 27.5q14 0 27 6l26 12q25 10 37 11q14 0 19 -2q0 -10 7 -20.5t7 -20.5q6 23 14 32q-4 59 -7 120t-3 122q37 10 27 21q-7 12 28 22zM406 889q-31 -23 -46.5 -48.5t-46.5 -56.5 q0 -10 -1 -20t-3 -21q0 -10 -7 -28.5t-7 -38.5q10 -35 15 -78t5 -84q0 -43 13 -82q14 -39 -33 -67h-12q6 -10 4 -19.5t-2 -19.5h6q0 -23 17.5 -45.5t37.5 -22.5q0 -27 8 -45v23q14 12 15 38q0 20 -5.5 40t-9.5 36q8 10 14.5 35t9.5 56.5t5 68.5t2 74q0 45 -1 81.5t-5 53.5 q10 33 18.5 54.5t18.5 43.5v38.5t-2 39.5q-8 -4 -8 -6v0zM188 616q-10 0 -13 -2t-13 -12v-53q-10 -10 -20.5 -12t-20.5 -2q0 10 -7.5 27.5t-7.5 27.5h-12q10 -41 16.5 -76t36.5 -76q10 61 25.5 104t15.5 74zM211 274q10 10 16 27.5t27 26.5l-8 82h12l2 41l-27 2 q-12 -59 -15 -85t-5 -51zM694 408q-10 0 -21 -20.5t-32 -20.5l27 -111q10 23 13 51.5t13 59.5v41zM322 956l14 -41h-14v-26h14q16 59 21 83.5t5 45.5v20q-20 -21 -40 -82zM532 584q-16 -23 -22 -28t-25 -15l7 -31q4 -29 8 -37q4 -4 14 -53l8 106zM137 741q-20 -31 -25.5 -36 t-15.5 -5l15 -82v11q0 12 1 26.5t11 30.5h14v55zM819 764h-14v-41q10 0 12 5t2 36zM444 715v-43l15 43h-15zM424 -190q0 12 2 22q2 -6 -2 -22z" />
<glyph unicode="&#xa5;" horiz-adv-x="1177" d="M1135 713q-23 -23 -49.5 -42.5t-47.5 -39.5q-31 0 -54 6t-54 6q-33 -23 -43 -34t-18.5 -15t-26 -2t-66.5 4l2 -2q-12 -8 -20 -29q-2 -8 -4 -15t-4 -18q236 16 262 -2q10 0 102 -41q0 -31 -23.5 -46t-43.5 -35h14q10 -20 11 -40t1 -42q10 -10 20.5 -13.5t20.5 -13.5v-27 q-10 -10 -28.5 -14t-38.5 -14q-23 43 -62 49l-12 -12l51 -23v-41q-61 -10 -131 -18.5t-141 -8.5q-6 12 -27 13q-10 0 -16 -2q2 -8 4 -14.5t4 -14.5q8 -33 14 -66.5t6 -70.5q-41 -10 -101.5 -26.5t-100.5 -26.5q-23 20 -41.5 31.5t-28.5 21.5q0 23 2 42t12 40q-29 14 -37 49 q-4 12 -5 25.5t-3 27.5h-31q-23 -2 -40 -2h-27q-23 10 -6 21q14 8 -68 0q-41 -4 -85 -10.5t-93 -10.5q-10 51 -20.5 94t-20.5 84q14 10 19.5 26.5t6.5 34t3 34t12 26.5q14 0 37.5 -6t48.5 -14q27 -8 30 -14.5t19 -6.5q16 12 28.5 20.5t18.5 12.5q14 8 43 8t64 -6 q33 -6 80 -6v4v18q2 16 4 32.5t6 31.5q-20 0 -41 -1t-43 -3q-39 -2 -57.5 -3t-16.5 -1q-66 0 -128 6t-118 28q0 20 4.5 33t13.5 20t21.5 13t28.5 16q-10 0 -13 7.5t-14 7.5v82q-10 0 -27.5 6t-27.5 6v41q23 0 42 7t40 7q31 -20 70 -38.5t79 -28.5h15q-53 20 -6 24q4 2 7 2 t7 2q-2 4 -4 7.5t-4 7.5q-10 20 -21.5 36.5t-21.5 32.5q10 4 10 17q0 10 -8 20t-17 19q6 6 7 20q0 18 -8.5 43t-19.5 49.5t-20.5 46t-11.5 31.5q0 20 6.5 31.5t6.5 21.5q-31 61 -61 110.5t-60 121.5q25 0 46 6t39.5 14t37 14.5t38.5 6.5q14 -4 41 -7.5t53.5 -5.5t50 -5 t34.5 -9q2 -2 2 -12q0 -16 -9.5 -35t-9.5 -29q0 -4 2 -6q41 -20 63.5 -57t34 -78t15.5 -79t10 -58q20 -20 32.5 -39t22.5 -29q0 -20 6.5 -32.5t6.5 -22.5q23 23 34 47.5t21 34.5q0 20 7 38.5t7 28.5q20 41 32.5 86t28 88t38 83t63.5 71q39 0 51.5 -9t30.5 -18l14 13h82 q10 0 20.5 9t20.5 19h27q10 -10 12 -20t2 -21q-31 -23 -61.5 -42t-61.5 -40l13 -14q31 31 58.5 43t78.5 12q-10 -31 -15.5 -68.5t-25.5 -68.5q-18 -10 -18 -28q0 -6 2 -13.5t2 -11.5q-20 -10 -40 -38t-35 -58.5t-24.5 -58t-9.5 -35.5q-39 -23 -53 -56q-10 -23 -18.5 -43 t-16.5 -43q115 27 240 27q10 -41 20.5 -88t20.5 -88zM502 598q-10 10 -11.5 13t-1.5 14q-23 10 -35 13t-34 13v29q10 0 20.5 1t20.5 11v15q-41 0 -73 -3.5t-62 -23.5q51 -23 98 -47.5t78 -34.5zM797 504q10 -10 13 -18.5t13 -8.5q10 -10 27.5 -13t28.5 -13q10 -10 11 -20.5 t1 -20.5h-53v-15q41 0 79.5 3t69.5 24q-61 23 -105 47.5t-85 34.5zM256 328q20 -23 38.5 -29t29.5 -27h82v-14h28v14q-41 16 -64.5 24.5t-41 13.5t-32.5 8.5t-40 9.5zM561 49q10 0 28.5 7t39.5 7v82q-20 -23 -35.5 -42t-46.5 -40zM356 1343q-20 -10 -26 -18t-27 -8l27 -41 h-27v-29h27q16 39 21 54.5t5 25.5v16zM881 1204q2 2 20 2q0 10 9.5 19.5t19.5 9.5t19 6t20 6v-26h14q8 14 14.5 27.5t6.5 23.5t-7 16q-23 -16 -42 -29.5t-35 -23.5q-8 -4 -16.5 -10t-16.5 -11l-13 -8q-4 -2 -10 -8q9 6 17 6zM315 1221q-10 0 -20 -13.5t-21 -13.5l15 -55 q10 10 15 27.5t26 27.5q0 10 -2 12q-3 15 -13 15zM535 1053q-23 20 -27 26t-14 27h-68q10 -10 26.5 -13t26.5 -14v-14zM485 121q20 10 26.5 20.5t29.5 20.5v53q-6 -8 -11.5 -14t-9.5 -11q-16 -23 -20.5 -34.5t-14.5 -34.5zM764 856q23 10 35 20.5t35 20.5l12 39 q-16 -10 -25 -18q-23 -16 -32 -27.5t-25 -34.5zM874 1124q31 10 39.5 12.5t28.5 2.5l14 41q-10 0 -20 -8.5t-21 -18.5h-14zM344 1030q-23 -10 -27 -12t-14 -2l12 -41q0 10 7.5 14t7.5 15h14v26zM965 700v-28h41q0 10 -5 14t-36 14zM834 1098l14 -15l12 29q-10 0 -13 -2 t-13 -12zM559 1020h-41l41 -14v14zM889 1044v13h-15q-2 -2 -6 -5t-8 -8h29zM616 782v-26q10 10 11 12q0 4 -3.5 6t-7.5 8z" />
<glyph unicode="&#xa8;" horiz-adv-x="937" d="M313 2023q18 -23 31 -24l14 -2q8 0 21 -6q-10 -14 -12 -35t-2 -35q4 -20 7 -41.5t3 -48.5q0 -29 -3 -60.5t-7 -70.5q-14 6 -28.5 7t-28 3t-25 7t-19.5 18v-19q-20 0 -29.5 -11t-29.5 -11q-4 -6 -15 -6q-4 0 -9 1t-9 1q-10 0 -12 -7h-25q-4 6 -15 9.5t-22.5 5.5t-19.5 5 t-8 9q23 31 38 42t15 13t-2 2q-4 0 -12.5 -1t-24.5 -1q-10 39 -12 86.5t-2 85.5q14 0 14 19q0 6 -1 9t-3 11q2 0 2 -1t2 -1q6 0 14 9q10 10 11 28v10q25 0 64.5 -4t76.5 -4q45 0 63 8zM170 1989q-14 8 -23 8q-8 0 -10 -7.5t-4 -14.5l-4 -14t-10 -7l-15 -49h-14v-19h14 q20 25 31.5 39t18 24.5t9.5 19t7 20.5zM326 1802q-18 -12 -24.5 -14t-22.5 -2v-51q8 14 10 23t12 9h12zM80 1982q-4 2 -6 4.5t-4 4.5q8 -1 10 -9zM805 2023q18 -23 31 -24l14 -2q8 0 20 -6q-10 -14 -12 -35t-2 -35q4 -20 7 -41.5t3 -48.5q0 -29 -3 -60.5t-7 -70.5 q-14 6 -28.5 7t-28 3t-24.5 7t-19 18v-19q-20 0 -29.5 -11t-30.5 -11q-4 -6 -14 -6q-4 0 -9 1t-9 1q-10 0 -13 -7h-24q-4 6 -15.5 9.5t-22.5 5.5t-19.5 5t-8.5 9q23 31 38 42t15 13t-2 2q-4 0 -12 -1t-25 -1q-10 39 -12 86.5t-2 85.5q14 0 14 19q0 6 -1 9t-3 11q2 0 2 -1 t2 -1q6 0 15 9q10 10 10 28v10q25 0 65 -4t76 -4q46 0 64 8zM662 1989q-14 8 -23 8q-8 0 -10 -7.5t-4 -14.5t-4.5 -14t-10.5 -7l-14 -49h-14v-19h14q20 25 31.5 39t17.5 24.5t9.5 19t7.5 20.5zM817 1802q-18 -12 -24.5 -14t-22.5 -2v-51q8 14 10 23t13 9h12zM571 1982 q-4 2 -6 4.5t-4 4.5q8 -1 10 -9z" />
</font>
</defs>
</svg>
